<?xml version="1.0" encoding="UTF-8"?>
<!-- Created with Inkscape (http://www.inkscape.org/) -->
<svg width="200" height="200" version="1.1" viewBox="0 0 200 200" xml:space="preserve" xmlns="http://www.w3.org/2000/svg"><g transform="matrix(1.3333 0 0 -1.3333 0 566.24)"><g transform="matrix(1.0347 0 0 1.0347 -2.0962 -36.812)"><g fill="#dadbd8"><path d="m32.45 390.67c0-0.0335-1.993-0.0607-4.451-0.0607-2.4588 0-4.4512 0.0272-4.4512 0.0607s1.9924 0.0607 4.4512 0.0607c2.458 0 4.451-0.0272 4.451-0.0607"/><path d="m28.569 385.42h-1.507v3.1778h1.507v-3.1778"/><path d="m32.45 384.18c0-0.0335-1.993-0.0607-4.451-0.0607-2.4588 0-4.4512 0.0272-4.4512 0.0607s1.9924 0.0607 4.4512 0.0607c2.458 0 4.451-0.0272 4.451-0.0607"/><path d="m28.569 378.92h-1.507v3.1778h1.507v-3.1778"/><path d="m32.45 377.68c0-0.0335-1.993-0.0607-4.451-0.0607-2.4588 0-4.4512 0.0272-4.4512 0.0607 0 0.0337 1.9924 0.0609 4.4512 0.0609 2.458 0 4.451-0.0272 4.451-0.0609"/><path d="m28.569 372.61h-1.507v3.1778h1.507v-3.1778"/><path d="m32.45 371.36c0-0.0335-1.993-0.0607-4.451-0.0607-2.4588 0-4.4512 0.0272-4.4512 0.0607s1.9924 0.0607 4.4512 0.0607c2.458 0 4.451-0.0272 4.451-0.0607"/><path d="m28.569 366.27h-1.507v3.1778h1.507v-3.1778"/><path d="m27.062 359.85h1.5071v3.1776h-1.5071z"/><path d="m32.45 365.02c0-0.0335-1.993-0.0607-4.451-0.0607-2.4588 0-4.4512 0.0272-4.4512 0.0607s1.9924 0.0607 4.4512 0.0607c2.458 0 4.451-0.0272 4.451-0.0607"/></g><path d="m19.59 385.42h-1.507v3.1778h1.507v-3.1778" fill="#fafaf9"/><path d="m23.47 384.17c0-0.0335-1.993-0.0607-4.4509-0.0607-2.4587 0-4.4511 0.0272-4.4511 0.0607s1.9924 0.0607 4.4511 0.0607c2.4579 0 4.4509-0.0272 4.4509-0.0607" fill="#dadbd8"/><path d="m19.59 379.01h-1.507v3.1778h1.507v-3.1778" fill="#fafaf9"/><path d="m23.47 377.77c0-0.0335-1.993-0.0607-4.4509-0.0607-2.4587 0-4.4511 0.0272-4.4511 0.0607 0 0.0333 1.9924 0.0607 4.4511 0.0607 2.4579 0 4.4509-0.0274 4.4509-0.0607" fill="#dadbd8"/><path d="m19.59 372.61h-1.507v3.1778h1.507v-3.1778" fill="#fafaf9"/><path d="m23.47 371.36c0-0.0335-1.993-0.0607-4.4509-0.0607-2.4587 0-4.4511 0.0272-4.4511 0.0607s1.9924 0.0607 4.4511 0.0607c2.4579 0 4.4509-0.0272 4.4509-0.0607" fill="#dadbd8"/><path d="m19.59 366.2h-1.507v3.1778h1.507v-3.1778" fill="#fafaf9"/><path d="m23.47 364.96c0-0.0337-1.993-0.0609-4.4509-0.0609-2.4587 0-4.4511 0.0272-4.4511 0.0609 0 0.0333 1.9924 0.0605 4.4511 0.0605 2.4579 0 4.4509-0.0272 4.4509-0.0605" fill="#dadbd8"/><path d="m18.082 359.8h1.507v3.1777h-1.507z" fill="#fafaf9"/><g fill="#dadbd8"><path d="m89.795 406.83c0-0.0485-2.8727-0.0876-6.4158-0.0876-3.5441 0-6.4164 0.0392-6.4164 0.0876 0 0.0482 2.8723 0.0874 6.4164 0.0874 3.5431 0 6.4158-0.0392 6.4158-0.0874"/><path d="m102.74 406.83c0-0.0485-2.8727-0.0876-6.4158-0.0876-3.5443 0-6.4164 0.0392-6.4164 0.0876 0 0.0482 2.8721 0.0874 6.4164 0.0874 3.5431 0 6.4158-0.0392 6.4158-0.0874"/><path d="m94.972 399.54h2.1723v4.5806h-2.1723z"/><path d="m102.74 397.74c0-0.0482-2.8727-0.0874-6.4158-0.0874-3.5443 0-6.4164 0.0392-6.4164 0.0874s2.8721 0.0874 6.4164 0.0874c3.5431 0 6.4158-0.0392 6.4158-0.0874"/><path d="m94.972 390.17h2.1723v4.5806h-2.1723z"/><path d="m102.74 388.37c0-0.0482-2.8727-0.0874-6.4158-0.0874-3.5443 0-6.4164 0.0392-6.4164 0.0874 0 0.0485 2.8721 0.0876 6.4164 0.0876 3.5431 0 6.4158-0.0392 6.4158-0.0876"/><path d="m94.972 380.8h2.1723v4.5805h-2.1723z"/><path d="m102.74 379c0-0.0485-2.8727-0.0874-6.4158-0.0874-3.5443 0-6.4164 0.039-6.4164 0.0874 0 0.0482 2.8721 0.0874 6.4164 0.0874 3.5431 0 6.4158-0.0392 6.4158-0.0874"/><path d="m94.972 371.7h2.1723v4.5806h-2.1723z"/><path d="m102.74 369.9c0-0.0482-2.8727-0.0876-6.4158-0.0876-3.5443 0-6.4164 0.0394-6.4164 0.0876s2.8721 0.0874 6.4164 0.0874c3.5431 0 6.4158-0.0392 6.4158-0.0874"/><path d="m94.972 362.56h2.1723v4.5806h-2.1723z"/><path d="m94.972 353.3h2.1723v4.5806h-2.1723z"/><path d="m102.74 360.76c0-0.0482-2.8727-0.0874-6.4158-0.0874-3.5443 0-6.4164 0.0392-6.4164 0.0874 0 0.0485 2.8721 0.0876 6.4164 0.0876 3.5431 0 6.4158-0.0392 6.4158-0.0876"/></g><path d="m82.028 399.4h2.1722v4.5805h-2.1722z" fill="#fafaf9"/><path d="m89.795 397.6c0-0.0482-2.8727-0.0874-6.4158-0.0874-3.5441 0-6.4164 0.0392-6.4164 0.0874 0 0.0485 2.8723 0.0876 6.4164 0.0876 3.5431 0 6.4158-0.0392 6.4158-0.0876" fill="#dadbd8"/><path d="m82.028 390.16h2.1722v4.5807h-2.1722z" fill="#fafaf9"/><path d="m89.795 388.37c0-0.0482-2.8727-0.0874-6.4158-0.0874-3.5441 0-6.4164 0.0392-6.4164 0.0874 0 0.0485 2.8723 0.0876 6.4164 0.0876 3.5431 0 6.4158-0.0392 6.4158-0.0876" fill="#dadbd8"/><path d="m82.028 380.93h2.1722v4.5806h-2.1722z" fill="#fafaf9"/><path d="m89.795 379.13c0-0.0485-2.8727-0.0878-6.4158-0.0878-3.5441 0-6.4164 0.0394-6.4164 0.0878 0 0.048 2.8723 0.0872 6.4164 0.0872 3.5431 0 6.4158-0.0392 6.4158-0.0872" fill="#dadbd8"/><path d="m82.028 371.7h2.1722v4.5806h-2.1722z" fill="#fafaf9"/><path d="m89.795 369.9c0-0.0482-2.8727-0.0876-6.4158-0.0876-3.5441 0-6.4164 0.0394-6.4164 0.0876s2.8723 0.0874 6.4164 0.0874c3.5431 0 6.4158-0.0392 6.4158-0.0874" fill="#dadbd8"/><path d="m82.028 362.46h2.1722v4.5805h-2.1722z" fill="#fafaf9"/><path d="m89.795 360.67c0-0.0482-2.8727-0.0874-6.4158-0.0874-3.5441 0-6.4164 0.0392-6.4164 0.0874 0 0.0485 2.8723 0.0874 6.4164 0.0874 3.5431 0 6.4158-0.039 6.4158-0.0874" fill="#dadbd8"/><path d="m82.028 353.23h2.1722v4.5807h-2.1722z" fill="#fafaf9"/><path d="m99.263 379.8h4.9513v4.3625h-4.9513z" fill="#f3f2f1"/><path d="m103.03 379.8h1.1801v4.3625h-1.1801z" fill="#e7e8e5"/><path d="m96.493 379.8h15.6v0.25443h-15.6z" fill="#dadbd8"/><path d="m100.43 375.39h1.1868v2.5024h-1.1868z" fill="#fafaf9"/><g fill="#dadbd8"><path d="m104.67 374.41c0-0.0263-1.5694-0.0478-3.5049-0.0478-1.9366 0-3.5056 0.0215-3.5056 0.0478s1.569 0.0476 3.5056 0.0476c1.9355 0 3.5049-0.0213 3.5049-0.0476"/><path d="m107.5 375.39h1.1868v2.5024h-1.1868z"/><path d="m111.74 374.41c0-0.0263-1.5696-0.0478-3.5051-0.0478-1.9364 0-3.5056 0.0215-3.5056 0.0478s1.5692 0.0476 3.5056 0.0476c1.9355 0 3.5051-0.0213 3.5051-0.0476"/><path d="m108.69 370.42h-1.1868v2.5026h1.1868v-2.5026"/><path d="m111.74 369.44c0-0.0263-1.5696-0.0478-3.5051-0.0478-1.9364 0-3.5056 0.0215-3.5056 0.0478s1.5692 0.0476 3.5056 0.0476c1.9355 0 3.5051-0.0213 3.5051-0.0476"/><path d="m108.69 365.3h-1.1868v2.5026h1.1868v-2.5026"/><path d="m111.74 364.32c0-0.0263-1.5696-0.0478-3.5051-0.0478-1.9364 0-3.5056 0.0215-3.5056 0.0478 0 0.0265 1.5692 0.0478 3.5056 0.0478 1.9355 0 3.5051-0.0213 3.5051-0.0478"/><path d="m107.5 360.19h1.1868v2.5026h-1.1868z"/><path d="m111.74 359.2c0-0.0265-1.5696-0.048-3.5051-0.048-1.9364 0-3.5056 0.0215-3.5056 0.048 0 0.0263 1.5692 0.0478 3.5056 0.0478 1.9355 0 3.5051-0.0215 3.5051-0.0478"/><path d="m107.5 355.21h1.1868v2.5025h-1.1868z"/><path d="m111.74 354.23c0-0.0263-1.5696-0.0477-3.5051-0.0477-1.9364 0-3.5056 0.0213-3.5056 0.0477 0 0.0265 1.5692 0.048 3.5056 0.048 1.9355 0 3.5051-0.0215 3.5051-0.048"/><path d="m108.69 350.22h-1.1868v2.5026h1.1868v-2.5026"/><path d="m108.69 345.16h-1.1868v2.5026h1.1868v-2.5026"/><path d="m111.74 349.24c0-0.0265-1.5696-0.0478-3.5051-0.0478-1.9364 0-3.5056 0.0213-3.5056 0.0478 0 0.0263 1.5692 0.0478 3.5056 0.0478 1.9355 0 3.5051-0.0215 3.5051-0.0478"/></g><path d="m101.62 370.35h-1.1868v2.5026h1.1868v-2.5026" fill="#fafaf9"/><path d="m104.67 369.37c0-0.0266-1.5694-0.0478-3.5049-0.0478-1.9366 0-3.5056 0.0213-3.5056 0.0478 0 0.0263 1.569 0.0478 3.5056 0.0478 1.9355 0 3.5049-0.0215 3.5049-0.0478" fill="#dadbd8"/><path d="m101.62 365.3h-1.1868v2.5026h1.1868v-2.5026" fill="#fafaf9"/><path d="m104.67 364.32c0-0.0265-1.5694-0.0478-3.5049-0.0478-1.9366 0-3.5056 0.0213-3.5056 0.0478 0 0.0263 1.569 0.0478 3.5056 0.0478 1.9355 0 3.5049-0.0215 3.5049-0.0478" fill="#dadbd8"/><path d="m100.43 360.26h1.1868v2.5024h-1.1868z" fill="#fafaf9"/><path d="m104.67 359.28c0-0.0263-1.5694-0.0478-3.5049-0.0478-1.9366 0-3.5056 0.0215-3.5056 0.0478s1.569 0.0476 3.5056 0.0476c1.9355 0 3.5049-0.0213 3.5049-0.0476" fill="#dadbd8"/><path d="m100.43 355.21h1.1868v2.5025h-1.1868z" fill="#fafaf9"/><path d="m104.67 354.23c0-0.0263-1.5694-0.0477-3.5049-0.0477-1.9366 0-3.5056 0.0213-3.5056 0.0477 0 0.0265 1.569 0.048 3.5056 0.048 1.9355 0 3.5049-0.0215 3.5049-0.048" fill="#dadbd8"/><path d="m101.62 350.17h-1.1868v2.5026h1.1868v-2.5026" fill="#fafaf9"/><path d="m104.67 349.19c0-0.0265-1.5694-0.0478-3.5049-0.0478-1.9366 0-3.5056 0.0213-3.5056 0.0478 0 0.0263 1.569 0.0479 3.5056 0.0479 1.9355 0 3.5049-0.0215 3.5049-0.0479" fill="#dadbd8"/><path d="m101.62 345.13h-1.1868v2.5026h1.1868v-2.5026" fill="#fafaf9"/><g fill="#f3f2f1"><path d="m29.436 358.02h1.357v3.2979h-1.357z"/><path d="m30.793 345.11h-1.3573v3.2974h1.3573v-3.2974"/><path d="m34.288 356.72c0-0.0284-1.7948-0.0514-4.0086-0.0514-2.2142 0-4.0088 0.023-4.0088 0.0514s1.7946 0.0514 4.0088 0.0514c2.2138 0 4.0086-0.023 4.0086-0.0514"/><path d="m29.436 351.51h1.357v3.2974h-1.357z"/><path d="m34.288 350.22c0-0.0282-1.7948-0.0514-4.0086-0.0514-2.2142 0-4.0088 0.0232-4.0088 0.0514 0 0.0286 1.7946 0.0516 4.0088 0.0516 2.2138 0 4.0086-0.023 4.0086-0.0516"/></g><g fill="#dadbd8"><path d="m35.791 358.02h1.3571v3.2979h-1.3571z"/><path d="m38.736 358.02h1.3573v3.2979h-1.3573z"/><path d="m35.791 351.76h1.3571v3.2974h-1.3571z"/><path d="m37.148 345.5h-1.3573v3.2974h1.3573v-3.2974"/><path d="m40.093 345.5h-1.3573v3.2974h1.3573v-3.2974"/><path d="m42.501 363.98h-17.365v0.71813h17.365v-0.71813"/></g><path d="m41.471 363.92c0-0.0284-3.3739-0.0514-7.535-0.0514-4.1626 0-7.5356 0.023-7.5356 0.0514s3.3731 0.0514 7.5356 0.0514c4.1611 0 7.535-0.023 7.535-0.0514" fill="#e7e8e5"/><path d="m13.387 373.8h-2.0462v7.5639h2.0462v-7.5639" fill="#dadbd8"/><path d="m8.8828 366.16h-2.058v4.3393h2.058v-4.3393" fill="#fff"/><path d="m21.144 366.16h-2.0579v4.3393h2.0579v-4.3393" fill="#f3f2f1"/><path d="m26.443 364.46c0-0.0459-2.7215-0.083-6.0775-0.083-3.3574 0-6.0781 0.0371-6.0781 0.083 0 0.0457 2.7208 0.083 6.0781 0.083 3.356 0 6.0775-0.0373 6.0775-0.083" fill="#e7e8e5"/><path d="m19.086 357.55h2.0579v4.3393h-2.0579z" fill="#f3f2f1"/><path d="m26.443 355.85c0-0.0455-2.7213-0.0828-6.0775-0.0828-3.3574 0-6.0781 0.0373-6.0781 0.0828 0 0.0457 2.7208 0.083 6.0781 0.083 3.3562 0 6.0775-0.0373 6.0775-0.083" fill="#e7e8e5"/><path d="m21.144 348.67h-2.0579v4.3389h2.0579v-4.3389" fill="#f3f2f1"/><path d="m8.8828 357.42h-2.058v4.3393h2.058v-4.3393" fill="#fff"/><path d="m8.8828 348.67h-2.058v4.3391h2.058v-4.3391" fill="#fff"/><path d="m14.182 346.97c0-0.0459-2.7214-0.083-6.0776-0.083-3.3574 0-6.0781 0.037-6.0781 0.083 0 0.0458 2.7208 0.0826 6.0781 0.0826 3.3562 0 6.0776-0.0369 6.0776-0.0826" fill="#dadbd8"/><path d="m141.68 394.88c0.17569 1.2768-1.6261 2.3271-2.9802 2.4363-0.64566 0.052-1.3164-0.0468-1.9279 0.16642-1.3252 0.46197-1.8548 2.1742-3.1481 2.7196-0.9665 0.40783-2.0798 0.0447-3.017-0.427-0.93701-0.47167-1.8635-1.0653-2.9104-1.1323-0.91088-0.0584-1.8999 0.27933-2.6968-0.16558-0.59363-0.33157-0.90499-1.0158-1.4523-1.4194-0.5355-0.39498-1.2338-0.47861-1.8982-0.51463-0.66442-0.0362-1.3522-0.043-1.957-0.31999-0.60501-0.27702-1.1055-0.91657-0.97998-1.57l22.968 0.22667" fill="#f3f2f1"/><path d="m135.9 358.58v-1.9328h-0.94248v1.9328h0.94248" fill="#f3f2f1"/><path d="m134.57 350.01h-1.7046v1.2063h1.7046v-1.2063" fill="#fff"/><path d="m135.74 350.01h-0.85232v1.2063h0.85232v-1.2063" fill="#fff"/><path d="m145.24 404.74c0.0969 0.70507-0.89824 1.2852-1.6463 1.3457-0.35643 0.0286-0.72698-0.0259-1.0649 0.0918-0.73204 0.2551-1.0244 1.201-1.7386 1.5022-0.53402 0.22519-1.1489 0.0246-1.6665-0.23594-0.51758-0.26058-1.0293-0.58837-1.6077-0.62544-0.50306-0.0322-1.0495 0.15441-1.4898-0.0914-0.32778-0.18306-0.49968-0.56098-0.80197-0.78407-0.29555-0.21803-0.68148-0.26416-1.0486-0.28417-0.36676-0.02-0.74679-0.0238-1.0809-0.17674s-0.61048-0.50621-0.54118-0.86707l12.686 0.12513" fill="#e7e8e5"/><path d="m147 335.36c0-0.0301-32.167-0.0548-71.838-0.0548-39.685 0-71.845 0.0247-71.845 0.0548 0 0.0303 32.16 0.055 71.845 0.055 39.671 0 71.838-0.0247 71.838-0.055" fill="#17282f"/><path d="m60.792 344.18c0.44996-0.0881 0.83547-0.40115 1.0798-0.78914 0.24415-0.38782 0.35896-0.84518 0.40636-1.3011 0.09164-0.88244-0.20644-1.8588-0.58184-2.6625-0.86391 0.47339-1.2732 1.5402-1.447 2.0944-0.27449 0.87611-0.23846 2.6261 0.54265 2.6583" fill="#f03d5f"/><path d="m62.851 338.19c-0.22288 0.4609-0.13777 1.0389 0.16242 1.454 0.3004 0.41472 0.79123 0.67031 1.2983 0.74166 0.23446 0.0331 0.49842 0.0206 0.67221-0.14024 0.16242-0.15024 0.20307-0.40115 0.14493-0.61476-0.05793-0.21354-0.1997-0.39498-0.3577-0.55003-0.54139-0.53205-1.163-0.94795-1.9201-0.89059" fill="#f03d5f"/><path d="m62.502 335.35c-0.0046 0-0.0084 0.0648-0.01285 0.18243-0.0046 0.12928-0.01053 0.29632-0.01748 0.4971-0.0078 0.41712-0.03076 1.012 0.15757 1.6358 0.18454 0.62118 0.52348 1.1236 0.83989 1.4055 0.15652 0.14302 0.29977 0.23929 0.40341 0.29575 0.05056 0.0305 0.09374 0.0474 0.12155 0.0611 0.02823 0.0129 0.04361 0.0185 0.04466 0.0164 8e-3 -0.0129-0.23804-0.11546-0.53823-0.40659-0.30272-0.28481-0.62818-0.78-0.80977-1.3908-0.18475-0.6109-0.17-1.199-0.17358-1.6166 0-0.20983 2.11e-4 -0.38025-0.0032-0.49759-0.0029-0.11776-0.0076-0.1826-0.01201-0.1826" fill="#17282f"/><path d="m60.882 342.85c0.0023 4e-4 0.01116-0.0255 0.02591-0.0754 0.01601-0.0565 0.03666-0.12912 0.06193-0.21881 0.05266-0.1905 0.12534-0.46707 0.21234-0.80962 0.17379-0.68464 0.40088-1.6343 0.62818-2.688 0.22667-1.0545 0.41057-2.0135 0.53381-2.7093 0.06172-0.34783 0.10933-0.62967 0.13967-0.82494 0.0139-0.0922 0.02486-0.16705 0.0337-0.22498 7e-3 -0.0516 0.0095-0.0788 0.0074-0.0792-0.0021-4.1e-4 -0.0091 0.0262-0.02022 0.0769-0.0118 0.0574-0.02675 0.13141-0.0455 0.22284-0.03918 0.20185-0.09332 0.48031-0.15968 0.8209-0.13461 0.69353-0.32547 1.6503-0.55213 2.704-0.22688 1.0533-0.4468 2.0038-0.60943 2.691-0.07984 0.33788-0.14493 0.61403-0.19233 0.81415-0.02064 0.0909-0.03729 0.16459-0.05035 0.22185-0.01074 0.0509-0.01517 0.0779-0.01327 0.0786" fill="#17282f"/><path d="m61.712 337.39c-0.39393 1.0053-1.3027 1.7927-2.3541 2.039-0.26754 0.0627-0.60058 0.0691-0.76005-0.15486-0.15968-0.22441-0.04382-0.53842 0.10891-0.76742 0.63513-0.95388 1.8875-1.4504 3.0036-1.1913" fill="#f03d5f"/><path d="m59.655 338.64c0.0011 4e-3 0.06088-8e-3 0.16853-0.0333 0.05414-0.0122 0.12007-0.028 0.19423-0.0543 0.07415-0.0263 0.16157-0.0489 0.25174-0.0902 0.09143-0.0385 0.19275-0.0783 0.29513-0.1348 0.10554-0.0503 0.21171-0.11609 0.32315-0.18563 0.21908-0.14466 0.44723-0.32505 0.65662-0.54533 0.20729-0.2221 0.37455-0.46007 0.50474-0.68826 0.06172-0.11603 0.12071-0.22621 0.16305-0.33532 0.04908-0.10624 0.08152-0.21025 0.11249-0.30447 0.03455-0.0933 0.04951-0.18243 0.06952-0.25847 0.02043-0.0758 0.03012-0.14326 0.0375-0.19798 0.0158-0.10977 0.02233-0.17025 0.01791-0.17083-0.01432-3e-3 -0.04213 0.24184-0.1681 0.61296-0.03328 0.0923-0.06762 0.19387-0.11818 0.29748-0.04361 0.10656-0.10364 0.21403-0.16558 0.32734-0.13103 0.22267-0.29661 0.45522-0.5001 0.67352-0.2056 0.21635-0.42869 0.3945-0.6423 0.5399-0.10891 0.0699-0.21234 0.1361-0.31556 0.18786-0.09964 0.0575-0.19865 0.0992-0.28776 0.14013-0.36044 0.15479-0.60058 0.20621-0.597 0.21972" fill="#17282f"/><path d="m17.384 353.82h93.547v9.3481h-93.547z" fill="#f03d5f"/><path d="m110.93 353.82h-93.547v9.3481h27.494v-6.5546h66.054v-2.7935" fill="#9c2438"/><path d="m90.665 343.98h-27.614v8.6584h27.614v-8.6584" fill="#33535f"/><path d="m43.755 356.55v-11.446h9.4278l3.7794 5.4782h68.845v5.9681h-82.053" fill="#17282f"/><path d="m43.166 392.79c-0.02128 0.38319-0.34464 0.67832-0.72803 0.66273-3.7255-0.15294-21.418-0.96439-25.056-2.7133-2.7838-1.3385-5.8347-6.3406-7.9859-9.7086-1.5419-2.4137-4.9484-7.7741-5.6373-10.514-0.5835-2.3208-0.93479-7.1371-0.89464-9.5297l0.97299-12.65h16.034l1.6056 4.1782c1.0474 2.7254 3.6657 4.5243 6.5858 4.5243h15.932v20.995l-0.82831 14.756" fill="#f03d5f"/><path d="m15.482 389.34c-2.2068-2.1062-4.4168-5.6962-6.0856-8.3088-1.4276-2.2349-4.4532-6.9951-5.4409-9.863-0.018517-0.0535-0.033579-0.10407-0.050516-0.15589 0.48837 0.13524 1.2397 0.41099 1.4706 0.87318 0.35129 0.70254 0.80273 3.1049 6.3754 12.179 1.698 2.7649 3.3505 4.3832 3.7311 5.2755" fill="#33535f"/><path d="m34.93 390.28c-4.0992-0.23404-12.987-0.83336-15.826-1.807-3.6996-1.2686-7.8512-11.057-8.0475-11.487l-2.7992-7.16c-0.067389-0.20265 0.083441-0.41162 0.29682-0.41162h7.2316c0.27352 0 0.54474 0.0489 0.80098 0.1443l19.023 7.0874c0.86033 0.32041 1.431 1.1422 1.431 2.0602v9.5794c0 1.1481-0.96418 2.0598-2.1104 1.9943" fill="#17282f"/><path d="m9.0631 370.12s2.6829 6.0141 3.5826 7.9797c1.3618 2.9749 4.5402 9.0682 6.6865 9.712 1.9737 0.59194 7.6495 1.3134 15.638 1.7702 0.02549 1e-3 0.05098 2e-3 0.07605 2e-3 0.71244 0 1.292-0.58099 1.292-1.2951v-9.7968c0-0.49146-0.30967-0.93701-0.77038-1.1089l-14.053-1.7346c-1.1398-0.14072-2.1601-0.77543-2.79-1.7356l-2.4355-3.7124c-0.14344-0.0533-0.29353-0.0805-0.44674-0.0805h-6.7793" fill="#33535f"/><path d="m21.005 375.53-4.7846-5.3202 2.6441 17.667 0.66117 0.22793-1.3008-13.087c-0.02854-0.28797 0.25848-0.50326 0.52673-0.39519l2.2535 0.9073" fill="#17282f"/><path d="m2.5505 359.76c-0.017021 0.23025 0.060733 0.41668 0.17758 0.42742l2.5625 0.23699c0.21451 0.0198 0.40674-0.37707 0.43216-0.85148l0.11555-1.9658c0.018496-0.31557-0.076363-0.58205-0.2175-0.60628l-2.6122-0.45038c-0.11774-0.0204-0.23014 0.15378-0.24752 0.38592l-0.21049 2.8237" fill="#e7e8e5"/><path d="m21.005 343.18h-18.457v7.4003h18.457v-7.4003" fill="#17282f"/><path d="m22.848 345.69c-0.08047-5.5763 4.3749-10.162 9.951-10.242 5.5765-0.0805 10.162 4.3749 10.243 9.9512 0.08047 5.5762-4.3749 10.162-9.9513 10.242-5.5763 0.0805-10.162-4.3749-10.242-9.9513" fill="#17282f"/><path d="m25.856 345.65c-0.05646-3.9151 3.0714-7.1346 6.9863-7.1908 3.9151-0.0566 7.1346 3.0714 7.191 6.9865 0.05646 3.9149-3.0714 7.1343-6.9865 7.1908-3.9149 0.0565-7.1343-3.0716-7.1908-6.9864" fill="#fafaf9"/><path d="m33.047 352.63c-3.9149 0.0565-7.1343-3.0716-7.1908-6.9864l14.177-0.20434c0.05646 3.9149-3.0714 7.1343-6.9865 7.1908" fill="#dadbd8"/><g fill="#17282f"><path d="m28.626 345.61c-0.03434-2.3847 1.8711-4.3459 4.2557-4.3803 2.3849-0.0345 4.3461 1.8709 4.3804 4.2558 0.03455 2.3848-1.8711 4.3461-4.2557 4.3804-2.3849 0.0343-4.3461-1.8711-4.3804-4.2559"/><path d="m13.357 373.82h-0.82304c-0.9287 0-1.6816 0.7529-1.6816 1.6815v6.6827c0 0.92879 0.75285 1.6815 1.6816 1.6815h0.82304c0.92871 0 1.6816-0.75268 1.6816-1.6815v-6.6827c0-0.92857-0.75285-1.6815-1.6816-1.6815"/><path d="m9.1201 367.61h-0.21066v10.622c0 1.0537 0.85727 1.9109 1.9109 1.9109h0.50482v-0.21066h-0.50482c-0.93751 0-1.7002-0.76279-1.7002-1.7002v-10.622"/><path d="m10.556 367.6-0.58557 9.9329c-0.020476 0.3478 0.099747 0.67874 0.33863 0.93195 0.2388 0.25342 0.5621 0.39288 0.91027 0.39288v-0.21066c-0.28951 0-0.55841-0.11586-0.75698-0.32652-0.19865-0.21066-0.29863-0.48599-0.28167-0.77522l0.58556-9.9329-0.21026-0.0124"/><path d="m11.219 365.28h-2.8404v3.2886h2.8404v-3.2886"/><path d="m10.17 374.6h-1.1552v0.21065h1.1552v-0.21065"/><path d="m19.805 389.99s0.08451 0.0129 0.25083 0.0331c0.1681 0.02 0.41538 0.0495 0.74002 0.0878 0.65338 0.0756 1.6167 0.18665 2.8634 0.33074 2.4978 0.28417 6.1297 0.69769 10.674 1.2149 0.56941 0.0611 1.1487 0.13756 1.7493 0.19064 0.30293 0.0322 0.61091-7e-3 0.91573-0.0607 0.30124-0.0746 0.60122-0.17547 0.87802-0.33262 0.5534-0.3082 1.0333-0.78681 1.3286-1.3804 0.14809-0.29514 0.25974-0.61555 0.30609-0.95028 0.03581-0.16579 0.03139-0.33663 0.04424-0.50663 2.1e-4 -0.16811 2.1e-4 -0.33748 4.21e-4 -0.50727 0.0017-2.7192 0.0036-5.6402 0.0055-8.7345 0.0021-6.1891 0.0044-13.072 0.0072-20.426v-0.0533h-0.05351c-2.3699-2.2e-4 -4.8032-6.4e-4 -7.2852-1e-3 -1.241 0-2.4942 0-3.7577-2.1e-4 -0.63239-3e-3 -1.2663 0.0145-1.89-0.0891-0.62902-0.0748-1.2357-0.27912-1.8266-0.51084-1.834-0.78597-3.2947-2.3248-3.9958-4.1384-0.07923-0.22935-0.18093-0.45161-0.23082-0.68942-0.05513-0.23552-0.13577-0.4656-0.16111-0.70661l-0.05504-0.35747-0.02659-0.17838-0.0091-0.18056-0.01843-0.36001-0.0093-0.17946-0.0011-0.0225c0.04797 0.0471-0.06518-0.0714-0.05604-0.0586h-0.1529c-0.96566 2.6e-4 -1.924 2.6e-4 -2.8747 4.3e-4 -3.8021 8.2e-4 -7.4785 2e-3 -10.987 3e-3h-0.051481v0.0516c0.00124 3.175 0.0023 6.2353 0.00345 9.1598 7.373e-4 1.4622 0.00147 2.8906 0.00206 4.2825 4.002e-4 0.69581 8.215e-4 1.3826 0.00122 2.0596 0.00158 0.33916-0.00278 0.67432 0.00371 1.0097 0.00765 0.33536 0.031683 0.66778 0.071265 0.99599 0.16202 1.3126 0.58984 2.5479 1.1925 3.6286 0.58064 1.09 1.1415 2.1434 1.6816 3.1576 1.0805 2.0278 2.0775 3.8991 2.9814 5.5953 0.90427 1.6956 1.7152 3.2161 2.423 4.5433 0.17708 0.33178 0.34758 0.65135 0.51158 0.9587 0.08435 0.15252 0.15717 0.30609 0.2463 0.44912 0.0882 0.14325 0.18407 0.27681 0.28365 0.40299 0.40116 0.50242 0.84699 0.8894 1.2773 1.1864 0.86972 0.5909 1.6593 0.82705 2.1848 0.9507 0.53117 0.11797 0.81449 0.1323 0.81449 0.1323s-0.06969-0.012-0.20653-0.0314c-0.13676-0.0209-0.34002-0.0563-0.60391-0.11797-0.52294-0.1285-1.3078-0.36949-2.1695-0.96144-0.42627-0.29766-0.86783-0.68464-1.2638-1.1845-0.09817-0.12534-0.19262-0.25806-0.27912-0.39983-0.08721-0.14093-0.16046-0.2966-0.24398-0.44912-0.16292-0.30777-0.33244-0.62797-0.50838-0.96018-0.70404-1.3292-1.5108-2.8519-2.4103-4.5498-0.90033-1.6979-1.8935-3.5706-2.9699-5.6006-0.53848-1.0147-1.0976-2.0689-1.6764-3.1596-0.59808-1.0767-1.019-2.2989-1.1784-3.6012-0.038761-0.32525-0.062228-0.65472-0.06937-0.98693-0.00602-0.332-0.00141-0.66968-0.00249-1.008 2.528e-4 -0.67705 6.741e-4 -1.3638 0.00107-2.0596 7.373e-4 -1.3918 0.00147-2.8203 0.00223-4.2825 0.00105-2.9246 0.00221-5.9848 0.00337-9.1598l-0.051443 0.0514c3.5083 8.2e-4 7.1847 2e-3 10.987 2e-3 0.95068 1.7e-4 1.909 1.7e-4 2.8747 4e-4h0.1529c0.01456 0.011-0.10196-0.10006-0.05266-0.0501l0.0011 0.0229 0.0093 0.1822 0.01852 0.36528 0.0093 0.18283 0.02692 0.18137 0.0557 0.3628c0.02593 0.24432 0.10731 0.47794 0.16334 0.71706 0.05085 0.24143 0.15372 0.46684 0.23412 0.69978 0.71129 1.8405 2.1931 3.4013 4.0542 4.1993 0.59953 0.23552 1.2155 0.44238 1.854 0.51864 0.63408 0.10491 1.2772 0.0874 1.906 0.0902 1.2635-2.1e-4 2.5167-2.1e-4 3.7577-4.2e-4 2.482-4.2e-4 4.9153-6.3e-4 7.2852-1e-3l-0.05351-0.0535c0.0025 7.3534 0.0048 14.237 7e-3 20.426 0.0021 3.0944 4e-3 6.0153 0.0055 8.7345-8.43e-4 0.34064 0.01327 0.67748-0.04213 1.0013-0.04445 0.32673-0.15315 0.63914-0.29703 0.92731-0.28713 0.57973-0.755 1.0478-1.2949 1.3499-0.27006 0.15399-0.56309 0.25279-0.85696 0.32652-0.29787 0.0525-0.5989 0.0921-0.89508 0.0609-0.59469-0.0514-1.1786-0.12724-1.7466-0.18707-4.5464-0.50389-8.1796-0.90646-10.678-1.1833-1.2477-0.13608-2.2115-0.24141-2.8655-0.31283-0.32511-0.0343-0.57272-0.0607-0.74101-0.0784-0.16671-0.0171-0.25197-0.0236-0.25197-0.0236"/><path d="m36.206 366.71c-2.1e-4 6e-3 0.05772 5e-3 0.1641 0.0242 0.10554 0.0181 0.26269 0.0607 0.43332 0.17252 0.16832 0.1106 0.3499 0.30019 0.44091 0.57384 0.0474 0.13671 0.06299 0.28775 0.05625 0.45396-0.0036 0.16158-0.04445 0.33179-0.12766 0.4902-0.16431 0.31473-0.52475 0.57868-0.94964 0.57847-0.43585-1e-3 -0.90077-3e-3 -1.3897-4e-3 -0.9804-1e-3 -2.0562-3e-3 -3.1858-4e-3 -0.27006 0-0.53318-0.10469-0.72593-0.2827-0.19423-0.17674-0.31746-0.42195-0.34485-0.67474-0.0257-0.2591 0.0084-0.51295 0.13187-0.72803 0.11881-0.21487 0.31262-0.37708 0.52749-0.4685 0.21719-0.0965 0.45123-0.0826 0.68569-0.0836 0.23172-8.5e-4 0.45713-2e-3 0.67495-3e-3 0.43459-2e-3 0.8401-4e-3 1.2115-7e-3 0.73246-7e-3 1.329-0.0128 1.7541-0.0168 0.19928-4e-3 0.35812-8e-3 0.47714-0.0101 0.10891-4e-3 0.16621-7e-3 0.16621-0.0109 0-4e-3 -0.0573-7e-3 -0.16621-0.0107-0.11902-3e-3 -0.27786-6e-3 -0.47714-0.0101-0.42511-4e-3 -1.0217-0.01-1.7541-0.0171-0.37139-2e-3 -0.77691-4e-3 -1.2115-7e-3 -0.21782-1e-3 -0.44322-2e-3 -0.67495-3e-3 -0.11734 1e-3 -0.23046-5e-3 -0.35622 3e-3 -0.12366 9e-3 -0.249 0.0348-0.36718 0.0838-0.2353 0.0984-0.44765 0.27491-0.57889 0.50958-0.13651 0.23173-0.17464 0.52012-0.14725 0.78976 0.02907 0.27765 0.1641 0.54792 0.37708 0.74215 0.2115 0.1957 0.50158 0.31156 0.79818 0.31135 1.1295-1e-3 2.2054-3e-3 3.1858-4e-3 0.48936-2e-3 0.95491-4e-3 1.3912-6e-3 0.45987-4e-3 0.84432-0.29324 1.0154-0.63198 0.08679-0.17084 0.12766-0.35306 0.12892-0.52453 0.0044-0.16706-0.01538-0.33347-0.06783-0.4744-0.10175-0.28713-0.29703-0.48051-0.47503-0.58964-0.18074-0.11059-0.34443-0.14703-0.45312-0.15883-0.10933-0.0122-0.16705-3e-3 -0.16705-3e-3"/></g><path d="m35.815 369.36c0-0.0297-0.80872-0.0537-1.8062-0.0537-0.99767 0-1.8064 0.024-1.8064 0.0537s0.80872 0.0537 1.8064 0.0537c0.99746 0 1.8062-0.024 1.8062-0.0537" fill="#fff"/><path d="m21.846 343.12-1.6808 0.1226c0.43992 6.0351 1.0846 9.6456 1.9707 11.038 1.703 2.675 3.3947 3.158 5.2711 3.4786 1.7445 0.29766 3.5047 0.22646 5.207 0.15778l0.41774-0.0166c3.5138-0.13714 10.874-0.0152 10.948-0.0141l0.02844-1.6849c-0.07436-1e-3 -7.4819-0.12384-11.042 0.0148l-0.42005 0.0168c-1.6153 0.0651-3.2854 0.13295-4.8552-0.1352-1.6756-0.28611-2.79-0.61198-4.1331-2.7224-0.40657-0.63846-1.1696-2.8202-1.7116-10.255" fill="#17282f"/><path d="m44.878 356.61h82.995v55.26h-82.995z" fill="#f03d5f"/><path d="m126.88 357.7c-2.1e-4 0.35517-0.0171 20.623-0.0434 52.918l0.0434-0.0436c-22.235-3e-3 -50.471-7e-3 -81.105-0.0114h-0.0063l0.05477 0.055c-0.0017-18.81-0.0029-36.714-0.0044-52.918l-0.05035 0.0501c47.721-0.0295 80.659-0.0499 81.111-0.0503-0.45165-2.1e-4 -33.39-0.0206-81.111-0.0503h-0.05056v0.0506c-0.0013 16.203-0.0029 34.107-0.0044 52.918v0.0548h0.06128c30.634-4e-3 58.87-8e-3 81.105-0.0112h0.0434v-0.0436c-0.0265-32.294-0.0432-52.563-0.0434-52.918" fill="#17282f"/><path d="m57.429 366.42-0.78554 15.806 12.272 2.6994v-1.8816l35.077 7.7158-2e-3 1.8814 13.9 3.0577 1.0883-16.476-61.551-12.803" fill="#7e1c2c"/><g fill="#fff"><path d="m61.314 371.29 0.415 1.475c0.78512-0.35222 1.7346-0.43712 2.6141-0.24816 0.94332 0.20244 1.4662 0.65852 1.3503 1.1989-0.2549 1.1873-3.7956-0.23826-4.3031 2.1251-0.32757 1.526 0.79629 2.798 2.8521 3.2393 0.9962 0.21382 1.9661 0.18917 2.7013-0.0851l-0.36444-1.4531c-0.64356 0.26101-1.4051 0.29703-2.1363 0.14009-0.9962-0.21361-1.4974-0.72045-1.3836-1.25 0.2511-1.221 3.8026 0.20623 4.2915-2.072 0.32989-1.5365-0.81503-2.8133-2.8816-3.257-1.2081-0.25932-2.4299-0.14472-3.1552 0.18706"/><path d="m75.312 381.32 0.10891-7.7364-1.7169-0.36844-0.04424 3.1498-3.3596-0.72109 0.04424-3.1498-1.7274-0.37076-0.1087 7.7364 1.7274 0.37075 0.04276-3.0392 3.3596 0.72108-0.04297 3.0392 1.7169 0.36844"/><path d="m77.071 381.7 1.7274 0.37097 0.1087-7.7364-1.7274-0.37097-0.1087 7.7364"/><path d="m85.239 380.88c-0.15462 0.72066-0.73604 0.95049-1.6052 0.76385l-1.3459-0.28882 0.03371-2.6867 1.4516 0.31156c1.134 0.24331 1.6773 0.91467 1.4658 1.9001zm1.7061 0.52117c0.40488-1.8862-0.73077-3.3606-2.9456-3.8361l-1.6532-0.35475 0.03623-2.1316-1.7272-0.37076-0.10891 7.7364 2.9991 0.64377c1.8546 0.39815 3.0878-0.23509 3.3996-1.6869"/><path d="m92.89 382.52c-0.15483 0.72066-0.73625 0.95049-1.6052 0.76384l-1.3459-0.28881 0.03349-2.6869 1.4519 0.31178c1.1338 0.24331 1.6773 0.91446 1.4658 1.9001zm1.7059 0.52117c0.40488-1.8862-0.73077-3.3606-2.9456-3.8361l-1.6532-0.35475 0.03623-2.1316-1.7272-0.37076-0.10891 7.7364 2.9993 0.64377c1.8544 0.39814 3.0878-0.23509 3.3994-1.6869"/><path d="m95.849 385.73 1.7272 0.37076 0.1087-7.7366-1.7274-0.37054-0.10849 7.7364"/><path d="m106.13 387.93 0.10848-7.7364-1.4093-0.3025-3.7623 4.0478 0.0636-4.8418-1.6956-0.36381-0.10849 7.7364 1.42 0.30482 3.7644-4.0585-0.0765 4.85 1.6956 0.36402"/><path d="m112.96 385.64 1.5683 0.33685 0.0407-3.1841c-0.62945-0.73393-1.5766-1.2804-2.6469-1.5102-2.2467-0.48241-3.9465 0.51632-4.3583 2.4346-0.5435 2.5327 0.8993 4.8487 3.7076 5.4516 1.4203 0.30482 2.5563 0.0723 3.372-0.6286l-1.0156-1.26c-0.62544 0.48641-1.2901 0.58774-2.1167 0.41037-1.7379-0.37308-2.5822-1.8624-2.2321-3.4946 0.2391-1.1127 1.1422-1.7057 2.5519-1.4032 0.43438 0.0933 0.81883 0.26438 1.1723 0.52897l-0.0432 2.3183"/></g><path d="m68.916 396.85v-13.805l35.077 7.7158-0.0129 13.644-35.065-7.5554" fill="#f03d5f"/><path d="m68.916 383.04v13.805l35.065 7.5554 0.0129-13.644-35.077-7.7158" fill="#ba2c42"/><g fill="#fff"><path d="m74.059 393.42 0.079-3.0387 3.8369 0.87149 0.01601-0.7076-3.8367-0.8717 0.08953-3.2808-0.77164-0.17527-0.20097 7.7347 5.0737 1.1527 0.01601-0.70781-4.3018-0.97703"/><path d="m84.977 394.33c-0.22098 0.9724-1.0255 1.3343-2.2515 1.0556l-1.9659-0.4466 0.08953-3.8696 1.9979 0.45355c1.6701 0.37939 2.4611 1.3482 2.13 2.807zm-0.8637-3.0973 1.9572-2.1563-0.84558-0.19233-1.8673 2.0548c-0.11376-0.0369-0.25132-0.068-0.37813-0.0969l-2.1034-0.47777 0.06804-2.4523-0.78217-0.17779-0.20097 7.7349 2.6636 0.60501c1.6806 0.38171 2.8175-0.17127 3.1179-1.4925 0.34569-1.522-0.2768-2.6968-1.6292-3.3488"/><path d="m88.39 396.67 0.06931-2.7518 3.8369 0.87149 0.02444-0.69475-3.8367-0.87149 0.07457-2.873 4.4499 1.0107 0.01622-0.7076-5.2214-1.1862-0.20118 7.7349 5.0735 1.1525 0.01643-0.70759-4.3021-0.97725"/><path d="m95.461 398.28 0.06952-2.7518 3.8367 0.8717 0.02423-0.69475-3.8367-0.8717 0.07499-2.8727 4.4497 1.0107 0.016-0.70781-5.2211-1.186-0.20118 7.7349 5.0735 1.1525 0.01643-0.70781-4.3021-0.97724"/></g><g fill="#fafaf9"><path d="m108.01 396.85 12.423 2.9102-0.48999 1.3215z"/><path d="m52.392 387.55 8.6359 2.0232-0.34042 0.91847z"/><path d="m81.962 366.74 12.423 2.9102-0.48999 1.3214z"/><path d="m98.429 403.47c0.0067-0.0295-6.6311-1.6153-14.824-3.5416-8.1965-1.9269-14.844-3.4645-14.851-3.435-7e-3 0.0295 6.6294 1.6149 14.825 3.5418 8.1935 1.9263 14.843 3.4643 14.85 3.4348"/><path d="m68.823 384.43c0.0059-0.0297-2.8445-0.63008-6.3661-1.3406-3.5226-0.71097-6.3823-1.2629-6.3882-1.2332-0.0061 0.0297 2.8439 0.62987 6.3665 1.3406 3.5216 0.71076 6.3817 1.2629 6.3878 1.2332"/><path d="m68.934 385.68c-0.0038 0-0.0076 0.0383-0.01116 0.11123-0.0027 0.0853-0.0063 0.19043-0.01053 0.31851-0.0044 0.29303-0.01074 0.68927-0.01812 1.1717-0.0067 1.0042-0.01559 2.3634-0.0257 3.8654-0.01538 1.5022-0.02949 2.8614-0.03981 3.8651-7e-3 0.48241-0.01243 0.87866-0.01664 1.1715-2.11e-4 0.12808-2.11e-4 0.2332-4.21e-4 0.31852 0.0011 0.0731 0.0036 0.11143 0.0074 0.11143 0.0036 2.1e-4 0.0086-0.0379 0.01475-0.11059 0.0057-0.0851 0.01264-0.19023 0.02107-0.31788 0.0158-0.27639 0.03391-0.67643 0.05119-1.171 0.03518-0.98904 0.0632-2.3562 0.07226-3.8664 0.0093-1.5098 0.0025-2.8765-0.0065-3.866-0.0067-0.48241-0.01243-0.87865-0.01664-1.1717-4e-3 -0.12808-0.0074-0.2332-0.01011-0.31851-0.0036-0.0729-0.0072-0.11102-0.01095-0.11123"/><path d="m33.072 385.7c0.0019-3e-3 -0.02444-0.0253-0.07689-0.0645-0.06341-0.0457-0.14009-0.10112-0.23214-0.16726-0.20286-0.14367-0.49905-0.34738-0.86686-0.59659-0.73562-0.4982-1.7592-1.1753-2.9003-1.9069-1.1418-0.73161-2.1847-1.379-2.9446-1.839-0.38003-0.23025-0.68864-0.41415-0.90393-0.53844-0.0988-0.056-0.18074-0.10259-0.249-0.14114-0.05751-0.0312-0.08869-0.0461-0.09058-0.0428-0.0021 3e-3 0.02528 0.0242 0.079 0.0615 0.0653 0.0434 0.14367 0.0956 0.23825 0.15862 0.22393 0.14367 0.52264 0.33537 0.8854 0.56793 0.76258 0.4862 1.7902 1.1416 2.9262 1.8658 1.1321 0.7293 2.1565 1.3893 2.9168 1.8793 0.36275 0.23214 0.66189 0.42363 0.88582 0.56709 0.09669 0.0596 0.17695 0.10912 0.24373 0.1502 0.05625 0.0333 0.08679 0.0493 0.08911 0.0461"/><path d="m29.479 384.75c0.0021-3e-3 -0.02423-0.0253-0.07668-0.0647-0.06362-0.0457-0.14009-0.10091-0.23214-0.16726-0.20307-0.14346-0.49905-0.34717-0.86707-0.59638-0.73541-0.4982-1.759-1.1755-2.9003-1.9069-1.1416-0.73161-2.1845-1.379-2.9444-1.8392-0.38003-0.23004-0.68885-0.41394-0.90393-0.53844-0.0988-0.056-0.18096-0.10238-0.249-0.14114-0.05751-0.031-0.08869-0.0461-0.09058-0.0428-0.0021 3e-3 0.02528 0.0244 0.079 0.0617 0.0653 0.0434 0.14367 0.0956 0.23825 0.15862 0.22372 0.14367 0.52264 0.33537 0.8854 0.56793 0.76258 0.4862 1.7902 1.1414 2.9262 1.8656 1.1321 0.72951 2.1563 1.3895 2.9168 1.8795 0.36275 0.23214 0.66189 0.42363 0.88582 0.56709 0.09669 0.0596 0.17695 0.10912 0.24373 0.1502 0.05625 0.0333 0.08679 0.0493 0.0889 0.0461"/><path d="m11.744 378.62c-0.0074-2e-3 -0.03012 0.0645-0.06459 0.18538-0.0344 0.12092-0.08081 0.29703-0.13208 0.51632-0.09998 0.43733-0.22778 1.0537-0.22266 1.748 0.0052 0.69496 0.18334 1.316 0.40139 1.7152 0.10722 0.20075 0.21502 0.35095 0.29831 0.44659 0.08277 0.0961 0.13552 0.1424 0.14038 0.13798 0.01645-0.0131-0.17784-0.21761-0.36941-0.61933-0.19477-0.39793-0.35563-1.0025-0.3609-1.6817-0.0053-0.67937 0.10853-1.2909 0.18892-1.731 0.08353-0.44048 0.13644-0.71392 0.12064-0.7175"/><path d="m3.1722 363.68c-0.0075 2.1e-4 -0.011186 0.084-0.01127 0.23551-4.214e-4 0.15146 0.00386 0.37034 0.012745 0.64082 0.017443 0.54076 0.056119 1.2875 0.12096 2.1108 0.065009 0.82346 0.14369 1.5673 0.21116 2.1043 0.033663 0.26838 0.063682 0.48515 0.087718 0.63471 0.023868 0.14957 0.040657 0.23194 0.048135 0.23088 0.0075-8.4e-4 0.00518-0.0847-0.00575-0.23572-0.014493-0.17422-0.032188-0.3874-0.053086-0.63808-0.047883-0.56457-0.11003-1.2958-0.17889-2.1047-0.058668-0.80935-0.11192-1.5412-0.15281-2.1062-0.01877-0.25089-0.034569-0.46429-0.047651-0.63871-0.012913-0.15084-0.023615-0.23404-0.031262-0.23362"/><path d="m26.253 359.59c4e-3 -0.0221-0.40552-0.0805-1.036-0.28334-0.31578-0.0994-0.6819-0.24689-1.0754-0.4369-0.39014-0.19697-0.80556-0.44028-1.2138-0.73667-0.4051-0.30103-0.76174-0.6246-1.0663-0.93806-0.29913-0.31831-0.54961-0.62355-0.73878-0.8953-0.38232-0.54094-0.56048-0.91404-0.58038-0.90374-0.0068 3e-3 0.03514 0.0974 0.11725 0.2652 0.03984 0.0848 0.09159 0.18647 0.16113 0.29962 0.0683 0.11373 0.1403 0.24727 0.23813 0.38274 0.1831 0.28039 0.42999 0.59448 0.72913 0.921 0.30461 0.32125 0.6642 0.65177 1.075 0.95701 0.41394 0.3004 0.83694 0.54455 1.2345 0.73899 0.40109 0.1877 0.77459 0.32947 1.0967 0.42005 0.15884 0.0527 0.30777 0.0815 0.4369 0.1127 0.1285 0.0324 0.24141 0.0516 0.33389 0.064 0.18475 0.0282 0.28692 0.0402 0.28818 0.0327"/><path d="m46.998 372.31c-0.0021 0-4e-3 0.0308-0.0061 0.0906-0.0015 0.0649-0.0036 0.15293-0.0061 0.26564-0.0034 0.2393-8e-3 0.58268-0.0139 1.0219-0.01243 0.89276-0.03055 2.1752-0.05267 3.7577-0.05688 3.1774-0.13524 7.558-0.22182 12.397-0.08869 4.8426-0.16136 9.2264-0.1898 12.4-0.01496 1.5867-0.01959 2.8708-0.01769 3.7583 0.0027 0.43922 0.0051 0.78238 0.0067 1.0217 0.0021 0.1127 0.0034 0.20076 0.0046 0.26564 0.0017 0.06 0.0034 0.0906 0.0053 0.0906s0.0038-0.0305 0.0059-0.0906c0.0015-0.0649 0.0038-0.15294 0.0063-0.26564 0.0032-0.23931 0.0078-0.58247 0.01369-1.0217 0.01264-0.89277 0.03055-2.175 0.05288-3.7573 0.05688-3.1776 0.13524-7.5586 0.22161-12.399 0.08869-4.8407 0.16136-9.2243 0.1898-12.398 0.01517-1.5867 0.01959-2.8706 0.01791-3.7581-0.0029-0.43943-0.0053-0.7826-7e-3 -1.0221-0.0019-0.11271-0.0034-0.20076-0.0044-0.26564-0.0017-0.0598-0.0036-0.0906-0.0053-0.0906"/></g><path d="m97.441 345.69c-0.08026-5.5763 4.3751-10.162 9.9513-10.242 5.5763-0.0805 10.162 4.3749 10.243 9.9512 0.08 5.5762-4.3752 10.162-9.9515 10.242-5.5761 0.0805-10.162-4.3749-10.243-9.9513" fill="#17282f"/><path d="m97.443 345.72-0.0019-0.0262c-0.08026-5.5763 4.3752-10.162 9.9513-10.242 5.5763-0.0805 10.162 4.3749 10.243 9.9512l-1e-3 0.0259-20.191 0.29138" fill="#17282f"/><path d="m100.45 345.65c-0.0565-3.9151 3.0714-7.1346 6.9865-7.1908 3.9149-0.0566 7.1343 3.0714 7.1908 6.9865 0.0565 3.9149-3.0714 7.1343-6.9865 7.1908-3.9151 0.0565-7.1344-3.0716-7.1908-6.9864" fill="#fafaf9"/><path d="m107.64 352.63c-3.9151 0.0565-7.1344-3.0716-7.1908-6.9864l14.177-0.20434c0.0565 3.9149-3.0714 7.1343-6.9865 7.1908" fill="#dadbd8"/><path d="m103.22 345.61c-0.0343-2.3847 1.8711-4.3459 4.2557-4.3803 2.3849-0.0345 4.3461 1.8709 4.3804 4.2558 0.0345 2.3848-1.8711 4.3461-4.2557 4.3804-2.3848 0.0343-4.3459-1.8711-4.3804-4.2559" fill="#17282f"/><path d="m94.264 342.78s-1.5384 14.321 13.304 14.321c13.695 0 13.39-12.32 13.261-14.225h-2.1479s1.0946 12.141-11.113 12.141c-12.207 0-11.144-12.388-11.144-12.388s-0.90162 0.048-2.1605 0.151" fill="#33535f"/><path d="m102.21 355.62c8.5e-4 -4e-3 -0.0392-0.0181-0.11628-0.0424-0.0767-0.0259-0.19212-0.0543-0.33726-0.10426-0.29218-0.0918-0.70992-0.2416-1.2062-0.47077-0.99051-0.45151-2.2922-1.2855-3.3672-2.5658-1.0756-1.2806-1.6718-2.7072-1.9452-3.7606-0.13988-0.52854-0.2155-0.96614-0.25532-1.2696-0.02402-0.15132-0.03202-0.27006-0.04445-0.34997-0.01053-0.0802-0.0177-0.12211-0.0217-0.12195-0.0036 2.6e-4 -0.0036 0.0428-4.21e-4 0.12368 0.0053 0.0806 0.0065 0.20055 0.02423 0.35327 0.02697 0.30651 0.091 0.74866 0.22246 1.2839 0.25616 1.0668 0.84769 2.5159 1.9366 3.8117 1.0878 1.296 2.4125 2.1293 3.4188 2.566 0.50474 0.22185 0.929 0.36149 1.2264 0.44114 0.14746 0.044 0.26522 0.0659 0.34379 0.0849 0.079 0.0173 0.12113 0.0247 0.12176 0.0209" fill="#fafaf9"/><path d="m138.67 341.04 1.7967-2.6997 0.80513-2.5454c0.0584-0.1835 0.25953-0.27953 0.43859-0.20918 0.10028 0.0394 0.17506 0.12385 0.20076 0.2286 0.16431 0.66588 0.75668 3.1179 0.61428 3.3081-0.16537 0.22012-1.7063 2.9741-1.7063 2.9741l-2.1491-1.0565" fill="#33535f"/><path d="m141.71 335.59c0.10028 0.0394 0.17506 0.12385 0.20076 0.2286 0.15167 0.61486 0.66884 2.7539 0.6345 3.2268 0.0148-0.0609 0.0183-0.12433 9e-3 -0.1873-0.0447-0.31474-0.18664-1.1808-0.63534-3.0343-0.0263-0.10813-0.10512-0.19618-0.20919-0.23387m0.79187 3.5702c-0.0225 0.0342-0.0546 0.0857-0.094 0.15125l0.0735-0.11586c7e-3 -0.0116 0.0141-0.0234 0.0204-0.0354" fill="#f0f0ee"/><path d="m141.71 335.59 0.69791 3.7215c0.0394-0.0655 0.0714-0.1171 0.094-0.15125 0.0192-0.0367 0.0337-0.0752 0.0434-0.11479 0.0343-0.47299-0.48283-2.612-0.6345-3.2268-0.0257-0.10475-0.10048-0.18918-0.20076-0.2286" fill="#a6b7b9"/><path d="m141.46 339.57c-0.0257 0-0.0514 5e-3 -0.075 0.0164-0.0838 0.0397-0.12702 0.14599-0.10027 0.23404 0.0147 0.0786 0.10849 0.13124 0.19317 0.13124 0.0196 0 0.0385-3e-3 0.056-9e-3 0.0933-0.032 0.14114-0.17552 0.10111-0.26545-0.0297-0.0666-0.1028-0.1074-0.17505-0.1074" fill="#a6b7b9"/><g fill="#17282f"><path d="m141.58 337.18c-0.0105-0.0173-0.16326 0.087-0.37518 0.0611-0.21255-0.0198-0.33937-0.15396-0.35369-0.1394-7e-3 5e-3 0.0147 0.0484 0.0731 0.0983 0.0577 0.0495 0.15589 0.099 0.27302 0.11191 0.11733 0.0122 0.22393-0.0152 0.2907-0.0514 0.0676-0.0362 0.0975-0.074 0.0921-0.0805"/><path d="m141.62 336.69c-5e-3 -0.0202-0.14978 0.0131-0.31725-0.0358-0.16832-0.0455-0.27407-0.14911-0.28945-0.13503-0.0168 9e-3 0.0784 0.15058 0.27028 0.20349 0.19127 0.055 0.34611-0.0164 0.33642-0.0327"/><path d="m141.65 337.88c-5e-3 -0.0208-0.22625 0.0316-0.49336-0.0219-0.26796-0.0497-0.45439-0.1807-0.46661-0.1626-0.0135 0.0118 0.16579 0.17866 0.45313 0.23254 0.28649 0.0565 0.51526-0.032 0.50684-0.048"/><path d="m141.17 338.75c3e-3 -0.0209-0.18833-0.0536-0.38972-0.17108-0.20328-0.11478-0.32778-0.26374-0.34443-0.25066-0.016 9e-3 0.0908 0.18854 0.30883 0.31237 0.21677 0.12599 0.42595 0.12763 0.42532 0.10937"/><path d="m140.66 339.55c2e-3 -0.0213-0.20834-0.0263-0.41036-0.16746-0.20539-0.13692-0.28649-0.33054-0.30566-0.3215-8e-3 3e-3 0 0.0564 0.04 0.13273 0.0396 0.0763 0.11586 0.17249 0.22541 0.24753 0.10975 0.0746 0.22708 0.11059 0.3124 0.1194 0.0859 9e-3 0.13861-2e-3 0.13819-0.0107"/><path d="m140.16 339.54c-3e-3 -2e-3 -0.0329 0.0306-0.0693 0.10105-0.036 0.0704-0.0786 0.18039-0.0893 0.32381-3e-3 0.0697-0.0133 0.15462 0.0404 0.23913 0.0263 0.0423 0.0876 0.0712 0.14304 0.0554 0.0546-0.0147 0.0933-0.0533 0.12176-0.0963 0.10723-0.17566 0.0642-0.43858-0.11544-0.58727-0.18285-0.14598-0.43185-0.1464-0.60459-0.0455-0.0417 0.0282-0.0838 0.0685-0.0918 0.12806-9e-3 0.0601 0.0354 0.1138 0.0788 0.13189 0.0891 0.0396 0.17021 0.025 0.23994 0.0204 0.14262-0.016 0.25153-0.0587 0.32189-0.0944 0.0706-0.0358 0.10406-0.0647 0.10216-0.0681-5e-3 -0.0133-0.15462 0.0906-0.42847 0.11249-0.067 2e-3 -0.14662 9e-3 -0.20876-0.0231-0.0301-0.0152-0.0476-0.0421-0.0432-0.0714 4e-3 -0.0289 0.031-0.0596 0.0651-0.0807 0.14346-0.0813 0.37097-0.0804 0.5237 0.0455 0.15294 0.12368 0.19001 0.35475 0.10512 0.49718-0.0211 0.0339-0.0514 0.0621-0.0822 0.0708-0.0301 8e-3 -0.0605-3e-3 -0.0794-0.0295-0.0396-0.0554-0.0388-0.13544-0.0377-0.20203 0.0116-0.27425 0.1224-0.42262 0.10828-0.4274"/></g><path d="m136.97 339.5-0.20539-2.7099s2.6903-0.92121 2.7013-1.4259l-5.2736 0.0119 0.14662 4.2357 2.6311-0.11183" fill="#33535f"/><path d="m135.18 336.68c-0.0923 0-0.18285 0.0712-0.20012 0.16301-0.0183 0.0976 0.0468 0.20202 0.14009 0.23427l-1e-3 -4.1e-4c0.0185 9e-3 0.0388 0.0131 0.0592 0.0131 0.0855 0 0.18011-0.0702 0.20497-0.1515 0.0312-0.10129-0.063-0.23279-0.16663-0.25468-0.0118-3e-3 -0.024-4e-3 -0.036-4e-3" fill="#a6b7b9"/><path d="m139.49 335.32-1.1468 0.0107c0.39393 6.6e-4 0.77564 1e-3 1.1451 2e-3 6.4e-4 -4e-3 1e-3 -8e-3 2e-3 -0.0124" fill="#fff"/><path d="m139.48 335.38h-0.0169c-0.0122 0.0695-0.0712 0.14598-0.16431 0.2267 9e-3 -4e-3 0.13692-0.0662 0.18116-0.2267" fill="#f0f0ee"/><path d="m138.34 335.33-4.1533 0.0396 5.2736-0.0119c-2.1e-4 8e-3 -1e-3 0.0153-2e-3 0.0231h0.0169c4e-3 -0.0154 8e-3 -0.0318 0.0103-0.049-0.36949-4.1e-4 -0.7512-1e-3 -1.1451-2e-3" fill="#9ba6a6"/><path d="m139.46 335.36-5.2736 0.0119 0.0147 0.42708 5.0918-0.18902s2.2e-4 -1.6e-4 4.3e-4 -1.6e-4c0.0931-0.0807 0.15209-0.15717 0.16431-0.2267 1e-3 -8e-3 2e-3 -0.0156 2e-3 -0.0231" fill="#a6b7b9"/><g fill="#17282f"><path d="m136.85 336.81c-2e-3 -0.0257-0.13082-0.0322-0.26079-0.10969-0.13187-0.0746-0.20181-0.18334-0.22498-0.17231-0.0234 6e-3 0.0211 0.1584 0.18011 0.24958 0.15799 0.0927 0.31219 0.0558 0.30566 0.0324"/><path d="m137.39 336.56c5e-3 -0.0251-0.10849-0.0645-0.19991-0.16984-0.095-0.10262-0.12176-0.21947-0.14746-0.21741-0.0242-3e-3 -0.0358 0.14829 0.0805 0.27706 0.11544 0.12977 0.26732 0.13479 0.2669 0.11019"/><path d="m137.68 335.89c-0.0234-4e-3 -0.0541 0.12557 0.0175 0.26382 0.0708 0.13898 0.19423 0.18975 0.20434 0.16762 0.0135-0.0215-0.0674-0.0941-0.12471-0.20852-0.0596-0.1129-0.0714-0.22119-0.0971-0.22292"/><path d="m136.82 337.43c-0.0116-0.023-0.12829 0.0173-0.27427 0.0133-0.14578-1e-3 -0.2608-0.0455-0.27322-0.023-0.0143 0.0192 0.0999 0.11018 0.27174 0.11249 0.17169 4e-3 0.28924-0.083 0.27575-0.10277"/></g><path d="m134.3 338.62 0.0133 0.41834h1e-3l-0.0143-0.41834" fill="#979999"/><path d="m136.89 338.48-2.5886 0.12656 6.3e-4 0.0175 0.0143 0.41834 2.6096-0.0794-0.036-0.48303" fill="#20353d"/><g fill="#17282f"><path d="m136.86 337.98c0-0.0108-0.10259-0.0228-0.26374 0.0115-0.0803 0.0175-0.17443 0.0476-0.2728 0.0961-0.0491 0.0242-0.099 0.0528-0.14831 0.0863-0.0238 0.0167-0.0518 0.0336-0.0773 0.0652-0.0274 0.028-0.0409 0.0968-6e-3 0.13749 0.0286 0.0392 0.0769 0.0548 0.11502 0.0541 0.039-1.7e-4 0.0701-9e-3 0.0986-0.0177 0.0579-0.0165 0.11228-0.0379 0.16157-0.0625 0.099-0.05 0.17843-0.11101 0.23699-0.16935 0.11797-0.11826 0.15589-0.216 0.14683-0.22062-0.012-8e-3 -0.0683 0.0748-0.18896 0.17323-0.0602 0.049-0.13756 0.10021-0.23004 0.14194-0.0463 0.0208-0.0967 0.039-0.14956 0.0528-0.0554 0.0168-0.1028 0.0192-0.11818-5e-3l5e-3 -0.0299c0.0116-0.0154 0.0337-0.031 0.0569-0.0476 0.0453-0.0323 0.0912-0.0605 0.13609-0.0853 0.0902-0.049 0.17674-0.0836 0.25131-0.10788 0.14936-0.048 0.24837-0.0592 0.24731-0.0728"/><path d="m136.82 337.95c-9e-3 -4e-3 -0.0567 0.0908-0.0596 0.25766-8.5e-4 0.0828 0.0116 0.1826 0.0476 0.2875 0.0183 0.0523 0.0426 0.10558 0.0737 0.15743 0.0329 0.0509 0.0733 0.11898 0.17358 0.12656 0.052-1.7e-4 0.0937-0.0426 0.10722-0.0779 0.016-0.0365 0.0183-0.067 0.0232-0.0979 7e-3 -0.062 4e-3 -0.1222-7e-3 -0.17767-0.0213-0.11156-0.0708-0.20282-0.12365-0.26808-0.10849-0.13257-0.21677-0.15907-0.21866-0.15026-8e-3 0.0135 0.0834 0.0597 0.16747 0.18753 0.0415 0.0632 0.0794 0.14706 0.0933 0.24474 7e-3 0.0487 8e-3 0.10029 1e-3 0.15273-6e-3 0.056-0.0253 0.10219-0.0465 0.0973-0.0261 1e-3 -0.0725-0.0389-0.0956-0.0828-0.0291-0.0462-0.0524-0.0935-0.071-0.14046-0.0369-0.0938-0.055-0.18458-0.0617-0.26126-0.0133-0.15437 0.0103-0.25197-4e-3 -0.25511"/><path d="m138.89 361.81s0.96692-1.9816 1.2193-3.3958c0.0714-0.40088-2.7685-20.72-2.7685-20.72l-3.3577 0.12656 1.5728 18.909-0.56014 3.7935 3.8942 1.2869"/><path d="m130.74 360.57s-0.055-1.8883 0.22119-4.1082c0.24774-1.9926 0.81756-4.261 1.0027-5.5291 0.4091-2.8055 1.213-3.3362 1.213-3.3362l6.4419-8.2431 2.523 2.2732-5.6783 9.0857s-1.5134 10.082-1.4603 9.8097c0.0531-0.27174-4.2633 0.048-4.2633 0.048"/></g><g fill="#33535f"><path d="m133.3 347.48c-2e-3 -1e-3 0.019-0.031 0.0602-0.0857 0.0461-0.0598 0.10723-0.13857 0.18348-0.23716 0.16474-0.21198 0.39457-0.50773 0.67664-0.87086 0.5694-0.74554 1.3484-1.7651 2.2087-2.8913 0.86096-1.131 1.6457-2.151 2.2264-2.8797 0.28945-0.36485 0.52791-0.65666 0.69496-0.85678 0.0807-0.0952 0.14515-0.17108 0.19402-0.22876 0.0451-0.0518 0.0695-0.0782 0.0716-0.0767 2e-3 2e-3 -0.019 0.0312-0.0605 0.0857-0.0461 0.0601-0.10701 0.13882-0.18348 0.23724-0.16452 0.2119-0.39456 0.50788-0.67663 0.87086-0.56941 0.74529-1.3482 1.7651-2.209 2.8918-0.86054 1.1306-1.6452 2.1506-2.226 2.8791-0.28944 0.36486-0.52791 0.65683-0.69496 0.8567-0.0807 0.0952-0.14535 0.17133-0.19422 0.22901-0.0449 0.0516-0.0695 0.0782-0.0714 0.0764"/><path d="m132.58 359.03c0.0124-4e-3 -7e-3 -0.13082-0.0897-0.32062-0.0815-0.18938-0.2372-0.43627-0.4685-0.65388-0.23235-0.21698-0.48893-0.35601-0.68295-0.42553-0.19465-0.0702-0.32315-0.0809-0.32568-0.0687-0.0122 0.0326 0.49041 0.15146 0.93364 0.57425 0.45038 0.415 0.60164 0.90857 0.63323 0.89445"/><path d="m139.53 360.18c9e-3 -0.027-0.21192-0.11101-0.49294-0.0682-0.28122 0.0405-0.4685 0.18517-0.45165 0.20834 0.0158 0.0278 0.21129-0.0638 0.46766-0.10006 0.25616-0.0396 0.46977-9e-3 0.47693-0.04"/><path d="m135.9 357.38c3e-3 4.2e-4 0.0112-0.0455 0.0234-0.13377 0.012-0.0977 0.028-0.22646 0.0482-0.38782 0.0394-0.34906 0.0942-0.83842 0.16242-1.4451 0.13019-1.2406 0.31072-2.9584 0.51653-4.9178l-8e-3 0.0232c0.30124-0.48165 0.61364-0.98063 0.93342-1.4919 1.2635-2.0337 2.407-3.874 3.2416-5.2172 0.40594-0.6634 0.73646-1.2036 0.97156-1.5875 0.1087-0.18187 0.19507-0.32678 0.25953-0.4344 0.0581-0.10032 0.0874-0.1538 0.0841-0.1557-3e-3 -2e-3 -0.0386 0.0477-0.1028 0.14392-0.0687 0.10508-0.16115 0.24622-0.27702 0.42364-0.24225 0.37958-0.58268 0.91339-1.0012 1.5691-0.84137 1.3385-1.9945 3.173-3.2686 5.1999-0.31935 0.51166-0.63092 1.011-0.93174 1.493l-7e-3 0.0107-1e-3 0.0124c-0.19065 1.9608-0.35812 3.6803-0.47904 4.9217-0.0546 0.6081-0.0988 1.0986-0.13039 1.4482-0.0124 0.1622-0.0225 0.29155-0.0301 0.38993-6e-3 0.0887-7e-3 0.13524-4e-3 0.13545"/><path d="m134.93 375.09 2.0128-0.64567 0.15294-4.2616s1.0813-4.9962 1.3147-5.633c0.45692-1.2462 0.61407-2.3343 0.61407-2.3343s-0.38761-2.8268-3.2123-3.1592c-2.8247-0.33221-5.4537 1.2903-5.4537 1.2903s-0.94311 4.211-1.8068 7.9915c-0.82177 3.5966-0.15378 5.7415-0.15378 5.7415l3.0958 1.111 3.4362-0.10048"/></g><path d="m136.48 372.24-1.847-0.22372-0.0573 0.47461 1.8468 0.22351 0.0575-0.4744" fill="#fafaf9"/><path d="m136.86 377.82c-0.0324 0.20581-0.24036 0.36802-0.44807 0.34927 0.20582 0.12892 0.17801 0.49504-0.0447 0.59174 0.20645 0.29197 0.13672 0.7432-0.14851 0.95912l-2.123-2.9246c0.31472-0.27238 0.75668-0.36591 1.1706-0.32125 0.41352 0.0447 0.80408 0.21466 1.1675 0.41752 0.0942 0.0525 0.19318 0.11418 0.2332 0.21403 0.04 0.0999-0.0181 0.24268-0.12576 0.24373 0.20328 0.0461 0.35116 0.26437 0.31872 0.4704" fill="#17282f"/><path d="m131.59 379.41c-0.08 0.0255-0.17463-6e-3 -0.22308-0.0744-0.0487-0.0687-0.047-0.16831 3e-3 -0.23551-0.12555 0.0181-0.25932-0.0383-0.33411-0.14114-0.0748-0.10259-0.0874-0.24711-0.0314-0.36128-0.15126 4e-3 -0.30841-0.0259-0.43059-0.11523-0.12197-0.0893-0.20096-0.24647-0.16894-0.39435 0.032-0.1481 0.19422-0.26354 0.33915-0.21993-0.0676-0.13124-0.0731-0.30335 0.0204-0.41752 0.0935-0.11397 0.2966-0.13019 0.38297-0.0105-0.0788-0.10806-0.0735-0.26985 0.0122-0.37244 0.0859-0.1028 0.24415-0.13693 0.36465-0.0786-0.0339-0.1344 0.0276-0.28713 0.14535-0.36086 0.11755-0.0735 0.28186-0.0617 0.38782 0.0276l-0.46787 2.7541" fill="#17282f"/><path d="m131.72 379.97-0.0914-5.1801c-0.0152-0.84558 0.62628-1.5589 1.4689-1.6334 0.92774-0.082 1.7318 0.63745 1.7529 1.5686 0.011 0.49273 0.0175 0.89656 0.0175 0.89656s1.2633 0.0836 1.3886 1.3282c0.0725 0.71897 0.0929 2.363 0.0969 3.6235 3e-3 0.85232-0.64778 1.5641-1.4965 1.6391l-0.75268 0.0666c-1.3031 0.0388-2.3813-1.0055-2.3842-2.309" fill="#f8a58d"/><path d="m134.87 375.62s-0.78955 0.0234-1.5801 0.62292c0 0 0.32125-0.94185 1.5744-0.93954l6e-3 0.31662" fill="#f68260"/><g fill="#17282f"><path d="m136.01 379.31c-0.024-0.0211-0.1502 0.0904-0.34168 0.10681-0.19107 0.0192-0.34022-0.0668-0.35896-0.0415-9e-3 0.0112 0.0169 0.051 0.0819 0.0904 0.0642 0.0388 0.17084 0.0729 0.28987 0.0619 0.11944-0.0112 0.21592-0.064 0.26964-0.11396 0.0548-0.0506 0.071-0.0944 0.0592-0.10365"/><path d="m133.98 379.23c-5e-3 -0.0942-0.0889-0.16789-0.18748-0.16431-0.0984 3e-3 -0.17422 0.0822-0.16937 0.17674 5e-3 0.0942 0.0889 0.16768 0.18727 0.16431 0.0986-3e-3 0.17443-0.0826 0.16958-0.17674"/><path d="m135.84 379.06c-5e-3 -0.0942-0.0889-0.16768-0.18749-0.16431-0.0984 3e-3 -0.17421 0.0822-0.16915 0.17674 5e-3 0.0942 0.0889 0.16768 0.18727 0.16431 0.0986-3e-3 0.17442-0.0826 0.16937-0.17674"/><path d="m134.15 379.47c-0.0242-0.0213-0.15041 0.0904-0.34169 0.1068-0.19107 0.0192-0.34021-0.067-0.35896-0.0417-9e-3 0.0114 0.0166 0.0512 0.0819 0.0904 0.064 0.039 0.17064 0.0731 0.29008 0.0622 0.11902-0.0114 0.2155-0.064 0.26922-0.11397 0.0548-0.0503 0.0712-0.0942 0.0594-0.10364"/><path d="m134.72 377.99c2.1e-4 0.011 0.12113 0.0211 0.31599 0.0287 0.0495 6.3e-4 0.0965 6e-3 0.10786 0.0392 0.0145 0.0341-1e-3 0.0887-0.02 0.14767-0.0354 0.1224-0.0725 0.25069-0.11164 0.38509-0.15378 0.54792-0.26059 0.99641-0.23868 1.0027 0.0223 6e-3 0.16516-0.43333 0.31894-0.98104 0.0369-0.13503 0.072-0.26374 0.10532-0.38676 0.0135-0.0573 0.0398-0.12303 8e-3 -0.19423-0.0164-0.0354-0.0546-0.0588-0.0866-0.0645-0.0322-7e-3 -0.0598-5e-3 -0.0843-4e-3 -0.19486 7e-3 -0.31557 0.0166-0.31536 0.0274"/><path d="m134.14 377.91c0.0314-8.4e-4 0.0133-0.20876 0.17821-0.37202 0.16453-0.16368 0.38804-0.1601 0.3874-0.18917 1e-3 -0.0133-0.0531-0.036-0.14682-0.0303-0.0919 5e-3 -0.2233 0.0463-0.32421 0.14619-0.10048 0.10007-0.1365 0.22499-0.13608 0.31072-2.1e-4 0.0876 0.0276 0.13714 0.0415 0.13461"/><path d="m134.25 380.09c-0.0236-0.0506-0.21234-9e-3 -0.43964-0.016-0.2273-3e-3 -0.41394-0.0525-0.43964-3e-3 -0.0114 0.0236 0.0244 0.0697 0.10217 0.11354 0.0771 0.044 0.19696 0.0815 0.33326 0.0847 0.13608 3e-3 0.25784-0.0295 0.33684-0.0702 0.0794-0.0405 0.11712-0.0851 0.10701-0.10891"/><path d="m136.03 379.86c-0.0377-0.0406-0.16558 0.0162-0.3242 0.0324-0.15778 0.0215-0.29534-4e-3 -0.32231 0.0449-0.0116 0.0232 0.0135 0.0649 0.0758 0.10091 0.0615 0.0358 0.16115 0.0609 0.26985 0.0478 0.10849-0.0131 0.19971-0.0607 0.2509-0.11018 0.052-0.0495 0.0666-0.0961 0.0499-0.11586"/></g><path d="m132.06 379c-0.0204 0.0112-0.83357 0.32884-0.88181-0.52538-0.048-0.85422 0.81946-0.72635 0.82241-0.70191 3e-3 0.0244 0.0594 1.2273 0.0594 1.2273" fill="#f8a58d"/><path d="m131.76 378.11c-3e-3 3e-3 -0.0154-0.01-0.0411-0.0198-0.0253-0.01-0.0678-0.0152-0.11144 4e-3 -0.0883 0.0381-0.1563 0.1858-0.15188 0.33979 2e-3 0.0779 0.0225 0.15104 0.0537 0.21066 0.0295 0.0611 0.0725 0.10238 0.11839 0.10806 0.0457 8e-3 0.0765-0.0213 0.0855-0.0457 0.01-0.0244 4e-3 -0.0413 8e-3 -0.043 2e-3 -2e-3 0.0192 0.0131 0.0141 0.0489-3e-3 0.0171-0.0114 0.0379-0.0303 0.0554-0.0198 0.0179-0.0495 0.028-0.0813 0.0263-0.0662-8.4e-4 -0.12893-0.0579-0.16284-0.12365-0.0377-0.0655-0.0626-0.14767-0.0649-0.2351-4e-3 -0.17231 0.0746-0.33852 0.19612-0.38129 0.0594-0.019 0.11038-4e-3 0.13756 0.0152 0.0276 0.0194 0.0331 0.0383 0.0301 0.04" fill="#f68260"/><path d="m131.59 379.07c0.13251 0.0198 0.34675-0.11986 0.39141-0.24626 0.0447-0.12681 0.0447-0.26564 0.0891-0.39224 0.0445-0.12661 0.15968-0.24752 0.2924-0.22835 0.0916 0.0133 0.16326 0.0916 0.19464 0.17863 0.0316 0.087 0.0303 0.18201 0.0268 0.27449-0.015 0.40236-0.0636 0.80408-0.0442 1.2062 0.0194 0.40214 0.11312 0.81335 0.3539 1.1363 0.24058 0.32252 0.64904 0.5395 1.0459 0.47188 0.2629-0.0447 0.49357-0.20413 0.75331-0.26438 0.30798-0.0712 0.64735 0.01 0.89024 0.21235 0.031 0.0259 0.17169 0.10174 0.17169 0.10174 2e-3 0.0206-2e-3 0.20034-0.0662 0.27133-0.47925 0.52875-1.4076 0.74657-2.1123 0.63408-0.70465-0.1127-1.3937-0.54223-1.7474-1.1618-0.35348-0.61975-0.34485-1.5258-0.23931-2.194" fill="#17282f"/><path d="m136.51 380.79c-0.13462-0.249-0.4327-0.37434-0.71561-0.37813-0.28291-4e-3 -0.55635 0.0937-0.82072 0.19443-0.26438 0.10091-0.98124 0.28587-1.2635 0.3023-0.0423 2e-3 -0.0929 8e-3 -0.11228 0.0453-0.0255 0.0499 0.0272 0.10301 0.0742 0.13355 0.39709 0.25806 1.3107 0.35707 1.7838 0.33516 0.47293-0.0217 0.94986-0.26796 1.1702-0.68737" fill="#17282f"/><path d="m136.39 380.76s-0.33284 0.47545-0.99767 0.56393c-0.9606 0.12787-2.8133-0.2549-3.8424-1.9263 0 0-0.14872 0.72635-0.11523 1.1058 0.0225 0.25321 0.30735 1.7491 1.9022 2.0864 0 0 2.4179 0.68611 3.0531-1.8298" fill="#33535f"/><path d="m131.71 379.72c0.55045 0.69896 1.2728 1.253 2.0657 1.656s2.0767 0.75731 2.953 0.90899c0.26311 0.0455 0.53654 0.0815 0.79439 0.0131 0.25827-0.0685 0.49926-0.26564 0.54139-0.52917 0.0529-0.3301-0.56393-0.77775-0.85064-0.94986-0.28649-0.1719-0.86116-0.41078-0.86116-0.41078s0.0605 0.59806-0.88687 0.80619c-1.2888 0.28333-3.7558-1.4944-3.7558-1.4944" fill="#33535f"/><path d="m137.69 382.26c-6e-3 -0.0133-0.0946 0.0343-0.27301 0.0417-0.17675 9e-3 -0.43543-1e-3 -0.75121-0.0508-0.6305-0.0994-1.4942-0.31598-2.3994-0.68147-0.9092-0.35665-1.6476-0.86265-2.106-1.3052-0.23109-0.21929-0.38676-0.42658-0.48093-0.5772-0.0925-0.15189-0.12871-0.245-0.13819-0.2412-4e-3 1e-3 3e-3 0.0255 0.0179 0.0708 0.0137 0.0461 0.0428 0.11017 0.0832 0.1917 0.0847 0.16052 0.23467 0.38044 0.46323 0.61111 0.45144 0.4645 1.1986 0.99052 2.1194 1.3518 0.9151 0.36929 1.7889 0.57552 2.4302 0.65662 0.32104 0.0402 0.58563 0.0394 0.76637 0.0162 0.0904-0.0137 0.15968-0.028 0.2035-0.051 0.0447-0.0185 0.0666-0.0297 0.0649-0.0331" fill="#17282f"/><path d="m134.61 381.93s0.494 0.21908 0.97261 0.23783c-0.091 0.0798-0.13988 0.1186-0.2431 0.17674-0.24626-0.0267-0.49694-0.0666-0.75752-0.18243l0.028-0.23214" fill="#fafaf9"/><path d="m136.53 380.34c0.0775 0.1087 0.0912 0.25974 0.0346 0.38066-0.0567 0.12071-0.18159 0.20687-0.31472 0.21677 0.18474 0.0546 0.27027 0.30145 0.18116 0.47229-0.0893 0.17085-0.3124 0.24668-0.49757 0.19402-0.18517-0.0527-0.32757-0.21361-0.38993-0.39583-0.0773 0.11607-0.21761 0.1877-0.35727 0.1818-0.13967-6e-3 -0.27365-0.0887-0.34106-0.21087-0.0236 0.10954-0.15926 0.16221-0.2688 0.13861-0.10933-0.0238-0.19844-0.10027-0.28649-0.16936-0.0881-0.0693-0.18812-0.13672-0.29998-0.13672l-0.0752-0.0316c0.11417-0.1976 0.39098-0.28081 0.59532-0.17885-3e-3 -0.1424 0.0982-0.28081 0.23467-0.32167 0.13629-0.0411 0.29682 0.0185 0.37307 0.13903 0.0346-0.22203 0.35517-0.33326 0.5197-0.18032 0.0815-0.2549 0.45165-0.35833 0.65346-0.18243 0.1087-0.16874 0.13924-0.38593 0.0807-0.57784 0.13756 0.031 0.253 0.14473 0.28565 0.28186 0.0327 0.13693-0.0185 0.29071-0.12724 0.38045" fill="#17282f"/><path d="m132.97 380.55c-0.29113-0.13861-0.58458-0.27828-0.84642-0.4666-0.26206-0.18833-0.494-0.42996-0.6225-0.72614l0.41647-0.40194c0.11418-0.0385 0.20624-0.079 0.29829-1e-3 0.0923 0.0777 0.13988 0.20497 0.12155 0.32378 0.11544-0.0333 0.24921 8e-3 0.32589 0.10048 0.0771 0.0927 0.0927 0.23173 0.0383 0.33916 0.083 0.0202 0.15252 0.0872 0.17548 0.16937 0.023 0.0822-1e-3 0.1759-0.0615 0.23615 0.0975 2e-3 0.19043 0.0687 0.22393 0.16052 0.0331 0.0919 4e-3 0.20265-0.0695 0.26669" fill="#17282f"/><path d="m136.94 374.44s1.2462-0.74784 1.6202-1.4125c0.3737-0.66463 2.3678-5.5247 2.2846-6.3142-0.083-0.78913-1.9509-1.2875-1.9509-1.2875l-1.9538 2.5338 0.89319 0.53296-0.89319 1.7103v4.2372" fill="#33535f"/><path d="m138.89 365.43s-4.5262-0.90457-6.1687 1.0432l0.47609 1.6537s2.9899-0.70697 3.9237-0.40299l1.7689-2.2938" fill="#f8a58d"/><g fill="#17282f"><path d="m139.36 369.45c0.0162-0.0335-0.53065-0.2629-1.1013-0.69939-0.56941-0.43859-0.93195-0.90751-0.96039-0.8835-0.0107 9e-3 0.0678 0.1344 0.21972 0.31978 0.15209 0.18454 0.38234 0.42637 0.67389 0.65072 0.29176 0.22351 0.585 0.3834 0.80261 0.48283 0.21824 0.099 0.36001 0.14241 0.36549 0.12956"/><path d="m137.91 368.55c-0.0299-0.0124-0.19886 0.35643-0.40721 0.80745-0.20918 0.45038-0.39666 0.80829-0.36949 0.8243 0.0249 0.0152 0.257-0.32146 0.46893-0.77796 0.21065-0.45607 0.3341-0.84305 0.30777-0.85379"/><path d="m137.09 370.59c0.0196 4e-3 -0.0301 0.31999-0.11122 0.70549-0.0811 0.38551-0.16242 0.69454-0.18201 0.69033-0.0196-4e-3 0.0303-0.31957 0.11123-0.70528 0.0811-0.38551 0.16283-0.69454 0.182-0.69054"/></g><path d="m128.96 373.82c0.0862-0.0899 1.3292-0.91383 1.7447-2.3263 0.41541-1.4125 0.87233-2.8662 0.87233-2.8662l1.62-0.20792-0.91384-3.7385s-1.9524 0.20792-3.0324 1.9939c-1.08 1.7864-1.7449 3.988-1.7449 3.988s0.13819 4.5268 1.4542 3.1571" fill="#33535f"/><path d="m132.64 368.49s-0.68822 1.5384-0.77964 1.5589c-0.091 0.02-1.419 0.48641-1.419 0.48641s-0.071-0.18243 0-0.33452l-0.47651-0.0609s0.071-0.29387 0.23341-0.33453l-0.17253-0.15188s0.14219-0.19486 0.32441-0.27491c0.18243-0.0801 0.3143 0 0.3143 0s-0.0609-0.11017 0.21277-0.2827c0.27364-0.17232 0.74004-0.42553 0.74004-0.42553l1.0227-0.18032" fill="#f8a58d"/><g fill="#f68260"><path d="m130.45 370.2 2e-3 -4e-3 -0.47714-0.0609c9e-3 -0.0343 0.0813-0.29113 0.22983-0.32842l6e-3 -2e-3 -0.17484-0.15399c0.0175-0.0234 0.15293-0.1976 0.32104-0.27112 0.17842-0.0786 0.30966-1e-3 0.31093-2.1e-4l0.0109 7e-3 -6e-3 -0.0114c-6.3e-4 -1e-3 -0.0552-0.10997 0.21171-0.27807 0.26649-0.16769 0.72151-0.41563 0.7392-0.42532l1.0158-0.17885c-0.23867 0.53296-0.7038 1.5351-0.77437 1.5506-0.0883 0.0196-1.3434 0.45987-1.4163 0.48557-9e-3 -0.0247-0.0634-0.19065 1e-3 -0.32863zm1.1721-1.5355-1e-3 4.2e-4c-5e-3 3e-3 -0.46955 0.25553-0.74004 0.42595-0.23256 0.1462-0.22645 0.24794-0.21782 0.27807-0.0318-0.0156-0.15251-0.0642-0.30861 4e-3 -0.18117 0.0794-0.32462 0.27407-0.3261 0.27596l-2e-3 3e-3 0.17 0.14978c-0.158 0.0461-0.22667 0.32336-0.22941 0.33515l-1e-3 4e-3 0.47566 0.0607c-0.0676 0.15083 1e-3 0.33115 2e-3 0.33305l1e-3 3e-3 3e-3 -1e-3c0.0131-5e-3 1.3286-0.46639 1.4186-0.48641 0.0921-0.0202 0.75373-1.4978 0.78196-1.5606l3e-3 -6e-3 -1.0291 0.18117"/><path d="m130.49 370.19c-6e-3 -0.0188 0.38297-0.17042 0.86959-0.33811 0.1205-0.0438 0.24184-0.0769 0.33663-0.12197 0.0958-0.0445 0.15694-0.11902 0.19844-0.18917 0.0792-0.14303 0.10891-0.24668 0.12092-0.24183 7e-3 2e-3 -4e-3 0.10722-0.0761 0.26627-0.0373 0.0773-0.10554 0.17021-0.21297 0.22393-0.10554 0.0541-0.22203 0.0866-0.34337 0.13082-0.48662 0.1681-0.88645 0.28902-0.89319 0.27006"/><path d="m130.18 369.8c-3e-3 -9e-3 0.0874-0.0482 0.24036-0.0872 0.15231-0.0411 0.36676-0.0756 0.59406-0.13693 0.2273-0.0615 0.419-0.15778 0.53823-0.253 0.12092-0.094 0.17442-0.17611 0.18453-0.16916 7e-3 3e-3 -0.0324 0.0982-0.15167 0.20792-0.11691 0.11123-0.31683 0.22035-0.55171 0.28376-0.23446 0.0632-0.44976 0.0895-0.60269 0.11733-0.15378 0.0259-0.24795 0.0472-0.25111 0.0373"/><path d="m131.4 369.1c0.0131 0.0133-0.1127 0.14325-0.31851 0.21572-0.20518 0.0742-0.38487 0.0535-0.38298 0.0348-2.1e-4 -0.0213 0.16769-0.0333 0.35875-0.10281 0.1917-0.0672 0.32926-0.16431 0.34274-0.14767"/></g><path d="m133.06 368.02 4.0798 2.0609 0.74847-1.5245s-3.7653-3.7303-5.5291-3.6825l0.70085 3.1462" fill="#f8a58d"/><g fill="#17282f"><path d="m130.58 372.34c-0.01-3e-3 0.012-0.11755 0.0552-0.30167 0.043-0.18432 0.10701-0.43732 0.18243-0.71581 0.0754-0.27849 0.14746-0.52959 0.20307-0.71013 0.0556-0.18074 0.0948-0.29113 0.10449-0.28839 9e-3 3e-3 -0.0124 0.11797-0.0554 0.30208-0.043 0.18433-0.10722 0.43712-0.18243 0.7154-0.0752 0.27828-0.14703 0.52896-0.20286 0.7097-0.0556 0.18075-0.0948 0.29113-0.10449 0.28882"/><path d="m130.76 367.26c0.0126-3e-3 0.0489 0.18727 0.14367 0.48008 0.0504 0.14452 0.12029 0.31578 0.245 0.47188 0.12281 0.15462 0.30545 0.29913 0.5298 0.33431 0.22477 0.032 0.44575-0.0381 0.64693-0.0742 0.19633-0.039 0.37645-0.0748 0.53486-0.10617 0.0769-0.0147 0.14472-0.0257 0.19655-0.0512 0.0529-0.0244 0.0853-0.0626 0.099-0.10091 0.0293-0.0786-0.0124-0.12091-6e-3 -0.12281-8.5e-4 -6e-3 0.0573 0.0352 0.0326 0.13166-0.0105 0.0453-0.0487 0.0971-0.10702 0.12766-0.0577 0.0329-0.12976 0.0478-0.20454 0.0655-0.15758 0.036-0.33643 0.0767-0.5317 0.12113-0.19887 0.0388-0.42153 0.11481-0.672 0.0807-0.24963-0.0394-0.44428-0.19949-0.5711-0.36443-0.12934-0.16832-0.19612-0.34843-0.2412-0.49779-0.044-0.15062-0.0664-0.27469-0.0811-0.36064-0.0139-0.086-0.019-0.13377-0.0139-0.13482"/><path d="m130.2 368.08c0.0202-0.0112 0.12829 0.29513 0.44196 0.50979 0.30861 0.21719 0.62797 0.24984 0.62228 0.27364-1e-3 9e-3 -0.0805 0.0112-0.20623-0.0147-0.1245-0.0261-0.29577-0.0862-0.45776-0.19992-0.162-0.11396-0.27491-0.25847-0.33368-0.37265-0.0598-0.11439-0.0744-0.1936-0.0666-0.19612"/><path d="m127.51 370.66c-2e-3 -8.5e-4 5e-3 -0.0282 0.0221-0.0796 0.0198-0.0586 0.0447-0.1325 0.0752-0.22372 0.0697-0.20286 0.16537-0.48093 0.28186-0.82051 0.12134-0.3459 0.26332-0.75984 0.46492-1.2026 0.21214-0.43753 0.44091-0.91762 0.72888-1.4011 0.28881-0.48262 0.64356-0.89593 1.0177-1.209 0.37202-0.3164 0.75626-0.53928 1.0954-0.68337 0.34042-0.14325 0.63408-0.20855 0.83799-0.23551 0.10217-0.0135 0.18159-0.0206 0.23573-0.0213 0.0541-2e-3 0.0824-2e-3 0.0826 2.1e-4 6.3e-4 8e-3 -0.11292 0.0124-0.31388 0.0489-0.20055 0.0352-0.48894 0.10744-0.8222 0.25469-0.66294 0.28923-1.5062 0.9172-2.0716 1.8829-0.28439 0.47714-0.51674 0.95933-0.72993 1.3916-0.20328 0.43754-0.35032 0.84853-0.47735 1.1917-0.12597 0.34401-0.22898 0.62228-0.30355 0.81314-0.0358 0.0891-0.0651 0.16179-0.0883 0.21908-0.0209 0.0499-0.0331 0.0756-0.0356 0.0746"/><path d="m128.68 373.72c-7e-3 -0.0204 0.31219-0.13377 0.66799-0.34548 0.35728-0.2096 0.61049-0.43416 0.62523-0.41794 0.0133 0.0122-0.22287 0.26542-0.58857 0.48009-0.36444 0.21634-0.70023 0.30103-0.70465 0.28333"/><path d="m131.78 363.79c-2e-3 -4e-3 0.0725-0.0417 0.20919-0.10554 0.068-0.0324 0.1523-0.0706 0.25236-0.10891 0.0999-0.0392 0.21214-0.0876 0.34064-0.12934 0.25405-0.0918 0.56309-0.18243 0.91109-0.26396 0.34885-0.0773 0.73688-0.14303 1.1479-0.18095 0.4112-0.0348 0.80471-0.0379 1.162-0.023 0.35686 0.0192 0.67727 0.0541 0.94312 0.10006 0.13398 0.0185 0.253 0.0465 0.35791 0.0676 0.10533 0.0204 0.19485 0.043 0.26774 0.063 0.14578 0.039 0.22562 0.0626 0.22435 0.0674-1e-3 5e-3 -0.0832-0.01-0.23067-0.0398-0.0735-0.016-0.16347-0.0345-0.26901-0.051-0.10533-0.0171-0.22435-0.0413-0.3579-0.0569-0.26564-0.039-0.58416-0.0685-0.93849-0.0838-0.35453-0.0114-0.74467-6e-3 -1.1529 0.0284-0.40742 0.0375-0.7925 0.1007-1.1394 0.17401-0.34611 0.0773-0.65452 0.16199-0.9092 0.24731-0.12892 0.0383-0.24184 0.083-0.34232 0.11839-0.10112 0.0348-0.18643 0.0689-0.25595 0.0973-0.13988 0.0556-0.21824 0.0843-0.22035 0.0796"/><path d="m135.1 361.67c4e-3 -0.0188 0.37982 0.0564 0.82704 0.20602 0.44744 0.14851 0.79271 0.31388 0.78513 0.33136-8e-3 0.019-0.3636-0.11523-0.80809-0.2629-0.44406-0.14851-0.80913-0.25447-0.80408-0.27448"/></g><path d="m138.26 365.04c-0.0215 0.0824-0.044 0.17232-0.068 0.26838 7e-3 1e-3 0.0131 2e-3 0.0198 3e-3l0.0552-0.26606c-2e-3 -2e-3 -5e-3 -4e-3 -7e-3 -5e-3" fill="#a7a9a8"/><path d="m132.62 364.27c-0.178 0-0.3558 0.0133-0.53212 0.044-0.61702 0.10681-1.2189 0.45565-1.5077 1.007 0.87718-0.55677 1.7074-0.64525 1.7074-0.64525l0.0255 0.10364c7e-3 0 0.0126-2.1e-4 0.0177-2.1e-4 0.0143 0 0.0217 6.4e-4 0.0219 2e-3 2.1e-4 3e-3 -0.0126 5e-3 -0.0373 8e-3l0.0152 0.0621c0.41036 0 0.82009 0.0784 1.1984 0.23783 0.26754 0.11291 0.52475 0.2648 0.81187 0.30862 0.0632 0.01 0.12619 0.0137 0.18939 0.0137 0.0514 0 0.10301-3e-3 0.15441-8e-3 0.17927-0.0411 0.3617-0.0744 0.5456-0.1009 0.052-0.0114 0.10428-0.0225 0.1561-0.0327 0.39941-0.0784 0.78997-0.11081 1.1795-0.11081 0.53886 0 1.076 0.0619 1.6316 0.14957 0.024-0.0961 0.0466-0.18601 0.068-0.26838-0.41858-0.32273-1.0242-0.48009-1.5572-0.48009-0.016 0-0.0322 2.1e-4 -0.0482 4.2e-4 -0.47672 9e-3 -0.94417 0.158-1.4198 0.158-0.0202 0-0.0406-2.1e-4 -0.0609-8.5e-4 -0.39161-0.0107-0.77079-0.13039-1.1496-0.23088-0.46007-0.12218-0.93616-0.2174-1.4097-0.2174" fill="#20353d"/><path d="m135.23 365.3c-0.1839 0.0265-0.36633 0.0598-0.5456 0.1009 0.18222-0.0173 0.36423-0.0609 0.5456-0.1009" fill="#ba7562"/><path d="m132.29 364.68s-0.8302 0.0885-1.7074 0.64525c-0.0114 0.0215-0.0221 0.0434-0.0324 0.0655 0.22414-0.14704 0.44449-0.26227 0.64862-0.34885 0.34042-0.14325 0.63408-0.20855 0.83799-0.23551 0.10217-0.0135 0.18159-0.0206 0.23573-0.0213 0.0169-6.3e-4 0.0312-1e-3 0.043-1e-3l-0.0255-0.10364m0.0278 0.11355c-0.0487 6e-3 -0.14346 0.0164-0.27659 0.0407-0.10765 0.0187-0.24057 0.0485-0.39225 0.0946 0.22456-0.0485 0.45418-0.0731 0.68401-0.0731l-0.0152-0.0621" fill="#20353d"/><path d="m132.33 364.78c-5e-3 0-0.011 2.1e-4 -0.0177 2.1e-4 -0.0118 4.3e-4 -0.0261 8.5e-4 -0.043 1e-3 -0.0541 6.3e-4 -0.13356 8e-3 -0.23573 0.0213-0.20391 0.027-0.49757 0.0923-0.83799 0.23551-0.20413 0.0866-0.42448 0.20181-0.64862 0.34885-2e-3 4e-3 -4e-3 8e-3 -5e-3 0.0118 0.332-0.22983 0.70992-0.38867 1.1043-0.47377 0.15168-0.0461 0.2846-0.0758 0.39225-0.0946 0.13313-0.0242 0.22793-0.0343 0.27659-0.0407 0.0247-3e-3 0.0375-5e-3 0.0373-8e-3 -2.1e-4 -1e-3 -8e-3 -2e-3 -0.0219-2e-3" fill="#0f191d"/><path d="m134.44 360.81c-0.11987 0-0.23931 0.0135-0.35264 0.0512-0.16748 0.0556-0.32168 0.16937-0.39562 0.32968 0.17969 0.13377 0.40131 0.19591 0.61744 0.25511 0.27807 0.0765 0.55635 0.15273 0.83442 0.2292 0.1108 0.0139 0.42447 0.0862 0.78448 0.20644 0.0449 0.015 0.0887 0.0301 0.13124 0.0451 0.17253 0.0474 0.34506 0.0948 0.51759 0.14219l0.0249 6e-3c-0.41416-0.70149-1.1786-1.1843-1.9901-1.2568-0.0569-5e-3 -0.11438-8e-3 -0.17168-8e-3" fill="#20353d"/><path d="m135.14 361.67c0.30524 0.0838 0.61048 0.16768 0.91572 0.25152-0.0425-0.015-0.0864-0.0301-0.13124-0.0451-0.36001-0.12029-0.67368-0.19254-0.78448-0.20644" fill="#0f191d"/><path d="m137.83 368.49c5e-3 -6e-3 -0.0611-0.0722-0.18306-0.18896-0.12155-0.11712-0.29829-0.28502-0.50811-0.50094-0.20981-0.2153-0.45734-0.48009-0.76068-0.74341-0.30251-0.26438-0.64757-0.53529-1.0122-0.81841-0.36613-0.28144-0.72909-0.53423-1.0762-0.7373-0.34717-0.20329-0.68043-0.35096-0.96861-0.4487-0.28797-0.1007-0.53233-0.14093-0.69938-0.16874-0.16916-0.0179-0.26248-0.0238-0.26332-0.0162-4e-3 0.0221 0.37391 0.0482 0.93658 0.25827 0.28017 0.10533 0.60396 0.25742 0.94332 0.46239 0.33958 0.20497 0.69644 0.45734 1.0609 0.73751 0.36317 0.28165 0.71055 0.55087 1.0128 0.80766 0.30377 0.25616 0.55361 0.5119 0.77227 0.72193 0.21824 0.21002 0.40383 0.37033 0.53444 0.47798 0.13103 0.1068 0.20644 0.16242 0.21129 0.15694" fill="#f68260"/></g></g></svg>
