<?xml version="1.0" encoding="UTF-8"?>
<!-- Created with Inkscape (http://www.inkscape.org/) -->
<svg width="200" height="200" version="1.1" viewBox="0 0 200 200" xml:space="preserve" xmlns="http://www.w3.org/2000/svg"><g transform="matrix(1.3333 0 0 -1.3333 0 541.07)"><g fill="#dadbd8"><path d="m39.139 294.59h-2.1062v5.555h2.1062v-5.555"/><path d="m43.708 294.59h-2.1059v5.555h2.1059v-5.555"/><path d="m39.139 284.05h-2.1062v5.5546h2.1062v-5.5546"/><path d="m43.708 284.05h-2.1059v5.5546h2.1059v-5.5546"/><path d="m39.139 273.51h-2.1062v5.5543h2.1062v-5.5543"/><path d="m43.708 273.51h-2.1059v5.5543h2.1059v-5.5543"/><path d="m39.977 344.03c-0.0085 8e-3 0.09263 0.16005 0.28299 0.42804 0.20943 0.29202 0.4822 0.67238 0.81117 1.1311 0.68346 0.9559 1.623 2.28 2.6222 3.7733 1.0015 1.4922 1.8754 2.8684 2.5013 3.8698 0.30104 0.48054 0.551 0.87938 0.74238 1.1854 0.1764 0.27908 0.27856 0.43063 0.28776 0.42398 0.0095-7e-3 -0.07458-0.17004-0.23497-0.46095-0.16039-0.29054-0.39809-0.70749-0.70015-1.2169-0.60242-1.0195-1.4626-2.4097-2.4659-3.9045-1.0008-1.4956-1.9564-2.8104-2.6637-3.7471-0.3545-0.4676-0.64532-0.84316-0.85135-1.0975-0.20535-0.25506-0.32317-0.39256-0.33169-0.3848"/></g><path d="m38.46 318.11c0.0078-2e-3 0.03201 0.0754 0.07185 0.22511 0.04393 0.17817 0.09705 0.39552 0.1621 0.6587 0.1386 0.57184 0.31909 1.4058 0.52954 2.4393 0.42295 2.0667 0.92389 4.9414 1.4371 8.1214 0.51388 3.1815 0.98927 6.0573 1.3717 8.1307 0.18866 1.0084 0.34394 1.8379 0.45939 2.4544 0.0487 0.26725 0.08854 0.48756 0.12157 0.66869 0.0252 0.15303 0.03508 0.23472 0.02724 0.23731-0.0075 1e-3 -0.03167-0.0758-0.07151-0.22586-0.04393-0.17779-0.09739-0.39477-0.1621-0.65796-0.1386-0.57221-0.31909-1.4061-0.52988-2.4396-0.42261-2.0667-0.92354-4.9414-1.4371-8.1229-0.51354-3.1804-0.98927-6.0559-1.3714-8.1296-0.189-1.008-0.34394-1.8379-0.45939-2.4537-0.0487-0.26762-0.08888-0.4883-0.12157-0.66868-0.0252-0.15377-0.03507-0.23547-0.02758-0.23731" fill="#17282f"/><path d="m91.488 255.94-45.587 0.22915c-5.4827 0.027-9.907 5.0061-9.8832 11.121l0.49719 127.48c0.02384 6.1187 4.4914 11.058 9.9772 11.031l45.587-0.22881c5.483-0.0277 9.907-5.0064 9.8835-11.122l-0.49719-127.48c-0.0238-6.1192-4.4917-11.059-9.9775-11.031" fill="#17282f"/><path d="m98.346 289.35c0-0.60211-0.44985-1.0904-1.0043-1.0904-0.55474 0-1.0046 0.48834-1.0046 1.0904 0 0.60181 0.44985 1.09 1.0046 1.09 0.5544 0 1.0043-0.48819 1.0043-1.09" fill="#dadbd8"/><path d="m97.342 286.96c-0.04904 0-0.08854 0.53528-0.08854 1.1954 0 0.66044 0.0395 1.1962 0.08854 1.1962s0.08854-0.53573 0.08854-1.1962c0-0.66014-0.0395-1.1954-0.08854-1.1954" fill="#dadbd8"/><path d="m92.99 401.36-9.1166 0.0455c-1.2225 6e-3 -2.2183-1.1137-2.2237-2.5006l-0.0072-1.795c-0.0051-1.3876-1.0008-2.5073-2.223-2.501l-17.771 0.0891c-1.2222 6e-3 -2.2091 1.1355-2.204 2.5232l0.0072 1.795c0.0054 1.3873-0.98144 2.5169-2.204 2.5232l-3.2065 0.0163-7.9795 0.0399c-3.9625 0.0196-7.1895-3.4525-7.2065-7.754l-0.48629-124.9c-0.01703-4.2992 3.1796-7.7997 7.1405-7.8198l46.928-0.2351c3.9629-0.0199 7.1895 3.4518 7.2065 7.7537l0.48663 124.9c0.0167 4.2993-3.1796 7.7995-7.1405 7.8194" fill="#fafaf9"/><path d="m41.485 302.8c0.39945 0.32602 20.026 9.7109 20.026 9.7109l-22.925 12.411-0.07764-19.99 2.9763-2.1328" fill="#e7e8e5"/><path d="m42.683 325.31 16.722 9.2259-17.97 10.814-2.7713-0.75333-0.06811-17.499 4.0878-1.7876" fill="#f03d5f"/><path d="m42.683 325.31-4.0044 1.751c0.01805 4.8035 0.03576 9.5261 0.05346 14.162 0.0041 1.137 0.0082 2.2689 0.01226 3.3952l2.6903 0.73152 17.97-10.814-16.722-9.2259" fill="#f9b2c4"/><g fill="#e7e8e5"><path d="m39.268 346.61 51.549 26.134-51.074 18.114z"/><path d="m38.669 278.55 23.555 13.123 35.065-22.395-8.3531-7.9488h-29.924l-20.343 13.496v3.7242"/><path d="m66.861 293.09 29.13-18.746 3.2471 0.40025v18.027l-15.963 9.1701-16.414-8.8515"/><path d="m71.649 310.99 27.464-16.771v21.925l-9.9363 4.6224-17.528-9.7763"/><path d="m42.315 301.75 16.111-9.596 19.552 10.992-15.533 8.5772-20.13-9.9737"/><path d="m66.5 334.66 22.825-12.277 10.583 5.8688 0.06947 8.226-15.419 8.1229-18.057-9.9412"/><path d="m43.159 323.95 22.825-12.277 10.583 5.8688 0.06947 8.226-15.419 8.1229-18.057-9.9412"/><path d="m46.322 346.01 18.599-10.112 17.346 10.112-17.973 8.901-17.973-8.901"/></g><path d="m82.268 281.41c-0.0048-8e-3 -0.11817 0.054-0.33577 0.18338-0.21965 0.13459-0.54112 0.33079-0.96271 0.5881-0.8442 0.53007-2.0865 1.3096-3.6921 2.3176-3.2079 2.0411-7.8651 5.0051-13.677 8.704l-0.28435 0.18112 0.29491 0.16265c5.0877 2.8085 11.176 6.169 17.939 9.902l-0.0044-0.44837c-4.1478 2.3997-8.6657 5.0135-13.396 7.7499l-0.42397 0.24507 0.42568 0.24248c5.8229 3.3179 12.106 6.8975 18.609 10.603l0.0034-0.51307c-0.70185 0.38554-1.4599 0.80176-2.2203 1.2194-15.593 8.5872-30.021 16.533-41.681 22.954l-0.39196 0.21587 0.39571 0.20515c9.2246 4.775 16.823 8.7092 22.119 11.451 2.6511 1.3551 4.7247 2.4152 6.1396 3.1386 0.70662 0.35264 1.2481 0.62284 1.6165 0.80656 0.18185 0.0865 0.32045 0.15266 0.41682 0.19849 0.09433 0.0425 0.14337 0.0617 0.14575 0.0562 0.0024-6e-3 -0.04189-0.0351-0.13145-0.0887-0.09331-0.0532-0.22714-0.12975-0.40286-0.22992-0.362-0.19813-0.89426-0.48904-1.589-0.86903-1.403-0.74964-3.4595-1.8486-6.0882-3.2536-5.277-2.7852-12.848-6.7815-22.039-11.632l0.0037 0.42065c11.673-6.3944 26.117-14.307 41.726-22.857 0.76043-0.41806 1.5185-0.83428 2.22-1.2202l0.46109-0.2532-0.45735-0.25986c-6.5077-3.6976-12.794-7.2698-18.62-10.58l0.0017 0.48793c4.7233-2.7513 9.2344-5.3787 13.376-7.791l0.39537-0.23029-0.39979-0.21809c-6.7819-3.6957-12.886-7.0217-17.987-9.8011l0.0109 0.34377c5.7769-3.7641 10.406-6.78 13.594-8.8569 1.5849-1.0469 2.8105-1.8568 3.6438-2.4069 0.41035-0.27793 0.72297-0.49007 0.93683-0.635 0.20909-0.14527 0.31398-0.22353 0.30955-0.23177" fill="#f03d5f"/><path d="m74.846 370.23c-2.4464-1.544-4.9259 1.31-3.5849 4.1267 0.17844 0.37482 0.45156 0.68938 0.77711 0.89454 2.4468 1.5447 4.9266-1.31 3.5849-4.1267-0.17844-0.37481-0.45156-0.68901-0.77711-0.89453zm3.4194 3.2092c0 3.6876-3.5695 6.0237-7.2089 4.1751-0.82206-0.41733-1.5021-1.1241-1.9152-1.992-0.91537-1.9255-0.51115-4.1241 0.31909-5.9494l2.8326-7.7921c0.40831-1.123 1.8747-1.1163 2.2741 0.0103l2.7771 7.8324c0.96169 2.3857 0.92116 3.7156 0.92116 3.7156" fill="#f03d5f"/><path d="m72.832 333.1-0.08207 4.3555 10.458-5.4981v-4.5226l-10.376 5.6651" fill="#f3f2f1"/><path d="m83.207 331.96 12.99 7.0058v-4.8774l-12.99-6.651v4.5226" fill="#dadbd8"/><path d="m72.749 337.45 12.745 6.9171 10.703-5.4094-12.99-7.0058-10.458 5.4981" fill="#f3f2f1"/><path d="m74.115 335.57v-2.1118l1.0223-0.50086v2.0186l-1.0223 0.59401" fill="#fafaf9"/><path d="m75.75 334.79v-2.1121l1.0223-0.50124v2.0194l-1.0223 0.59402" fill="#fafaf9"/><path d="m39.928 360.57v5.6688l12.379-6.5087v-5.3539l-12.379 6.1937" fill="#dadbd8"/><path d="m52.307 359.73 15.377 8.2933v-5.7738l-15.377-7.8734v5.3539" fill="#f3f2f1"/><g fill="#fafaf9"><path d="m39.928 366.24 15.087 8.1883 12.669-6.4037-15.377-8.2933-12.379 6.5087"/><path d="m41.545 364.01v-2.4999l1.2103-0.59328v2.3897l-1.2103 0.70343"/><path d="m43.48 363.09v-2.4999l1.2103-0.59327v2.3901l-1.2103 0.70306"/></g><path d="m77.243 313.21v-4.4668l4.4117-2.3616v4.6113l-4.4117 2.2171" fill="#dadbd8"/><path d="m87.292 313.92-5.6373-2.9265v-4.6113l5.6373 3.4144v4.1234" fill="#dadbd8"/><path d="m77.243 313.21 5.5872 2.9368 4.4618-2.2275-5.6373-2.9265-4.4117 2.2171" fill="#f3f2f1"/><path d="m78.81 310v-2.1118l1.022-0.50161v2.0194l-1.022 0.59402" fill="#fafaf9"/><path d="m41.607 315.52v-4.4664l4.4117-2.3616v4.6113l-4.4117 2.2168" fill="#dadbd8"/><path d="m51.655 316.23-5.637-2.9265v-4.6113l5.637 3.414v4.1237" fill="#dadbd8"/><path d="m41.607 315.52 5.5872 2.9372 4.4614-2.2275-5.637-2.9265-4.4117 2.2168" fill="#f3f2f1"/><path d="m43.174 312.31v-2.1121l1.022-0.50124v2.019l-1.022 0.59438" fill="#fafaf9"/><path d="m59.897 344.99v-4.4668l4.4117-2.3613v4.6113l-4.4117 2.2168" fill="#f3f2f1"/><path d="m69.946 345.7-5.6373-2.9265v-4.6113l5.6373 3.414v4.1237" fill="#dadbd8"/><path d="m59.897 344.99 5.5876 2.9368 4.4614-2.2271-5.6373-2.9265-4.4117 2.2168" fill="#f3f2f1"/><path d="m61.464 341.79v-2.1118l1.0223-0.50124v2.019l-1.0223 0.59402" fill="#dadbd8"/><path d="m54.993 306.72v-4.4668l4.4117-2.3616v4.6109l-4.4117 2.2175" fill="#dadbd8"/><path d="m65.042 307.43-5.6373-2.9265v-4.6109l5.6373 3.414v4.1234" fill="#e7e8e5"/><path d="m54.993 306.72 5.5876 2.9364 4.4614-2.2275-5.6373-2.9265-4.4117 2.2175" fill="#f3f2f1"/><path d="m56.561 303.52v-2.1118l1.0223-0.50124v2.019l-1.0223 0.59402" fill="#fafaf9"/><path d="m73.206 295.94v-5.6008l9.2978-5.9427v5.7826l-9.2978 5.7609" fill="#f3f2f1"/><path d="m89.573 294.31-7.0689-4.133v-5.7826l7.0689 4.281v5.6345" fill="#dadbd8"/><path d="m73.206 295.94 7.0066 3.6828 9.3601-5.3106-7.0689-4.133-9.2978 5.7609" fill="#fafaf9"/><path d="m76.717 290.76v-2.6481l1.2821-0.83691v2.62l-1.2821 0.86504" fill="#fafaf9"/><path d="m50.842 284.41v-5.6012l9.2974-5.942v5.7823l-9.2974 5.761" fill="#dadbd8"/><path d="m71.233 285.17-11.093-6.5254v-5.7823l11.126 6.6917-0.03269 5.616" fill="#fafaf9"/><path d="m50.842 284.41 11.734 6.1674 8.6889-5.4238-11.126-6.5046-9.2974 5.761" fill="#f3f2f1"/><path d="m54.352 279.23v-2.6484l1.2818-0.83691v2.6204l-1.2818 0.86489" fill="#fafaf9"/><path d="m86.035 305.35v-22.366l5.8014-3.2569v22.65l-5.8014 2.973" fill="#f3f2f1"/><path d="m90.32 307.49-4.2854-2.1469 5.8014-2.973 3.9036 2.386-5.4197 2.7339" fill="#fafaf9"/><path d="m91.836 302.37v-22.65l3.5317 2.0634 0.37187 22.973-3.9036-2.386" fill="#dadbd8"/><path d="m61.512 323.46v-22.366l5.8014-3.2573v22.651l-5.8014 2.973" fill="#f3f2f1"/><path d="m65.797 325.61-4.2854-2.1469 5.8014-2.973 3.9036 2.3857-5.4197 2.7342" fill="#fafaf9"/><path d="m67.313 320.49v-22.651l3.5287 1.8904 0.37494 23.146-3.9036-2.3857" fill="#dadbd8"/><path d="m64.145 280.93v-5.6009l9.2978-5.9423v5.7823l-9.2978 5.761" fill="#dadbd8"/><path d="m80.512 279.3-7.0689-4.1329v-5.7823l7.0689 4.2815v5.6337" fill="#fafaf9"/><path d="m64.145 280.93 7.0877 4.2438 9.279-5.8718-7.0689-4.1329-9.2978 5.761" fill="#f3f2f1"/><path d="m67.656 275.75v-2.6486l1.2818-0.83646v2.62l-1.2818 0.86504" fill="#fafaf9"/><path d="m84.823 347.7-16.934 8.2841 23.58 13.026 7.7364-12.523-14.382-8.7872" fill="#e7e8e5"/><path d="m99.892 340.09 0.11681 14.341-13.125-8.1088z" fill="#f03d5f"/><g fill="#dadbd8"><path d="m89.918 325.73c0-0.60215-0.44985-1.0904-1.0046-1.0904-0.5544 0-1.0043 0.4883-1.0043 1.0904 0 0.60177 0.44985 1.0901 1.0043 1.0901 0.55474 0 1.0046-0.4883 1.0046-1.0901"/><path d="m88.913 323.34c-0.0487 0-0.08854 0.53524-0.08854 1.1954 0 0.66055 0.03984 1.1962 0.08854 1.1962 0.04904 0 0.08854-0.53562 0.08854-1.1962 0-0.66018-0.0395-1.1954-0.08854-1.1954"/><path d="m62.516 328.4c0-0.60214-0.44951-1.0901-1.0043-1.0901s-1.0046 0.48793-1.0046 1.0901c0 0.60215 0.44985 1.0901 1.0046 1.0901s1.0043-0.48793 1.0043-1.0901"/><path d="m61.512 326.01c-0.04904 0-0.08888 0.53561-0.08888 1.1962 0 0.66018 0.03984 1.1954 0.08888 1.1954s0.08854-0.53524 0.08854-1.1954c0-0.66055-0.0395-1.1962-0.08854-1.1962"/><path d="m49.092 313.18c0-0.60215-0.44951-1.0901-1.0043-1.0901s-1.0043 0.48793-1.0043 1.0901c0 0.60214 0.44951 1.0908 1.0043 1.0908s1.0043-0.48867 1.0043-1.0908"/><path d="m48.088 310.79c-0.04904 0-0.08888 0.53524-0.08888 1.1958 0 0.66018 0.03984 1.1954 0.08888 1.1954s0.08854-0.53525 0.08854-1.1954c0-0.66055-0.0395-1.1958-0.08854-1.1958"/><path d="m50.097 324.92c0-0.60214-0.44985-1.0901-1.0046-1.0901-0.5544 0-1.0043 0.48793-1.0043 1.0901 0 0.60215 0.44985 1.0901 1.0043 1.0901 0.55474 0 1.0046-0.48793 1.0046-1.0901"/><path d="m49.092 322.53c-0.04904 0-0.08854 0.53524-0.08854 1.1958s0.0395 1.1958 0.08854 1.1958 0.08888-0.53524 0.08888-1.1958-0.03984-1.1958-0.08888-1.1958"/><path d="m74.887 326c0-0.60215-0.44951-1.0901-1.0043-1.0901s-1.0046 0.48793-1.0046 1.0901 0.44985 1.0901 1.0046 1.0901 1.0043-0.48793 1.0043-1.0901"/><path d="m73.882 323.61c-0.04904 0-0.08854 0.53525-0.08854 1.1954 0 0.66092 0.0395 1.1962 0.08854 1.1962 0.0487 0 0.08854-0.53524 0.08854-1.1962 0-0.66018-0.03984-1.1954-0.08854-1.1954"/><path d="m90.752 317.84c0-0.60215-0.44951-1.0901-1.0043-1.0901-0.55508 0-1.0049 0.48793-1.0049 1.0901 0 0.60214 0.44985 1.0901 1.0049 1.0901 0.55474 0 1.0043-0.48793 1.0043-1.0901"/><path d="m89.748 315.44c-0.04938 0-0.08888 0.53561-0.08888 1.1958 0 0.66055 0.0395 1.1958 0.08888 1.1958 0.0487 0 0.0882-0.53525 0.0882-1.1958 0-0.66018-0.0395-1.1958-0.0882-1.1958"/><path d="m91.395 311.42c0-0.60177-0.44985-1.0901-1.0049-1.0901-0.5544 0-1.0043 0.4883-1.0043 1.0901 0 0.60215 0.44985 1.0904 1.0043 1.0904 0.55508 0 1.0049-0.4883 1.0049-1.0904"/><path d="m90.39 309.03c-0.04904 0-0.08854 0.53524-0.08854 1.1954 0 0.66055 0.0395 1.1958 0.08854 1.1958s0.08854-0.53524 0.08854-1.1958c0-0.66018-0.0395-1.1954-0.08854-1.1954"/><path d="m63.228 298.12c0-0.60215-0.44985-1.0901-1.0046-1.0901s-1.0043 0.48793-1.0043 1.0901c0 0.60214 0.44951 1.0904 1.0043 1.0904s1.0046-0.4883 1.0046-1.0904"/><path d="m62.224 295.73c-0.04904 0-0.08854 0.53524-0.08854 1.1954 0 0.66055 0.0395 1.1958 0.08854 1.1958s0.08854-0.53525 0.08854-1.1958c0-0.66018-0.0395-1.1954-0.08854-1.1954"/><path d="m96.228 279.1c0-0.60226-0.44951-1.0904-1.0043-1.0904-0.55474 0-1.0043 0.48818-1.0043 1.0904 0 0.60211 0.44951 1.09 1.0043 1.09 0.55474 0 1.0043-0.48793 1.0043-1.09"/><path d="m95.224 276.71c-0.04904 0-0.08888 0.53528-0.08888 1.1954 0 0.66103 0.03984 1.1963 0.08888 1.1963 0.0487 0 0.08854-0.53524 0.08854-1.1963 0-0.66015-0.03984-1.1954-0.08854-1.1954"/><path d="m77.033 267.18c0-0.60211-0.44985-1.09-1.0043-1.09-0.55474 0-1.0046 0.48789-1.0046 1.09s0.44985 1.0904 1.0046 1.0904c0.5544 0 1.0043-0.48834 1.0043-1.0904"/><path d="m76.029 264.79c-0.04904 0-0.08854 0.53554-0.08854 1.1961 0 0.66018 0.0395 1.1954 0.08854 1.1954 0.0487 0 0.08854-0.53524 0.08854-1.1954 0-0.66059-0.03984-1.1961-0.08854-1.1961"/><path d="m69.301 270.47c0-0.60211-0.44985-1.09-1.0046-1.09s-1.0043 0.48793-1.0043 1.09c0 0.60255 0.44951 1.0904 1.0043 1.0904s1.0046-0.4879 1.0046-1.0904"/><path d="m68.297 268.08c-0.04904 0-0.08854 0.53598-0.08854 1.1961 0 0.66059 0.0395 1.1954 0.08854 1.1954s0.08888-0.53484 0.08888-1.1954c0-0.66014-0.03984-1.1961-0.08888-1.1961"/><path d="m87.04 272.87c0-0.60211-0.44985-1.0904-1.0046-1.0904-0.55474 0-1.0046 0.48833-1.0046 1.0904 0 0.60212 0.44985 1.0902 1.0046 1.0902 0.55474 0 1.0046-0.48803 1.0046-1.0902"/><path d="m86.035 270.47c-0.04904 0-0.08854 0.53569-0.08854 1.1958 0 0.66088 0.0395 1.1962 0.08854 1.1962s0.08854-0.53528 0.08854-1.1962c0-0.66014-0.0395-1.1958-0.08854-1.1958"/><path d="m71.915 293.86c0-0.60215-0.44985-1.0908-1.0046-1.0908-0.55474 0-1.0043 0.48867-1.0043 1.0908 0 0.60178 0.44951 1.0901 1.0043 1.0901 0.55474 0 1.0046-0.48829 1.0046-1.0901"/><path d="m70.91 291.47c-0.0487 0-0.08854 0.53528-0.08854 1.1954 0 0.66059 0.03984 1.1962 0.08854 1.1962 0.04904 0 0.08888-0.53561 0.08888-1.1962 0-0.66015-0.03984-1.1954-0.08888-1.1954"/><path d="m74.447 304.51c0-0.60178-0.44951-1.0901-1.0043-1.0901-0.55474 0-1.0046 0.4883-1.0046 1.0901 0 0.60215 0.44985 1.0904 1.0046 1.0904 0.55474 0 1.0043-0.4883 1.0043-1.0904"/><path d="m73.443 302.12c-0.04904 0-0.08888 0.53524-0.08888 1.1954 0 0.66055 0.03984 1.1958 0.08888 1.1958 0.0487 0 0.08854-0.53524 0.08854-1.1958 0-0.66019-0.03984-1.1954-0.08854-1.1954"/><path d="m50.097 303.31c0-0.60215-0.44985-1.0904-1.0046-1.0904-0.5544 0-1.0043 0.4883-1.0043 1.0904 0 0.60214 0.44985 1.0901 1.0043 1.0901 0.55474 0 1.0046-0.48793 1.0046-1.0901"/><path d="m49.092 300.92c-0.04904 0-0.08854 0.53561-0.08854 1.1958 0 0.66055 0.0395 1.1958 0.08854 1.1958s0.08888-0.53525 0.08888-1.1958c0-0.66018-0.03984-1.1958-0.08888-1.1958"/><path d="m96.485 313.18c0-0.60215-0.44985-1.0901-1.0043-1.0901-0.55508 0-1.0049 0.48793-1.0049 1.0901 0 0.60214 0.44985 1.0908 1.0049 1.0908 0.5544 0 1.0043-0.48867 1.0043-1.0908"/><path d="m95.481 310.79c-0.04938 0-0.08888 0.53524-0.08888 1.1958 0 0.66018 0.0395 1.1954 0.08888 1.1954 0.0487 0 0.0882-0.53525 0.0882-1.1954 0-0.66055-0.0395-1.1958-0.0882-1.1958"/><path d="m93.79 329.49c0-0.60215-0.44951-1.0901-1.0043-1.0901s-1.0046 0.48793-1.0046 1.0901c0 0.60252 0.44985 1.0908 1.0046 1.0908s1.0043-0.4883 1.0043-1.0908"/><path d="m92.785 327.1c-0.04904 0-0.08888 0.53561-0.08888 1.1958 0 0.66055 0.03984 1.1954 0.08888 1.1954 0.0487 0 0.08854-0.53487 0.08854-1.1954 0-0.66019-0.03984-1.1958-0.08854-1.1958"/><path d="m73.449 343.91c0-0.60252-0.44951-1.0904-1.0043-1.0904-0.55474 0-1.0046 0.48793-1.0046 1.0904 0 0.60214 0.44985 1.0901 1.0046 1.0901 0.55474 0 1.0043-0.48793 1.0043-1.0901"/><path d="m72.445 341.51c-0.04904 0-0.08888 0.53524-0.08888 1.1958s0.03984 1.1958 0.08888 1.1958c0.0487 0 0.08854-0.53525 0.08854-1.1958s-0.03984-1.1958-0.08854-1.1958"/><path d="m54.246 323.34c0-0.60215-0.44985-1.0901-1.0043-1.0901-0.55474 0-1.0046 0.48793-1.0046 1.0901s0.44985 1.0901 1.0046 1.0901c0.5544 0 1.0043-0.48792 1.0043-1.0901"/><path d="m53.242 320.95c-0.04938 0-0.08888 0.53524-0.08888 1.1954 0 0.66093 0.0395 1.1962 0.08888 1.1962 0.0487 0 0.08854-0.53524 0.08854-1.1962 0-0.66018-0.03984-1.1954-0.08854-1.1954"/><path d="m66.047 351.69c0-0.60214-0.44951-1.0901-1.0043-1.0901-0.55474 0-1.0043 0.48793-1.0043 1.0901 0 0.60215 0.44951 1.0904 1.0043 1.0904 0.55474 0 1.0043-0.4883 1.0043-1.0904"/><path d="m65.042 349.3c-0.04904 0-0.08854 0.53561-0.08854 1.1958 0 0.66055 0.0395 1.1958 0.08854 1.1958s0.08854-0.53524 0.08854-1.1958c0-0.66018-0.0395-1.1958-0.08854-1.1958"/><path d="m86.532 354.08c0-0.60215-0.44951-1.0901-1.0043-1.0901s-1.0043 0.48792-1.0043 1.0901 0.44951 1.0904 1.0043 1.0904 1.0043-0.4883 1.0043-1.0904"/><path d="m85.528 351.69c-0.0487 0-0.08888 0.53562-0.08888 1.1958 0 0.66055 0.04018 1.1958 0.08888 1.1958 0.04904 0 0.08854-0.53524 0.08854-1.1958 0-0.66018-0.0395-1.1958-0.08854-1.1958"/><path d="m92.194 355.09c0-0.60215-0.44985-1.0904-1.0046-1.0904-0.55474 0-1.0043 0.4883-1.0043 1.0904 0 0.60178 0.44951 1.0901 1.0043 1.0901 0.55474 0 1.0046-0.4883 1.0046-1.0901"/><path d="m91.189 352.69c-0.0487 0-0.08854 0.53561-0.08854 1.1958 0 0.66018 0.03984 1.1958 0.08854 1.1958 0.04938 0 0.08888-0.53561 0.08888-1.1958 0-0.66019-0.0395-1.1958-0.08888-1.1958"/><path d="m89.918 363.13c0-0.60215-0.44985-1.0904-1.0046-1.0904-0.5544 0-1.0043 0.4883-1.0043 1.0904 0 0.60214 0.44985 1.0901 1.0043 1.0901 0.55474 0 1.0046-0.48793 1.0046-1.0901"/><path d="m88.913 360.74c-0.0487 0-0.08854 0.53524-0.08854 1.1958s0.03984 1.1958 0.08854 1.1958c0.04904 0 0.08854-0.53525 0.08854-1.1958s-0.0395-1.1958-0.08854-1.1958"/><path d="m58.376 344.6c0-0.60215-0.44985-1.0904-1.0046-1.0904-0.55474 0-1.0043 0.4883-1.0043 1.0904 0 0.60214 0.44951 1.0901 1.0043 1.0901 0.55474 0 1.0046-0.48793 1.0046-1.0901"/><path d="m57.371 342.21c-0.04904 0-0.08854 0.53524-0.08854 1.1958s0.0395 1.1958 0.08854 1.1958 0.08888-0.53525 0.08888-1.1958-0.03984-1.1958-0.08888-1.1958"/><path d="m81.723 354.91c0-0.60214-0.44985-1.0904-1.0046-1.0904s-1.0043 0.4883-1.0043 1.0904c0 0.60215 0.44951 1.0901 1.0043 1.0901s1.0046-0.48793 1.0046-1.0901"/><path d="m80.718 352.52c-0.04904 0-0.08854 0.53561-0.08854 1.1958 0 0.66055 0.0395 1.1958 0.08854 1.1958 0.04938 0 0.08888-0.53524 0.08888-1.1958 0-0.66018-0.0395-1.1958-0.08888-1.1958"/><path d="m53.516 379.48c0-0.60177-0.44951-1.0901-1.0043-1.0901-0.55474 0-1.0046 0.4883-1.0046 1.0901 0 0.60215 0.44985 1.0904 1.0046 1.0904 0.55474 0 1.0043-0.4883 1.0043-1.0904"/><path d="m52.511 377.08c-0.04904 0-0.08854 0.53524-0.08854 1.1958 0 0.66018 0.0395 1.1954 0.08854 1.1954s0.08854-0.53524 0.08854-1.1954c0-0.66055-0.0395-1.1958-0.08854-1.1958"/><path d="m65.042 373.5c0-0.60215-0.44951-1.0901-1.0043-1.0901s-1.0046 0.48793-1.0046 1.0901 0.44985 1.0904 1.0046 1.0904 1.0043-0.48829 1.0043-1.0904"/><path d="m64.038 371.11c-0.04904 0-0.08888 0.53524-0.08888 1.1954 0 0.66055 0.03984 1.1958 0.08888 1.1958 0.0487 0 0.08854-0.53525 0.08854-1.1958 0-0.66018-0.03984-1.1954-0.08854-1.1954"/><path d="m46.721 354.65c0-0.60215-0.44985-1.0901-1.0046-1.0901s-1.0043 0.48793-1.0043 1.0901c0 0.60214 0.44951 1.0904 1.0043 1.0904s1.0046-0.4883 1.0046-1.0904"/><path d="m45.717 352.25c-0.04904 0-0.08854 0.53561-0.08854 1.1958 0 0.66055 0.0395 1.1958 0.08854 1.1958s0.08888-0.53525 0.08888-1.1958c0-0.66018-0.03984-1.1958-0.08888-1.1958"/><path d="m47.726 372.41c0-0.60215-0.44985-1.0904-1.0043-1.0904-0.55474 0-1.0046 0.48829-1.0046 1.0904s0.44985 1.0901 1.0046 1.0901c0.5544 0 1.0043-0.48793 1.0043-1.0901"/><path d="m46.721 370.02c-0.04904 0-0.08888 0.53525-0.08888 1.1958s0.03984 1.1958 0.08888 1.1958 0.08854-0.53524 0.08854-1.1958-0.0395-1.1958-0.08854-1.1958"/></g><path d="m90.958 321.57 8.2802 4.7647-0.03371-8.592z" fill="#e7e8e5"/><path d="m56.561 291.1-18.145-10.166v18.966l2.0116 0.97474 16.134-9.7748" fill="#e7e8e5"/><path d="m83.661 280.93c0-0.69393-0.5183-1.256-1.1575-1.256-0.63954 0-1.1575 0.56211-1.1575 1.256 0 0.69408 0.51796 1.2566 1.1575 1.2566 0.6392 0 1.1575-0.56256 1.1575-1.2566" fill="#f03d5f"/><path d="m94.255 370.64 5.7793-1.9059v-9.8861z" fill="#e7e8e5"/><path d="m100.09 383.84-0.0358 10.787c-0.47301 3.7862-3.4463 6.7153-7.0669 6.7338l-9.1166 0.0458c-1.2225 6e-3 -2.2183-1.1141-2.2234-2.501l-0.0075-1.795c-0.0051-1.3876-1.0008-2.5073-2.223-2.501l-17.771 0.0891c-1.2222 6e-3 -2.2091 1.1359-2.204 2.5232l0.0072 1.795c0.0054 1.3873-0.98144 2.5169-2.204 2.5232l-3.2065 0.0163-7.9795 0.0399c-1.8737 9e-3 -3.5774-0.76886-4.8605-2.0393-0.80061-1.6708-1.6731-4.0483-1.2729-5.8736l60.12-21.243 0.0443 11.399" fill="#f03d5f"/><path d="m100 372.46-60.075 21.227c-0.06981 0.31752-0.1008 0.65131-0.10046 0.99545 0.0014 1.564 0.65179 3.3368 1.2869 4.6959 0.61808 0.63874 1.3329 1.1548 2.1011 1.52 0.9484 0.45983 1.9762 0.6332 2.9906 0.6332 0.04836 0 0.09705-3.7e-4 0.14575-1e-3 2.1359-9e-3 4.2213-0.0188 6.2533-0.0277 1.0162-4e-3 2.0191-9e-3 3.0083-0.0133 0.4948-3e-3 0.9862-4e-3 1.4742-7e-3 0.03473 1e-3 0.06913 2e-3 0.10352 2e-3 0.44679 0 0.87928-0.13935 1.2382-0.41141 0.38345-0.29276 0.67904-0.71452 0.8299-1.1902 0.17402-0.47351 0.13077-0.98732 0.13485-1.4948-1e-3 -0.25358-0.0017-0.50642-0.0024-0.75814 0-0.24988-0.0099-0.50309 0.02111-0.75851 0.05857-0.50641 0.25472-0.99138 0.55917-1.3703 0.299-0.38443 0.70969-0.66093 1.1524-0.78106 0.19922-0.0558 0.41001-0.0754 0.61093-0.0754 0.02077 0 0.04154 3.7e-4 0.06198 7.4e-4 0.22135-1e-3 0.44168-2e-3 0.66099-3e-3 0.87791-4e-3 1.7408-7e-3 2.5895-0.0111 3.3938-0.014 6.5523-0.0274 9.4595-0.0396 1.4534-6e-3 2.8442-0.0115 4.1706-0.0166 0.03882 7.4e-4 0.0773 7.4e-4 0.11578 7.4e-4 0.07901 0 0.15733-1e-3 0.23565-2e-3 0.07832-1e-3 0.15631-2e-3 0.23429-2e-3 0.13281 0 0.26596 3e-3 0.40014 0.0155 0.32726 0.0395 0.64056 0.16153 0.91197 0.34562 0.54691 0.36816 0.91639 0.97733 1.0427 1.6194 0.06811 0.3227 0.05687 0.64983 0.05891 0.96218 1e-3 0.31494 2e-3 0.62581 0.0027 0.9315 0.0041 0.30643-0.01226 0.60843 0.03848 0.89601 0.04563 0.28796 0.13656 0.56297 0.26392 0.81063 0.252 0.49828 0.66065 0.87421 1.1146 1.0668 0.29797 0.1412 0.61025 0.16153 0.91912 0.16153 0.06334 0 0.12668-7.4e-4 0.18968-2e-3 0.063-7.3e-4 0.12566-1e-3 0.18764-1e-3 0.03576 0 0.07117 3.7e-4 0.10625 1e-3 1.8389-6e-3 3.3952-0.0103 4.6535-0.0144 1.2566-2e-3 2.2152-4e-3 2.8616-4e-3 0.64464 0 0.97497 5e-3 0.97497 5e-3 0.17231-7.4e-4 0.34292-9e-3 0.51183-0.0222-0.10455 4e-3 -0.19377 4e-3 -0.26596 0.0126-0.16346 8e-3 -0.24587 0.01-0.24587 0.01s0.08241-8e-3 0.24519-0.0196c0.1621-0.0211 0.40831-5e-3 0.72467-0.0747 0.63306-0.0906 1.5941-0.32492 2.6705-1.0354 0.5435-0.3397 1.0952-0.82615 1.6159-1.4457 0.51864-0.62063 0.9988-1.3947 1.3404-2.3191 0.23838-0.63431 0.39945-1.3396 0.4713-2.0911l0.0187-5.6814c-0.0211-4.5891-0.0456-10.03-0.0739-16.237" fill="#f9b2c4"/><path d="m92.99 401.36s0.08241-2e-3 0.24587-0.01c0.16176-0.0178 0.40899 2e-3 0.72671-0.0651 0.63545-0.0847 1.6016-0.31346 2.6858-1.0217 0.54827-0.33859 1.1044-0.82504 1.6305-1.4468 0.52409-0.62248 1.01-1.3998 1.3567-2.3299 0.3511-0.92707 0.53874-2.0086 0.52444-3.1619-3e-3 -1.15-7e-3 -2.3742-0.0102-3.6709-0.0337-10.376-0.0828-25.386-0.14269-43.934-0.06708-18.549-0.14677-40.636-0.23497-65.16-0.01158-3.0654-0.02282-6.169-0.03473-9.3088-0.0027-0.78509-0.0058-1.572-0.0089-2.3612-0.0109-0.79071-0.06096-1.6023-0.28333-2.3709-0.20909-0.76801-0.50502-1.517-0.92286-2.1868-0.4158-0.66968-0.92082-1.2741-1.4984-1.7905-1.1684-1.0091-2.63-1.6501-4.1423-1.7245-0.37936-0.027-0.75225-0.0214-1.1265-0.0188l-1.1245 6e-3c-0.75055 4e-3 -1.5031 7e-3 -2.2571 0.0111-3.0172 0.0148-6.063 0.0296-9.1367 0.0448-6.1461 0.0304-12.402 0.061-18.75 0.0924-3.1742 0.0155-6.3712 0.0313-9.59 0.0476-1.6091 8e-3 -3.2239 0.0159-4.8432 0.0244-1.6254-0.0832-3.3063 0.38927-4.66 1.4179-1.3594 1.0217-2.3599 2.562-2.8231 4.2686-0.24928 0.85092-0.29252 1.757-0.28946 2.6316 0.0037 0.87702 0.0072 1.752 0.01056 2.6255 0.01362 3.495 0.02724 6.9668 0.04087 10.413 0.02724 6.8924 0.05415 13.684 0.08071 20.358 0.05347 13.347 0.10557 26.221 0.15495 38.485 0.05074 12.264 0.09876 23.918 0.14371 34.824 0.02282 5.4533 0.04529 10.72 0.06641 15.782 0.0031 0.63246 0.0054 1.2623 0.0082 1.8889 0.0051 0.31346 0.02724 0.63025 0.04393 0.94333 0.05142 0.30902 0.07458 0.62396 0.14984 0.92596 0.26664 1.2169 0.79005 2.3539 1.5192 3.2891 0.73454 0.92965 1.654 1.6652 2.6651 2.1443 1.01 0.48977 2.1182 0.65907 3.1878 0.64022 2.1359-0.0122 4.221-0.0237 6.2533-0.0347 1.0162-6e-3 2.0187-0.0115 3.0083-0.0166 0.4948-3e-3 0.98586-6e-3 1.4739-9e-3 0.49242 0.0244 1.0029-0.1242 1.4061-0.43285 0.40286-0.30865 0.71207-0.75185 0.87008-1.2505 0.18151-0.49902 0.13588-1.0372 0.13962-1.5359-0.0014-0.25358-0.0024-0.50604-0.0034-0.75777-3.41e-4 -0.25284-0.0099-0.50309 0.01975-0.74335 0.05517-0.48387 0.24178-0.94777 0.53226-1.31 0.28503-0.36779 0.67631-0.63135 1.0976-0.74631 0.2125-0.0588 0.42499-0.0761 0.64805-0.0721 0.22135-1e-3 0.44168-3e-3 0.66099-4e-3 0.87757-5e-3 1.7408-0.01 2.5891-0.0148 3.3938-0.02 6.5523-0.0381 9.4595-0.0551 1.4534-9e-3 2.8445-0.0174 4.1706-0.0251 0.11646 1e-3 0.23327-3.7e-4 0.34974-2e-3 0.21318-4e-3 0.42465-7e-3 0.62796 0.0115 0.31602 0.0377 0.61842 0.15488 0.88166 0.33194 0.52886 0.35449 0.88949 0.94481 1.0131 1.5684 0.06709 0.31198 0.05653 0.63025 0.0596 0.94629 0.0017 0.31494 0.0034 0.62544 0.0051 0.9315 0.0044 0.30422-0.01158 0.60954 0.04086 0.9071 0.04768 0.29609 0.14166 0.57812 0.27311 0.83133 0.25983 0.51085 0.6804 0.89527 1.1469 1.0923 0.37085 0.17337 0.75975 0.16671 1.1296 0.16043 0.09978-1e-3 0.19785-3e-3 0.29389-1e-3 1.8393-0.0133 3.3952-0.024 4.6535-0.0329 1.2569-0.0104 2.2152-0.0181 2.8619-0.0237 0.6443-7e-3 0.97463-0.0148 0.97463-0.0148s-0.33032-5e-3 -0.97497-5e-3c-0.64635 7.4e-4 -1.605 3e-3 -2.8616 4e-3 -1.2583 4e-3 -2.8146 9e-3 -4.6535 0.0144-0.09671-2e-3 -0.19479-7.3e-4 -0.29389 3.7e-4 -0.36915 5e-3 -0.74987 0.0103-1.1088-0.15968-0.45394-0.19258-0.86259-0.56851-1.1146-1.0668-0.12736-0.24766-0.21829-0.52267-0.26392-0.81063-0.05074-0.28758-0.03439-0.58958-0.03848-0.89601-6.81e-4 -0.30569-0.0017-0.61656-0.0027-0.9315-2e-3 -0.31235 0.0092-0.63948-0.05891-0.96218-0.12634-0.64207-0.49583-1.2512-1.0427-1.6194-0.27141-0.18409-0.58471-0.30607-0.91197-0.34562-0.21318-0.0192-0.42295-0.0163-0.63443-0.0133-0.11646 2e-3 -0.23327 3e-3 -0.35144 1e-3 -1.3264 5e-3 -2.7172 0.0111-4.1706 0.0166-2.9072 0.0122-6.0657 0.0255-9.4595 0.0396-0.84863 4e-3 -1.7116 7e-3 -2.5895 0.0111-0.21931 1e-3 -0.43964 2e-3 -0.66099 3e-3 -0.21897-4e-3 -0.45292 0.0133-0.67291 0.0747-0.4427 0.12013-0.85339 0.39663-1.1524 0.78106-0.30444 0.37888-0.50059 0.86385-0.55917 1.3703-0.03099 0.25542-0.02111 0.50863-0.02111 0.75851 6.82e-4 0.25172 0.0014 0.50456 0.0024 0.75814-0.0041 0.50751 0.03916 1.0213-0.13485 1.4948-0.15086 0.47573-0.44645 0.89749-0.8299 1.1902-0.38685 0.29276-0.8585 0.43248-1.3417 0.40919-0.48799 2e-3 -0.97939 4e-3 -1.4742 7e-3 -0.98927 4e-3 -1.9922 9e-3 -3.0083 0.0133-2.032 9e-3 -4.1175 0.0185-6.2533 0.0277-1.0611 0.0174-2.1423-0.14971-3.1364-0.63172-0.99233-0.47167-1.8951-1.1951-2.6157-2.1084-0.71514-0.91893-1.2276-2.0356-1.4885-3.2299-0.07356-0.29645-0.09569-0.60548-0.14677-0.90895-0.01566-0.30828-0.03746-0.61583-0.04223-0.92818-0.0024-0.62654-0.0044-1.256-0.0068-1.8889-0.01805-5.0623-0.03678-10.329-0.05619-15.782-0.04018-10.907-0.08275-22.561-0.12736-34.825-0.04631-12.264-0.09467-25.138-0.14473-38.485-0.02554-6.6732-0.05176-13.465-0.07798-20.358-0.01328-3.4465-0.0269-6.9182-0.04018-10.413-0.0034-0.87343-0.0068-1.7484-0.01022-2.6252-0.0027-0.87313 0.03882-1.7432 0.28231-2.5775 0.4519-1.6641 1.4279-3.1675 2.7543-4.164 1.3267-1.0036 2.9464-1.4646 4.5592-1.384 1.6196-8e-3 3.2341-0.0163 4.8435-0.0244 3.2184-0.0163 6.4158-0.0322 9.59-0.0484 6.348-0.0322 12.603-0.064 18.75-0.0954 3.0734-0.0159 6.1195-0.0314 9.1364-0.0469 0.75396-4e-3 1.5066-8e-3 2.2571-0.0114l1.1245-6e-3c0.3746-3e-3 0.74919-8e-3 1.116 0.018 1.4773 0.0718 2.9041 0.69756 4.0456 1.6826 0.56428 0.50419 1.0581 1.0949 1.4643 1.7484 0.40831 0.65426 0.69743 1.3854 0.90209 2.1359 0.2176 0.75255 0.26596 1.538 0.27754 2.3216 0.0031 0.78955 0.0065 1.5762 0.0095 2.3612 0.0126 3.1398 0.02554 6.2433 0.0378 9.3088 0.1025 24.524 0.19513 46.61 0.27277 65.16 0.08445 18.548 0.15222 33.559 0.19921 43.934 6e-3 1.2967 0.0126 2.521 0.0184 3.6709 0.017 1.1474-0.16618 2.2179-0.51251 3.1401-0.34156 0.92448-0.82172 1.6985-1.3404 2.3191-0.52069 0.61952-1.0724 1.106-1.6159 1.4457-1.0764 0.71045-2.0375 0.94481-2.6705 1.0354-0.31636 0.0699-0.56257 0.0536-0.72467 0.0747-0.16278 0.0115-0.24519 0.0196-0.24519 0.0196" fill="#17282f"/><path d="m114.29 327.92c5.0438-0.13788 10.142-0.28389 15.019-1.6859 4.8769-1.4021 9.5859-4.2002 12.479-8.6859 3.1861-4.9395 3.8188-11.254 4.1382-17.273 0.52954-9.9841 0.46892-20.015-0.43385-29.968-0.45701-5.0444-2.1042-9.7287-6.4263-11.65-5.198-2.3103-12.181 0-12.181 0l-12.594 69.263" fill="#17282f"/><path d="m127.81 259.86s0.0647 7e-3 0.19104 0.01c0.13315 2e-3 0.31977 5e-3 0.56087 0.01 0.50026 4e-3 1.2256 0.01 2.1563 0.0178 0.93649 7e-3 2.0834-6e-3 3.3976 0.19377 0.32692 0.0583 0.66848 0.1005 1.0121 0.19506 0.17266 0.0414 0.34838 0.0836 0.52614 0.12649 0.1764 0.0505 0.35246 0.11193 0.53294 0.16852 0.36404 0.1028 0.71922 0.26914 1.0911 0.41655 0.35791 0.18223 0.73523 0.35046 1.0897 0.5874 0.72059 0.44575 1.4272 1.0187 2.0249 1.7577 0.5973 0.73551 1.0795 1.6408 1.3336 2.66 0.48493 2.0625 0.68892 4.3448 0.76486 6.7396 0.0695 2.3979 0.045 4.9217 0.0647 7.5362 0.0109 2.6149 0.0221 5.3218 0.0337 8.0941 0.0112 2.7738 0.0375 5.4814-0.0453 8.0926-0.0841 2.6097-0.27243 5.1262-0.65077 7.489-0.73557 4.7277-2.2602 8.8282-4.2268 11.762-0.97905 1.4679-2.0497 2.6389-3.0111 3.6314-0.96918 0.98584-1.8416 1.792-2.5571 2.4463-0.71445 0.64761-1.2712 1.1518-1.655 1.5-0.18389 0.1693-0.32624 0.30015-0.42806 0.3933-0.0953 0.0898-0.14167 0.13936-0.14167 0.13936s0.0541-0.0392 0.15359-0.1242c0.10386-0.0898 0.24995-0.21588 0.43895-0.37852 0.38856-0.34155 0.95284-0.83687 1.6765-1.4723 0.72296-0.64613 1.6026-1.4446 2.581-2.4256 0.96986-0.98769 2.0514-2.1554 3.0448-3.6299 1.9928-2.9427 3.5386-7.0642 4.286-11.811 0.38447-2.3727 0.57654-4.8974 0.66304-7.513 0.0851-2.6167 0.0603-5.3265 0.0494-8.0995-0.0126-2.7728-0.0252-5.4797-0.0378-8.0942-0.0218-2.6148-6.8e-4 -5.1366-0.0746-7.5417-0.0814-2.4027-0.29048-4.6935-0.78631-6.7748-0.26358-1.0447-0.76077-1.9691-1.3727-2.7166-0.61263-0.75141-1.3332-1.3298-2.0661-1.7779-0.36029-0.23838-0.74238-0.40705-1.1061-0.58855-0.3763-0.14715-0.73625-0.31305-1.104-0.41425-0.18218-0.0559-0.36029-0.11652-0.53873-0.16634-0.17947-0.0422-0.35655-0.0836-0.53056-0.12461-0.34701-0.0924-0.69096-0.13241-1.0203-0.18859-1.3237-0.19074-2.4771-0.16664-3.4115-0.16187-0.93069 8e-3 -1.656 0.0137-2.1563 0.0181-0.2411 4e-3 -0.42772 7e-3 -0.56087 0.01-0.12634 3e-3 -0.19104 0.01-0.19104 0.01" fill="#33535f"/><path d="m142.67 286.94c-0.0119 0.0477 0.7703 0.29542 1.7681 0.34425 0.99846 0.0531 1.7987-0.11352 1.7906-0.16201-6e-3 -0.0565-0.80231 0.0225-1.782-0.0306-0.97939-0.0473-1.7654-0.20707-1.7766-0.15163" fill="#33535f"/><path d="m120.88 327.63c0 3e-3 0.0443 5e-3 0.13111 4e-3 0.095-2e-3 0.22237-4e-3 0.38413-8e-3 0.33747-0.0144 0.83739-0.0126 1.4779-0.0606 1.2753-0.14232 3.1343-0.4092 5.3121-1.2305 0.26971-0.10831 0.54589-0.21957 0.8282-0.33305 0.14098-0.0573 0.28367-0.11533 0.42772-0.17336 0.13996-0.0691 0.28162-0.13862 0.42431-0.20922 0.28605-0.14047 0.5779-0.28426 0.87485-0.43064 0.29831-0.14416 0.58368-0.3312 0.88404-0.49975 1.199-0.68014 2.4114-1.5473 3.6111-2.5609 1.2001-1.0136 2.3848-2.189 3.4728-3.546 1.0908-1.3518 2.0671-2.9113 2.8098-4.6401 1.5181-3.4554 2.1778-7.0728 2.5135-10.341 0.32147-3.2828 0.33509-6.2558 0.35246-8.7446 9e-3 -2.4907 0.015-4.5055 0.047-5.8969 0.018-0.68757 0.0317-1.2253 0.0416-1.6027 4e-3 -0.17558 8e-3 -0.31349 0.0102-0.41699 1e-3 -0.0939 3.4e-4 -0.14224-2e-3 -0.14224-3e-3 -4.5e-4 -9e-3 0.0477-0.0157 0.14105-7e-3 0.10325-0.016 0.24116-0.0279 0.4163-0.0238 0.36587-0.0494 0.90606-0.0746 1.602-0.0531 1.3921-0.0793 3.4085-0.10352 5.898-0.0334 2.4881-0.0606 5.4574-0.38958 8.7265-0.34326 3.2558-1.0053 6.851-2.5108 10.277-0.73795 1.7174-1.7 3.2554-2.7809 4.5998-1.0782 1.3485-2.2534 2.5191-3.4429 3.5301-1.1895 1.0113-2.3913 1.8782-3.5801 2.5601-0.29797 0.16893-0.58096 0.35671-0.87655 0.50161-0.29491 0.14749-0.58403 0.29165-0.8677 0.43322-0.14166 0.0713-0.28231 0.1412-0.42091 0.2107-0.14302 0.0591-0.28435 0.11754-0.42431 0.17521-0.27958 0.11496-0.55372 0.22733-0.82104 0.33711-2.1604 0.83318-4.0082 1.12-5.277 1.2845-0.63749 0.0591-1.136 0.0695-1.4725 0.0965-0.16176 0.0115-0.28878 0.02-0.38379 0.027-0.0865 7e-3 -0.13077 0.0122-0.13077 0.0155" fill="#dadbd8"/><path d="m117.72 327.65s1.2375 3.5449 5.6404 2.8736c0 0 1.9625 0.11717 2.3177-1.0664 0 0-4.1011 1.106-5.8478-1.975l-2.1103 0.16782" fill="#17282f"/><path d="m130.27 323.33h-2.5789s-0.50025 7.4043-6.7526 7.1171c0 0 7.7718 2.8237 9.3315-7.1171" fill="#33535f"/><path d="m142.71 282.43 3.6966-0.55809-0.36813-1.4264-3.4517 0.28865 0.12327 1.6959" fill="#33535f"/><path d="m142.93 281.13c-0.0225 0.0193 0.14711 0.298 0.43249 0.7208l0.0514 0.0765 0.0579-0.0765c0.16448-0.21661 0.33611-0.44316 0.51626-0.68081l-0.11919 0.0173c0.11987 0.0962 0.2428 0.19525 0.36983 0.29716 0.1311 0.10324 0.25779 0.20304 0.38174 0.30063l0.0708 0.0557 0.0497-0.0754c0.16551-0.25328 0.32284-0.49355 0.47404-0.72413l-0.0957 0.0159c0.39401 0.28533 0.65146 0.45237 0.6678 0.42812 0.016-0.0244-0.21215-0.23549-0.58709-0.54969l-0.0528-0.0441-0.0429 0.0602c-0.15971 0.22338-0.32658 0.45658-0.50196 0.70162l0.12021-0.0195c-0.12293-0.0987-0.24893-0.20038-0.37902-0.30466-0.1277-0.1005-0.25166-0.19809-0.37255-0.29309l-0.0688-0.0543-0.0501 0.0716c-0.17061 0.24593-0.33373 0.48024-0.48969 0.70391l0.10931 3e-4c-0.31057-0.40139-0.52001-0.64643-0.5418-0.62765" fill="#f03d5f"/><path d="m88.957 256.01s-0.7165 2.5276-0.57279 3.5974c0.14337 1.0694 1.4684 2.0416 1.4684 2.0416l-1.4367 40.534s-0.18628 17.728 8.458 23.239l5.1592 1.4109 12.726 0.81765c0.41172-0.14896 15.367-6.2551 17.425-8.6382l-6.4488-35.744s0.78359-10.562 1.5662-18.152c0.16005-1.5506 1.2314-9.216 1.2314-9.216l-39.577 0.11017" fill="#f03d5f"/><path d="m127.06 267.5v1e-3l3.4e-4 -4.4e-4s0-3e-4 -3.4e-4 -7e-4" fill="#0f191d"/><path d="m124.44 264.81c-0.47982 0-0.96407 0.0677-1.4364 0.15898-3.1895 0.61653-6.1253 2.2434-9.007 3.8499-5.386 3.0029-10.821 6.0411-15.471 10.251-0.6535 0.59187-1.3519 1.5155-0.95181 2.3306 0.2159 0.43999 0.61808 0.60038 1.0747 0.60038 0.50264 0 1.0717-0.19447 1.5311-0.42435 9.1336-4.571 17.748-9.5024 26.882-14.073-3.4e-4 4.4e-4 -3.4e-4 -7e-4 -3.4e-4 -7e-4 -0.12021-0.98547-0.46518-2.186-1.337-2.4911-0.41546-0.14553-0.84795-0.20142-1.2842-0.20142" fill="#ba2c42"/><path d="m94.942 324.31s-5.6966-2.0633-7.5385-7.7917c-2.0354-6.3298-3.386-18.617-3.386-18.617l5.6288-0.76775 5.2957 27.176" fill="#f03d5f"/><path d="m132.18 319.01s3.056-4.3614 4.5425-9.6625c1.4861-5.301 2.3354-20.662 2.3354-20.662l-15.323 0.23132-0.81457 13.516s-1.5467 22.552 9.2596 16.577" fill="#f03d5f"/><g fill="#fafaf9"><path d="m86.028 311s0.11102 0.18778 0.42295 0.43396c0.30512 0.23842 0.88268 0.49126 1.6125 0.33564 0.74272-0.11939 1.4633-0.75185 2.4134-1.1452 0.46995-0.19702 1.0199-0.34932 1.5787-0.21255 0.56053 0.1327 1.0465 0.56814 1.5583 0.99138 0.25881 0.21107 0.5309 0.4299 0.85271 0.58034 0.3167 0.15488 0.70969 0.20552 1.0584 0.0495 0.35586-0.14158 0.61944-0.46612 0.82343-0.79732 0.21079-0.33453 0.38106-0.69715 0.60242-1.0228 0.21624-0.32639 0.50162-0.60954 0.86429-0.72523 0.35723-0.12827 0.75872-0.098 1.1388 0.01 0.38311 0.10682 0.75464 0.29349 1.1085 0.51897 0.3528 0.22549 0.69504 0.50161 1.0611 0.74668 0.36403 0.24803 0.75293 0.48091 1.1844 0.62507 0.42909 0.13787 0.91436 0.17151 1.3571 3e-3 0.4444-0.15747 0.83058-0.45577 1.179-0.78069 0.35178-0.32381 0.67904-0.67792 1.0404-0.98362 0.35825-0.30643 0.76009-0.57147 1.2127-0.64503 0.44611-0.095 0.91878-0.0274 1.3584 0.1523 0.88643 0.36151 1.6676 1.0143 2.538 1.5359 0.43691 0.25653 0.89051 0.49976 1.387 0.6003 0.49174 0.10202 1.0134 0.0673 1.4766-0.12568 0.92866-0.39293 1.6166-1.1548 2.4407-1.581 0.20364-0.112 0.41784-0.18889 0.63408-0.24581 0.21761-0.0495 0.44032-0.0584 0.65997-0.0455 0.44202 0.0329 0.86804 0.1937 1.2692 0.39441 0.80708 0.39589 1.5372 0.94998 2.3698 1.2476 0.41308 0.14748 0.85919 0.21513 1.2869 0.12494 0.43112-0.0795 0.8081-0.33638 1.12-0.62137 0.62523-0.56704 1.117-1.2864 1.8318-1.5277 0.34905-0.12013 0.72058-0.11052 1.0727-0.0333 0.35348 0.0761 0.6913 0.20774 1.0244 0.33305 0.65724 0.24988 1.3458 0.509 2.0129 0.34451 0.33101-0.071 0.61774-0.25949 0.86497-0.46353 0.24758-0.20737 0.46484-0.43396 0.68211-0.64133 0.21658-0.20922 0.43793-0.39589 0.67393-0.53524 0.23599-0.13825 0.48901-0.21883 0.73795-0.25875 0.50059-0.078 0.97939 8e-3 1.3908 0.15451 0.41444 0.14748 0.7635 0.36557 1.0594 0.58625 0.59015 0.44838 0.98245 0.89047 1.2546 1.1784 0.12974 0.1412 0.23122 0.25099 0.3058 0.33231 0.0695 0.0747 0.10625 0.112 0.10829 0.10978 2e-3 -3e-3 -0.03-0.044-0.095-0.12309-0.0719-0.0843-0.16891-0.19924-0.29354-0.34598-0.26426-0.29683-0.64941-0.74927-1.2406-1.2128-0.29627-0.22807-0.64941-0.45577-1.072-0.61176-0.41955-0.15525-0.91061-0.24988-1.4316-0.1741-0.25916 0.0388-0.52478 0.1205-0.77405 0.26318-0.24792 0.14379-0.47778 0.33527-0.69777 0.54486-0.4393 0.40513-0.87655 0.92595-1.5004 1.0646-0.61979 0.15044-1.2832-0.0961-1.9401-0.3519-0.33237-0.12716-0.67461-0.26282-1.042-0.34414-0.36506-0.0824-0.76486-0.0969-1.1449 0.0322-0.38175 0.12568-0.71037 0.38812-1.0073 0.67164-0.29763 0.28647-0.57211 0.60289-0.87961 0.8779-0.30445 0.27576-0.65282 0.50974-1.0509 0.58145-0.39435 0.0817-0.80981 0.0192-1.2059-0.12346-0.79924-0.2861-1.5277-0.83872-2.3504-1.2461-0.40967-0.20515-0.85373-0.37629-1.3267-0.41289-0.23463-0.0148-0.47506-5e-3 -0.70935 0.0481-0.23122 0.0602-0.45973 0.14268-0.67222 0.25912-0.85953 0.44763-1.5471 1.2039-2.4277 1.5717-0.43657 0.18038-0.91571 0.21106-1.3802 0.1168-0.46722-0.0943-0.90754-0.32898-1.3356-0.5807-0.85577-0.51085-1.6407-1.1699-2.5636-1.547-0.45837-0.18778-0.9685-0.26318-1.451-0.16005-0.49038 0.0821-0.9198 0.36853-1.2872 0.68383-0.73761 0.62544-1.3295 1.439-2.1641 1.7381-0.40865 0.15599-0.85135 0.12679-1.2576-2e-3 -0.40797-0.13455-0.78631-0.35819-1.1456-0.60178-0.36301-0.24101-0.70049-0.51307-1.0669-0.74594-0.36404-0.23066-0.74749-0.42213-1.1503-0.5334-0.39877-0.11126-0.8299-0.14453-1.2239-3e-3 -0.39877 0.12826-0.71445 0.448-0.93649 0.78808-0.22952 0.34081-0.39877 0.70564-0.6014 1.0306-0.19751 0.32418-0.43964 0.61841-0.75532 0.7452-0.31262 0.1412-0.65929 0.10017-0.95828-0.0421-0.30206-0.13862-0.56972-0.34968-0.82785-0.55779-0.51115-0.41585-1.0117-0.86386-1.6097-1.0021-0.5939-0.13936-1.1629 0.027-1.639 0.23176-0.96475 0.41252-1.6717 1.0472-2.3903 1.1718-0.709 0.16227-1.2723-0.0702-1.5794-0.29423-0.31296-0.2314-0.43385-0.41253-0.44304-0.40181"/><path d="m84.223 301.01c3.4e-4 3e-3 0.05108 0 0.15052-0.01 0.10727-0.0118 0.25336-0.0277 0.43998-0.0481 0.38719-0.0259 0.95964-0.20183 1.6755 0.0466 0.36097 0.0861 0.76656 0.1645 1.2089 0.24693 0.44134 0.0835 0.91844 0.20071 1.4432 0.26762 0.52205 0.0673 1.1068 0.0676 1.6843-0.1316 0.57858-0.18556 1.1401-0.50678 1.7592-0.73226 0.61638-0.23472 1.3141-0.26392 2.0044-0.0628 0.69436 0.17817 1.3754 0.52416 2.1127 0.80176 0.72535 0.28388 1.5665 0.5016 2.4005 0.25246 0.82479-0.25172 1.4888-0.91153 2.3157-1.1311 0.20501-0.0525 0.4158-0.068 0.6266-0.0477 0.21113 0.0255 0.42056 0.0865 0.62829 0.16339 0.41478 0.15672 0.81628 0.38553 1.2569 0.55113 0.43146 0.17373 0.94704 0.24729 1.4112 0.0521 0.46109-0.19221 0.81763-0.55668 1.1916-0.85905 0.18729-0.15192 0.38174-0.29201 0.5922-0.38812 0.20977-0.0972 0.43793-0.13751 0.66746-0.13677 0.46279 0.0188 0.91469 0.21809 1.3554 0.44024 0.44236 0.22068 0.89085 0.46871 1.3891 0.60511 0.25064 0.0577 0.51149 0.0943 0.77371 0.0573 0.26187-0.0325 0.51285-0.13196 0.74204-0.26207 0.46007-0.26356 0.84045-0.6295 1.2454-0.92891 0.20228-0.14971 0.41172-0.28315 0.63307-0.3763 0.11101-0.0451 0.22305-0.0869 0.33986-0.10387l0.17401-0.0329 0.17674-7e-3c0.4737-0.0126 0.94058 0.13751 1.3894 0.3153 0.45053 0.17743 0.89255 0.38554 1.3547 0.53599 0.45802 0.14896 0.95726 0.24248 1.435 0.11163 0.48424-0.112 0.87689-0.44949 1.2096-0.78882 0.3351-0.34377 0.63886-0.70676 0.99574-0.9766 0.35349-0.27242 0.77916-0.39773 1.1967-0.37001 0.42023 0.0285 0.82139 0.19702 1.1984 0.39478 0.378 0.19998 0.73761 0.43359 1.1006 0.65205 0.71616 0.43026 1.5032 0.82911 2.3164 0.72672 0.80572-0.10239 1.464-0.58663 2.0439-1.0394 0.58539-0.45762 1.1187-0.94222 1.7098-1.2431 0.58369-0.31271 1.1973-0.47388 1.7834-0.52637 0.58846-0.0388 1.1446 0.0251 1.6537 0.13899 1.0131 0.26614 1.8151 0.75407 2.3794 1.2597 0.56871 0.50826 0.89665 1.025 1.1081 1.3751 0.0964 0.18187 0.15972 0.3275 0.20875 0.42176 0.047 0.095 0.0725 0.14306 0.0756 0.14195 2e-3 -1e-3 -0.0174-0.0521-0.0592-0.15082-0.0436-0.0968-0.10216-0.24618-0.19445-0.43248-0.20262-0.35892-0.52545-0.88936-1.0945-1.4128-0.56462-0.5212-1.3734-1.0269-2.4012-1.3071-0.51694-0.12161-1.0826-0.19148-1.684-0.15636-0.59901 0.0484-1.229 0.20885-1.8311 0.526-0.61025 0.30681-1.1504 0.79436-1.7344 1.245-0.57789 0.44801-1.2218 0.90969-1.9796 1.0014-0.76076 0.0935-1.514-0.28499-2.2248-0.716-0.35995-0.21809-0.72024-0.45429-1.1068-0.65981-0.38481-0.2033-0.80334-0.38369-1.2576-0.41585-0.45156-0.0333-0.92491 0.1072-1.3019 0.39774-0.37902 0.2861-0.68755 0.65611-1.0168 0.99138-0.32794 0.33305-0.693 0.64133-1.1326 0.7415-0.43487 0.11903-0.90175 0.0344-1.3465-0.11126-0.44849-0.14564-0.88779-0.35338-1.3448-0.53376-0.45462-0.18002-0.94057-0.34044-1.4527-0.32788l-0.19105 8e-3 -0.18968 0.0359c-0.12702 0.0185-0.25063 0.0636-0.37016 0.11274-0.23974 0.10091-0.46076 0.24212-0.66883 0.39663-0.41648 0.30828-0.79379 0.66942-1.2276 0.91708-0.21591 0.12235-0.44475 0.21181-0.68108 0.24101-0.23668 0.0344-0.47676 3.7e-4 -0.71139-0.0529-0.46961-0.1279-0.90959-0.3689-1.3567-0.59254-0.4444-0.22215-0.91571-0.43507-1.4245-0.45577-0.25268-2e-3 -0.50842 0.0447-0.73931 0.15193-0.23157 0.10608-0.43657 0.25616-0.62932 0.41215-0.38243 0.31235-0.72978 0.6624-1.148 0.83502-0.4158 0.17521-0.87621 0.11496-1.2954-0.0514-0.42397-0.15747-0.82717-0.38628-1.2573-0.54818-0.21556-0.0791-0.43725-0.14379-0.6661-0.1704-0.22952-0.0222-0.46109-4e-3 -0.68074 0.0532-0.8837 0.24434-1.5406 0.906-2.3208 1.1407-0.78222 0.23731-1.59 0.0384-2.3099-0.24027-0.7291-0.2702-1.4163-0.61619-2.1291-0.7951-0.70458-0.20367-1.4466-0.16892-2.0756 0.078-0.63204 0.23509-1.1888 0.5589-1.7524 0.74372-0.56019 0.19813-1.1241 0.20293-1.6404 0.14231-0.5183-0.061-0.99574-0.17262-1.4401-0.25173-0.44441-0.0772-0.8476-0.14933-1.2093-0.22954-0.18117-0.0381-0.35008-0.0817-0.51456-0.10757-0.16584-0.0262-0.32283-0.0166-0.46484-3e-3 -0.28367 0.0318-0.52137 0.0706-0.71411 0.0983-0.18594 0.0285-0.33134 0.051-0.43794 0.0676-0.09842 0.0159-0.14882 0.0259-0.14848 0.0292"/><path d="m89.892 292.29c3.4e-4 3e-3 0.03508 2e-3 0.10182-4e-3 0.07662-8e-3 0.17402-0.0185 0.29593-0.0318 0.25983-0.0307 0.64192-0.085 1.133-0.16489 0.98246-0.14712 2.3933-0.46394 4.1563-0.62204 0.88268-0.081 1.8481-0.0732 2.8844 0.0564 0.51932 0.0511 1.0669 0.10283 1.6305 0.0149 0.28095-0.0443 0.56393-0.12793 0.83024-0.2654 0.26732-0.13762 0.50808-0.32717 0.74067-0.52415 0.46348-0.38883 0.9038-0.85913 1.4698-1.045 0.28026-0.0957 0.58028-0.0788 0.8711 7e-3 0.29116 0.0888 0.57279 0.23882 0.86327 0.38365 0.29116 0.14283 0.59492 0.29427 0.93614 0.34192 0.33816 0.0581 0.70526-0.0346 0.99506-0.23436 0.58812-0.38723 0.97293-1.0341 1.5743-1.3096 0.60276-0.28607 1.2828-0.10757 1.8995 0.091 0.62558 0.20112 1.2481 0.46608 1.9128 0.48168 0.3293 4e-3 0.66371-0.0621 0.95794-0.21558 0.29525-0.15004 0.55031-0.3607 0.78665-0.57816 0.47028-0.43344 0.88574-0.91586 1.4034-1.1739 0.51591-0.27128 1.0989-0.19218 1.6135-5e-3 0.52307 0.17773 1.0049 0.45381 1.5297 0.58245 0.51388 0.1246 1.0659 0.13861 1.5232-0.12228 0.22476-0.13052 0.40933-0.33571 0.51932-0.57151 0.11102-0.23509 0.16721-0.47865 0.23838-0.70276 0.0681-0.22541 0.15767-0.43174 0.29355-0.59213 0.13417-0.16072 0.30683-0.2735 0.48799-0.34077 0.36608-0.13489 0.75055-0.0998 1.0771 6e-3 0.33067 0.10971 0.60003 0.30973 0.80811 0.54075 0.21113 0.22696 0.36642 0.47389 0.49242 0.70258 0.24757 0.46206 0.3814 0.85654 0.47948 1.1182 0.045 0.12346 0.0804 0.22268 0.10863 0.30023 0.0249 0.0673 0.0392 0.10135 0.0422 0.10017 3e-3 -1e-3 -6e-3 -0.0374-0.0252-0.10683-0.0238-0.0794-0.0541-0.18035-0.0923-0.30684-0.0875-0.26684-0.21113-0.66635-0.45326-1.1421-0.12327-0.2355-0.2772-0.49096-0.49174-0.72979-0.20943-0.24097-0.49344-0.45972-0.83841-0.57915-0.3419-0.11607-0.7451-0.16013-1.1432-0.0199-0.19684 0.0709-0.38856 0.19248-0.53976 0.36994-0.15358 0.17703-0.25268 0.40473-0.32419 0.63475-0.0746 0.22988-0.13248 0.46756-0.23634 0.68126-0.10182 0.21284-0.26494 0.39026-0.46756 0.50681-0.41035 0.23203-0.93376 0.22134-1.4255 0.0974-0.49583-0.12342-0.97906-0.40139-1.5151-0.58766-0.26698-0.0962-0.55133-0.16922-0.8476-0.18367-0.29627-0.0123-0.60378 0.0479-0.88098 0.18744-0.55917 0.27823-0.98246 0.77363-1.4452 1.1957-0.23191 0.21184-0.47642 0.41108-0.74987 0.54928-0.2721 0.14091-0.57484 0.19895-0.88234 0.19592-0.62081-0.014-1.2328-0.27088-1.8648-0.47677-0.31773-0.10239-0.64499-0.19739-0.98825-0.23435-0.3402-0.0367-0.70526-0.01-1.0322 0.15003-0.66474 0.3142-1.0512 0.97217-1.5954 1.3229-0.26665 0.18149-0.57688 0.25945-0.88166 0.20922-0.30581-0.041-0.59765-0.18294-0.88575-0.32418-0.28878-0.14309-0.57789-0.29716-0.89051-0.39215-0.31159-0.0929-0.65554-0.11134-0.96373-4e-3 -0.62455 0.21066-1.0676 0.70043-1.5236 1.0824-0.22816 0.19436-0.45939 0.377-0.709 0.50667-0.24962 0.13052-0.51592 0.21036-0.78427 0.25472-0.53873 0.0872-1.0768 0.0417-1.5937-7e-3 -1.0373-0.12272-2.0238-0.12301-2.9082-0.0329-1.7732 0.17673-3.1786 0.51462-4.1573 0.68384-0.47948 0.0855-0.85646 0.15262-1.1265 0.20071-0.12089 0.0208-0.2176 0.0374-0.29354 0.0502-0.06573 0.013-0.09944 0.0208-0.09944 0.0241"/><path d="m89.417 267.64c-1e-3 3e-3 0.03303 0.0178 0.10046 0.0438 0.07628 0.0292 0.1747 0.0661 0.29831 0.11304 0.26222 0.0995 0.64771 0.25098 1.1507 0.42886 0.50366 0.16966 1.1221 0.39692 1.8801 0.47491 0.38243 0.0455 0.79652-0.0591 1.196-0.21543 0.4032-0.14944 0.81866-0.34642 1.277-0.39477 0.45905-0.0495 0.9341 0.11263 1.3972 0.34192 0.46654 0.22322 0.94228 0.51661 1.5011 0.65378 0.56053 0.13836 1.1612 0.0544 1.7361-0.109 0.5779-0.16823 1.1459-0.41441 1.7395-0.60256 0.58879-0.19073 1.2253-0.31678 1.8491-0.17369 0.62455 0.14194 1.2082 0.50567 1.8461 0.78072 0.31909 0.13673 0.66201 0.2491 1.0237 0.26237 0.36063 0.0177 0.7325-0.0901 1.0424-0.29716 0.62319-0.40113 1.069-1.0575 1.7211-1.3203 0.32147-0.12605 0.67223-0.11725 1.0056-0.0251 0.33475 0.0898 0.65486 0.24548 0.97394 0.40099 0.31943 0.15566 0.63988 0.31752 0.98246 0.42221 0.33918 0.10568 0.71446 0.14224 1.0608 0.024 0.35143-0.10786 0.63-0.36702 0.86633-0.62433 0.23906-0.25978 0.44985-0.53439 0.69232-0.75706 0.47199-0.47562 1.1412-0.53842 1.7327-0.39315 0.60207 0.12848 1.1691 0.38247 1.7466 0.54781 0.29048 0.0754 0.58198 0.15148 0.88064 0.14438 0.29422 3e-3 0.59799-0.0588 0.8476-0.22323 0.26324-0.1412 0.45973-0.3825 0.61672-0.62248 0.15597-0.24503 0.27924-0.49972 0.40593-0.74143 0.24484-0.48027 0.54861-0.92554 0.98961-1.075 0.43044-0.1571 0.89051-0.055 1.26 0.14091 0.37527 0.1955 0.68891 0.47129 0.93171 0.77133 0.4771 0.61412 0.73012 1.2746 0.98383 1.7743 0.24314 0.50944 0.46654 0.88832 0.64055 1.125 0.1747 0.23679 0.2881 0.33933 0.2881 0.33933 7e-3 -7e-3 -0.0957-0.12058-0.25949-0.36273-0.16346-0.24245-0.37426-0.62278-0.60787-1.1355-0.24519-0.50493-0.48459-1.1684-0.97054-1.8112-0.24757-0.31301-0.567-0.60211-0.95726-0.81059-0.38344-0.20807-0.87314-0.32791-1.3492-0.15972-0.48765 0.16116-0.81968 0.64906-1.0683 1.1303-0.25745 0.47621-0.49515 1.031-0.97463 1.298-0.4645 0.2993-1.0625 0.21354-1.6176 0.0546-0.56529-0.16372-1.1302-0.42177-1.7548-0.55805-0.30955-0.0711-0.64124-0.10469-0.97054-0.0392-0.16755 0.018-0.32283 0.0964-0.48187 0.15998-0.1529 0.082-0.29218 0.18889-0.42124 0.3061-0.25779 0.2358-0.47199 0.51447-0.70458 0.76587-0.23055 0.24995-0.48629 0.48271-0.79516 0.57583-0.30649 0.10353-0.64192 0.0732-0.96339-0.0268-0.32318-0.0992-0.63715-0.25731-0.95658-0.41411-0.32045-0.15595-0.64805-0.31682-1.0046-0.41326-0.35348-0.0983-0.74918-0.11045-1.1081 0.031-0.72025 0.29874-1.1646 0.96698-1.7507 1.3371-0.28878 0.19173-0.61604 0.28603-0.9467 0.27158-0.33067-0.0117-0.6552-0.11492-0.96578-0.24792-0.62285-0.26511-1.214-0.63545-1.8757-0.7852-0.66542-0.15044-1.3322-0.0121-1.9295 0.18338-0.60377 0.1948-1.1684 0.44213-1.7333 0.60917-0.56223 0.16261-1.1347 0.24434-1.6646 0.11711-0.53022-0.12605-1.0026-0.4099-1.4769-0.63387-0.47029-0.22884-0.97395-0.39925-1.4643-0.34192-0.48629 0.0566-0.9055 0.26352-1.3029 0.41511-0.39707 0.15973-0.78222 0.26138-1.152 0.22367-0.73931-0.0658-1.3618-0.28096-1.8662-0.43924-0.4948-0.16804-0.88336-0.30045-1.1602-0.39404-0.126-0.0394-0.22646-0.0709-0.3041-0.0949-0.06913-0.0201-0.10489-0.0282-0.10557-0.0253"/><path d="m108.55 276.79c3e-3 -6e-3 -0.0637-0.0518-0.19376-0.13458-0.13111-0.0799-0.33067-0.18886-0.5997-0.2976-0.53362-0.21702-1.3734-0.42435-2.4015-0.2687-0.25472 0.0443-0.52068 0.10384-0.78903 0.19928-0.26937 0.0939-0.53737 0.22681-0.8098 0.35071-0.2721 0.11984-0.5653 0.22367-0.86532 0.19189-0.30069-0.0293-0.58709-0.19189-0.85646-0.39926-0.27073-0.20659-0.53328-0.45466-0.84386-0.66058-0.1546-0.10236-0.32589-0.18885-0.50944-0.24242-0.0919-0.0303-0.1873-0.04-0.28367-0.0466-0.096-0.0162-0.19173-3e-3 -0.28776 6e-3 -0.77882 0.10786-1.3986 0.66566-2.0756 1.0379-0.33645 0.19003-0.69811 0.33759-1.0499 0.29209l-0.13043-0.0182c-0.04223-0.0107-0.08241-0.031-0.12362-0.0455-0.08445-0.0258-0.1621-0.0688-0.23668-0.11711-0.14745-0.10309-0.27754-0.23738-0.39945-0.37962-0.24553-0.28385-0.45462-0.6125-0.74851-0.86315-0.14507-0.12391-0.31943-0.22208-0.50809-0.25313-0.1873-0.0319-0.38004 1e-3 -0.54623 0.0868-0.33407 0.1789-0.53635 0.49454-0.72058 0.77551-0.18253 0.28762-0.34565 0.5715-0.54146 0.80397-0.39435 0.46091-0.95998 0.6502-1.448 0.62625-0.49957-0.0123-0.90482-0.28174-1.2239-0.53428-0.31943-0.25975-0.55508-0.54072-0.70764-0.79499-0.31806-0.51724-0.25132-0.8935-0.27448-0.8857 0 0-0.02486 0.085-0.0092 0.25021 0.01294 0.16419 0.07458 0.40631 0.2251 0.67533 0.14882 0.26914 0.38311 0.56486 0.70594 0.8402 0.31875 0.26585 0.74204 0.56156 1.2777 0.58522 0.52069 0.0339 1.1265-0.1568 1.5617-0.65323 0.21182-0.24648 0.38004-0.53524 0.56223-0.8158 0.18151-0.27609 0.38106-0.56703 0.66167-0.71186 0.28026-0.14826 0.62796-0.0829 0.88166 0.15074 0.26324 0.22556 0.47097 0.54855 0.72467 0.84615 0.12702 0.14859 0.26596 0.29497 0.43283 0.41182 0.08548 0.0566 0.1747 0.10568 0.27175 0.13673 0.04802 0.017 0.09433 0.0396 0.14371 0.0517l0.15052 0.0227c0.41001 0.0509 0.80265-0.11684 1.1493-0.31161 0.69572-0.38783 1.3097-0.92669 2.014-1.0217 0.34667-0.0473 0.6838 0.0557 0.97531 0.25313 0.2932 0.19188 0.5561 0.43592 0.83705 0.64847 0.2789 0.21166 0.59424 0.39215 0.93648 0.4225 0.34225 0.0313 0.65724-0.0881 0.93479-0.21343 0.2789-0.13082 0.53669-0.26237 0.79652-0.35693 0.25949-0.0962 0.51728-0.15798 0.76519-0.20563 0.99915-0.16893 1.827 0.0119 2.3596 0.20448 0.53805 0.19433 0.80708 0.38103 0.81627 0.36155"/><path d="m89.75 257.76c1e-3 3e-3 0.03644-7e-3 0.10318-0.0308 0.0361-0.0128 0.07696-0.0273 0.12362-0.0439 0.0504-0.0111 0.11034-0.017 0.17708-0.0277 0.27039-0.0367 0.67461 0.0481 1.1401 0.30019 0.47301 0.22583 1.0032 0.64601 1.746 0.83415 0.1856 0.0448 0.38447 0.0514 0.5888 0.031 0.2033-0.0321 0.4049-0.10786 0.59629-0.21399 0.38447-0.21442 0.7216-0.54031 1.0955-0.83429 0.36812-0.29341 0.81185-0.55259 1.3063-0.50307 0.4931 0.0422 0.96169 0.33008 1.4633 0.57367 0.25268 0.12201 0.52035 0.2355 0.81049 0.29095 0.29014 0.0559 0.59288 0.0403 0.88574-0.0204 0.58982-0.11869 1.1452-0.39332 1.7313-0.5663 0.58369-0.19031 1.2144-0.18107 1.8355-0.0299 0.62319 0.14381 1.2348 0.40993 1.8624 0.66983 0.62659 0.25803 1.2784 0.52515 1.9833 0.61915 0.70186 0.11754 1.4463-0.037 2.1005-0.3604 0.66133-0.31131 1.2648-0.71199 1.8995-0.98995 0.62966-0.28243 1.3135-0.3952 1.9455-0.1955 1.2719 0.3962 2.2006 1.5139 3.4098 1.9468 0.59561 0.2303 1.2559 0.21962 1.8195 0.0104 0.57313-0.19478 1.0628-0.5341 1.5246-0.85609 0.46007-0.32748 0.89187-0.66088 1.3312-0.93118 0.43759-0.27464 0.88779-0.46798 1.3366-0.58104 0.90345-0.21326 1.7596-0.10973 2.4618 0.11277 0.7056 0.22771 1.26 0.5858 1.6686 0.92815 0.82138 0.70045 1.0635 1.3075 1.0908 1.2808 3e-3 -1e-3 -0.015-0.0358-0.0518-0.10166-0.0426-0.0739-0.0977-0.16893-0.16686-0.2882-0.16687-0.23623-0.41444-0.59518-0.82922-0.94938-0.4083-0.35621-0.96645-0.73076-1.6826-0.97248-0.71309-0.23723-1.5866-0.35332-2.5173-0.14309-0.46211 0.11133-0.93104 0.30871-1.3772 0.58479-0.44951 0.27174-0.88506 0.60442-1.3444 0.92671-0.45939 0.31679-0.94262 0.64586-1.4909 0.82808-0.5418 0.19666-1.1531 0.20403-1.7208-0.0168-0.57415-0.20735-1.101-0.59027-1.6414-0.97132-0.53942-0.38033-1.1061-0.78737-1.7749-0.98923-0.67086-0.21514-1.4105-0.0913-2.0569 0.19998-0.6535 0.28619-1.2576 0.68716-1.904 0.99068-0.64158 0.31463-1.3325 0.45757-2.0088 0.3474-0.67631-0.0894-1.3176-0.34957-1.9435-0.60572-0.62625-0.25803-1.2454-0.52674-1.8886-0.67316-0.63749-0.15493-1.3101-0.16186-1.9135 0.0384-0.6031 0.1815-1.1531 0.4557-1.717 0.57107-0.28026 0.0595-0.56223 0.0747-0.83194 0.0244-0.26971-0.0498-0.5275-0.15594-0.77575-0.27463-0.49549-0.23478-0.97701-0.53194-1.513-0.57554-0.54214-0.0498-1.0206 0.23954-1.3904 0.54074-0.378 0.30351-0.70866 0.62811-1.0737 0.83589-0.18185 0.10338-0.36983 0.17587-0.55883 0.20879-0.19036 0.0206-0.37732 0.0178-0.55542-0.0225-0.71343-0.16937-1.2542-0.57814-1.7357-0.79704-0.47505-0.2446-0.89664-0.32156-1.1732-0.27045-0.06845 0.014-0.1294 0.0233-0.18015 0.0377-0.04631 0.0206-0.08718 0.0384-0.1226 0.0543-0.06606 0.0296-0.09842 0.0458-0.09705 0.0488"/><path d="m90.591 321.32c0.0089 9e-3 0.09978-0.13307 0.33066-0.33305 0.2302-0.19776 0.61876-0.43581 1.1701-0.55557 0.55031-0.12975 1.2409-0.12753 2.0392-0.0433 0.39945 0.0348 0.82888 0.078 1.2883 0.0721 0.45735-8e-3 0.95181-0.0706 1.4313-0.27834 0.47948-0.20367 0.929-0.52046 1.4098-0.80249 0.24076-0.1401 0.4914-0.27058 0.75804-0.36484 0.26664-0.0917 0.55031-0.1401 0.84148-0.15119 0.58403-0.0251 1.1868 0.1024 1.8086 0.22401 0.62081 0.12124 1.2794 0.24877 1.9625 0.16116 0.69028-0.0839 1.3189-0.46538 1.9111-0.85868 0.59492-0.3896 1.2065-0.81506 1.9084-0.92041 0.34837-0.0455 0.70628-0.0174 1.0567 0.0773 0.35008 0.10054 0.69164 0.25061 1.0301 0.41843 0.67733 0.33342 1.3438 0.76221 2.1114 0.97586 0.38174 0.10535 0.78358 0.13972 1.1742 0.0765 0.39026-0.0699 0.7543-0.23658 1.0863-0.43914 0.66338-0.40735 1.2311-0.93446 1.8791-1.2594 0.6443-0.32935 1.3635-0.39145 2.0429-0.27391 0.68312 0.10276 1.3325 0.34414 1.971 0.55373 0.63749 0.2155 1.2706 0.41511 1.908 0.5016 0.63818 0.0891 1.2709 0.0233 1.8536-0.12605 1.1714-0.30199 2.1679-0.85313 3.1061-1.2457 0.92355-0.44949 1.8427-0.5334 2.6368-0.45318 0.7938 0.0776 1.4623 0.2898 1.9741 0.53709 1.0383 0.50271 1.3744 1.1426 1.3952 1.1089 0 0-0.0804-0.14859-0.29014-0.37962-0.20569-0.23583-0.56258-0.53191-1.0764-0.79769-0.51456-0.26097-1.1888-0.48645-1.9935-0.57627-0.40217-0.0466-0.83739-0.0466-1.2944 0.0126-0.45871 0.0521-0.92899 0.21993-1.3972 0.42102-0.94636 0.38776-1.9445 0.92854-3.0931 1.2172-0.5721 0.14269-1.1834 0.20294-1.8018 0.11385-0.61978-0.0872-1.243-0.28573-1.8788-0.50271-0.63715-0.21181-1.2906-0.45836-1.9952-0.56703-0.69743-0.12346-1.4623-0.0614-2.14 0.28499-0.67733 0.3397-1.2481 0.87014-1.8927 1.2638-0.32113 0.19554-0.66542 0.35116-1.0281 0.41622-0.36302 0.058-0.73796 0.027-1.1027-0.0732-0.73251-0.20293-1.3949-0.62544-2.0807-0.96366-0.34394-0.17003-0.69504-0.32418-1.0608-0.42878-0.36778-0.0987-0.75055-0.12975-1.1234-0.0799-0.75362 0.11681-1.3809 0.56223-1.9724 0.94998-0.59186 0.39552-1.1929 0.75888-1.8437 0.84057-0.69776 0.0828-1.3731-0.0455-2.0351-0.17373-0.58198-0.11274-1.1538-0.22548-1.7221-0.19517-0.30172 0.0129-0.59969 0.0658-0.87928 0.16375-0.27822 0.10017-0.53567 0.23731-0.7795 0.38073-0.48629 0.29054-0.92797 0.60622-1.3908 0.80693-0.9324 0.40328-1.875 0.27576-2.6661 0.22511-0.79857-0.0743-1.5048-0.0658-2.061 0.0773-0.55883 0.13344-0.95147 0.38812-1.1779 0.59919-0.22714 0.21328-0.30819 0.36299-0.30819 0.36299"/></g><path d="m123.19 287.63c-0.88234 0-1.7694 0.37859-2.4876 0.95446-0.93513 0.74893-1.6254 1.7994-2.2367 2.8722-1.1725 2.0581-2.1277 4.768-2.7659 7.778 0.12668 0.0425 0.25132 0.0894 0.37357 0.13788 0.45701 0.18038 0.89631 0.38812 1.3448 0.53376 0.29797 0.0976 0.60548 0.16782 0.90686 0.16782 0.14881 0 0.29593-0.017 0.43963-0.0566 0.43964-0.10017 0.8047-0.40845 1.1326-0.7415 0.3293-0.33527 0.63783-0.70528 1.0168-0.99138 0.34089-0.26282 0.76043-0.40254 1.1711-0.40254 0.0436 0 0.0872 1e-3 0.13077 5e-3 0.11374 8e-3 0.2251 0.0255 0.33441 0.0499 0.22033-0.47425 0.48221-0.95257 0.73557-1.4342l0.457-7.5829 1.0496-0.0159c-0.0354-0.40805-0.15461-0.74332-0.41069-0.95963 0.0191 0.0573 0.0361 0.11019 0.0521 0.15898 0.0381 0.12649 0.0684 0.22741 0.0923 0.30684 0.0194 0.0695 0.0279 0.10568 0.0252 0.10683-3e-3 0-0.0177-0.034-0.0422-0.10017-0.0283-0.0776-0.0637-0.17677-0.10863-0.30023-0.0249-0.0657-0.0518-0.13961-0.0821-0.22134-0.095-0.0673-0.20603-0.12013-0.33612-0.15665-0.26051-0.0739-0.52613-0.10846-0.79243-0.10846m-1.0986 10.43c-0.38038 0-0.76145 0.12604-1.0826 0.3737-0.35688 0.26984-0.66064 0.63283-0.99574 0.9766-0.3327 0.33933-0.72535 0.67682-1.2096 0.78882-0.15938 0.0436-0.32079 0.0625-0.48255 0.0625-0.32317 0-0.64703-0.0747-0.95249-0.1741-0.46212-0.15045-0.90414-0.35856-1.3547-0.53599-0.11647-0.0462-0.23429-0.0902-0.35314-0.13048-0.70696 3.4192-1.0049 7.214-0.74919 10.874 0.4267-0.31531 0.84522-0.65242 1.3152-0.89712 0.21249-0.11644 0.441-0.19887 0.67222-0.25912 0.17061-0.0385 0.34463-0.0543 0.51728-0.0543 0.0644 0 0.12839 2e-3 0.19207 6e-3 0.47301 0.0366 0.91707 0.20774 1.3267 0.41289 0.48085 0.23805 0.92934 0.52564 1.3785 0.78069-0.22714-3.5996 0.83364-7.7618 1.8434-11.322 0.0811-0.28536 0.19104-0.57257 0.31908-0.86126-0.0892-0.0185-0.17912-0.031-0.27039-0.0373-0.0378-3e-3 -0.0759-4e-3 -0.11408-4e-3m-4.6715 11.211c-0.1621 0-0.32454 0.0144-0.48425 0.0506-0.21624 0.0569-0.43044 0.13381-0.63408 0.24581-0.47949 0.24803-0.91265 0.60954-1.3741 0.94592 0.17096 2.2511 0.55372 4.4483 1.1817 6.471 0.0776-0.027 0.15597-0.0503 0.23463-0.071l4.6014-3.4543c-0.34088-0.91819-0.53499-1.9159-0.61671-2.9638-0.48698-0.26946-0.96033-0.57775-1.4636-0.82467-0.40115-0.20071-0.82717-0.36151-1.2692-0.39441-0.0582-3e-3 -0.11681-5e-3 -0.17572-5e-3" fill="#ba2c42"/><path d="m124.79 288.9-1.0496 0.0159-0.457 7.5829c0.54793-1.0409 1.055-2.0955 1.0087-3.1523-0.0565-1.2945 0.60616-3.207 0.49787-4.4465" fill="#ba2c42"/><g fill="#a4a6a5"><path d="m117.41 309.08c-0.17265 0-0.34667 0.0159-0.51728 0.0543-0.23122 0.0602-0.45973 0.14268-0.67222 0.25912-0.46995 0.2447-0.88847 0.58181-1.3152 0.89712 5e-3 0.0736 0.0102 0.14527 0.016 0.21883 0.46144-0.33638 0.8946-0.69789 1.3741-0.94592 0.20364-0.112 0.41784-0.18889 0.63408-0.24581 0.15971-0.0362 0.32215-0.0506 0.48425-0.0506 0.0589 0 0.11749 2e-3 0.17572 5e-3 0.44202 0.0329 0.86804 0.1937 1.2692 0.39441 0.50332 0.24692 0.97667 0.55521 1.4636 0.82467-5e-3 -0.0702-0.0106-0.14083-0.015-0.21143-0.44917-0.25505-0.89766-0.54264-1.3785-0.78069-0.40967-0.20515-0.85373-0.37629-1.3267-0.41289-0.0637-4e-3 -0.1277-6e-3 -0.19207-6e-3"/><path d="m122.08 297.88c-0.41069 0-0.83023 0.13972-1.1711 0.40254-0.37902 0.2861-0.68755 0.65611-1.0168 0.99138-0.32794 0.33305-0.693 0.64133-1.1326 0.7415-0.1437 0.0395-0.29082 0.0566-0.43963 0.0566-0.30138 0-0.60889-0.0702-0.90686-0.16782-0.44849-0.14564-0.88779-0.35338-1.3448-0.53376-0.12225-0.0484-0.24689-0.0954-0.37357-0.13788-0.0133 0.0617-0.0262 0.1242-0.0392 0.1863 0.11885 0.0403 0.23667 0.0843 0.35314 0.13048 0.45053 0.17743 0.89255 0.38554 1.3547 0.53599 0.30546 0.0994 0.62932 0.1741 0.95249 0.1741 0.16176 0 0.32317-0.0189 0.48255-0.0625 0.48424-0.112 0.87689-0.44949 1.2096-0.78882 0.3351-0.34377 0.63886-0.70676 0.99574-0.9766 0.32113-0.24766 0.7022-0.3737 1.0826-0.3737 0.0381 0 0.0763 1e-3 0.11408 4e-3 0.0913 6e-3 0.18117 0.0188 0.27039 0.0373 0.0242-0.0547 0.049-0.10942 0.0746-0.16413-0.10931-0.0244-0.22067-0.0418-0.33441-0.0499-0.0436-3e-3 -0.0872-5e-3 -0.13077-5e-3"/><path d="m124.32 287.89c0.0303 0.0817 0.0572 0.15566 0.0821 0.22134 0.045 0.12346 0.0804 0.22268 0.10863 0.30023 0.0245 0.0661 0.0388 0.10017 0.0422 0.10017 3e-3 -1e-3 -6e-3 -0.0374-0.0252-0.10683-0.0238-0.0794-0.0541-0.18035-0.0923-0.30684-0.016-0.0488-0.033-0.10165-0.0521-0.15898-0.0201-0.0169-0.0412-0.0335-0.0633-0.0491"/><path d="m116.34 316.91c-0.0787 0.0207-0.15699 0.044-0.23463 0.071 9e-3 0.0285 0.0177 0.0569 0.0266 0.0854l0.20807-0.15636"/></g><g fill="#17282f"><path d="m90.823 260.91c0.0014 6e-3 0.06402-2e-3 0.18287-0.023 0.13792-0.0274 0.30921-0.0614 0.51762-0.10309 0.47369-0.0976 1.1166-0.23073 1.8995-0.3926 1.6046-0.32721 3.8263-0.74638 6.2925-1.1201 2.4672-0.37224 4.71-0.62883 6.3361-0.79026 0.7938-0.077 1.4452-0.13977 1.9258-0.18597 0.2108-0.0225 0.38413-0.0403 0.52341-0.0547 0.11987-0.0147 0.18219-0.0258 0.18185-0.0322-3.4e-4 -7e-3 -0.0633-9e-3 -0.18389-7e-3 -0.1403 5e-3 -0.31432 0.0111-0.52614 0.0185-0.45666 0.0194-1.1166 0.0614-1.9315 0.12534-1.6302 0.12721-3.8788 0.36227-6.3501 0.73524-2.4703 0.37484-4.6923 0.81581-6.2925 1.1774-0.79959 0.18035-1.4456 0.33601-1.8893 0.45281-0.20603 0.0557-0.37459 0.10165-0.51081 0.13821-0.11646 0.0336-0.17674 0.0547-0.17538 0.0611"/><path d="m98.306 261.87c0.0014 6e-3 0.0991-0.0163 0.28299-0.0658 0.18491-0.0432 0.45019-0.13862 0.80333-0.2114 0.69879-0.17484 1.7269-0.3604 3.007-0.42032 1.2791-0.0628 2.8139 0.0417 4.4655 0.4469 1.6499 0.40184 3.4085 1.1338 5.0703 2.2463 1.652 1.1326 3.0301 2.5261 4.0875 3.9589 1.0608 1.4331 1.8216 2.884 2.3313 4.1585 0.51251 1.2746 0.81048 2.3591 0.97258 3.1171 0.0947 0.376 0.13281 0.67693 0.1781 0.87646 0.0399 0.20072 0.0637 0.30569 0.0698 0.3047 6e-3 -1e-3 -6e-3 -0.10801-0.0347-0.31161-0.034-0.20231-0.061-0.50582-0.14575-0.88615-0.14235-0.76627-0.42363-1.8634-0.92491-3.1545-0.49889-1.2914-1.2546-2.7623-2.3187-4.2154-1.0604-1.4523-2.4505-2.8662-4.1212-4.011-1.6806-1.1256-3.4609-1.8601-5.1285-2.2563-1.67-0.39955-3.2188-0.49051-4.507-0.40993-1.289 0.078-2.3201 0.28529-3.0172 0.48312-0.35212 0.0846-0.61536 0.19188-0.79789 0.24733-0.18049 0.0614-0.27448 0.0968-0.27243 0.10309"/><path d="m101.32 326.85c6e-3 0 9e-3 -0.092 7e-3 -0.26652-1e-3 -0.19332-3e-3 -0.44689-5e-3 -0.76257 8e-3 -0.65759-7e-3 -1.6286 0.25847-2.769 0.14234-0.56297 0.35518-1.1736 0.73693-1.7214 0.3671-0.55705 0.8997-1.0335 1.5232-1.4035 0.6249-0.37149 1.3414-0.64059 2.1018-0.81691 0.76009-0.18261 1.5678-0.27354 2.393-0.25062 1.6516 0.0359 3.2113 0.53487 4.4222 1.3573 1.2222 0.81284 2.0518 1.9506 2.5398 2.9912 0.48868 1.0524 0.63273 2.0134 0.6627 2.6673 0.0218 0.6587-0.0409 1.0224-0.0191 1.025 6e-3 1e-3 0.0211-0.0891 0.0439-0.26245 0.0286-0.17299 0.0419-0.43137 0.0443-0.76516-9e-3 -0.66203-0.13588-1.6449-0.61945-2.7254-0.48288-1.0683-1.3196-2.2404-2.5653-3.081-1.2334-0.8487-2.8241-1.3629-4.505-1.3995-0.84011-0.0229-1.6615 0.071-2.4342 0.25912-0.77337 0.18223-1.5035 0.45946-2.1434 0.84574-0.63851 0.38406-1.1878 0.88234-1.5634 1.4649-0.39026 0.57221-0.60208 1.2047-0.73966 1.7813-0.25472 1.1688-0.21862 2.1443-0.20602 2.8045 0.0105 0.33157 0.0262 0.58884 0.0385 0.76257 0.0126 0.17447 0.0221 0.26541 0.0283 0.26504"/></g><path d="m99.243 326.2s-8.2867-0.34081-10.253-9.3224c-2.2779-10.403-0.90345-21.872 1.9608-27.616l0.13417 10.232c0.09365 7.1001 1.6686 14.085 4.6062 20.429l3.5522 6.2769" fill="#33535f"/><path d="m89.504 296.68c-0.0061 0-0.01328 0.10757-0.02145 0.31309-0.0061 0.2229-0.01532 0.52231-0.02622 0.89971-0.01294 0.39071-0.02043 0.86866-0.0044 1.4239 0.01226 0.5552 0.0089 1.1884 0.05755 1.8859 0.01975 0.34932 0.04018 0.71526 0.0613 1.0956 0.02316 0.38074 0.06811 0.77514 0.10352 1.1843 0.06266 0.82024 0.18594 1.6889 0.30376 2.6049 0.27141 1.8257 0.65111 3.8199 1.1786 5.8766 0.54078 2.0541 1.1772 3.97 1.8253 5.6807 0.3402 0.84796 0.65384 1.6586 0.99506 2.3934 0.16686 0.36927 0.31806 0.73115 0.4822 1.0686 0.16516 0.33675 0.32385 0.65982 0.47539 0.96884 0.29389 0.62211 0.60208 1.1599 0.8585 1.6405 0.2537 0.48239 0.49038 0.88567 0.6896 1.2117 0.19104 0.31457 0.34258 0.56518 0.4553 0.75185 0.10557 0.17041 0.1638 0.25838 0.16891 0.25469 0.0054-4e-3 -0.04291-0.0987-0.1386-0.27613-0.10591-0.19073-0.24825-0.44763-0.42704-0.77033-0.18968-0.3312-0.41784-0.73966-0.66269-1.2257-0.24791-0.4846-0.54725-1.0261-0.8333-1.6504-0.1478-0.31013-0.30274-0.63431-0.46382-0.97179-0.1604-0.33859-0.30819-0.70084-0.47199-1.0705-0.33407-0.73522-0.64192-1.5455-0.97667-2.3923-0.63715-1.7085-1.2668-3.6188-1.8055-5.6648-0.52545-2.0497-0.90856-4.0346-1.1878-5.8526-0.12191-0.91191-0.24996-1.7772-0.31909-2.5938-0.03848-0.40772-0.0865-0.80065-0.11306-1.1799-0.0252-0.37926-0.04938-0.74336-0.07219-1.0916-0.05687-0.69493-0.06232-1.3263-0.08411-1.88-0.02554-0.55373-0.02792-1.0309-0.02554-1.4213-0.0027-0.37703-0.0051-0.67644-0.0068-0.89934-0.0037-0.20515-0.0089-0.31346-0.01464-0.31383" fill="#17282f"/><path d="m93.295 323.93c0.0051-3e-3 -0.02929-0.0861-0.09944-0.24101-0.08037-0.17114-0.18491-0.39441-0.31534-0.67275-0.28333-0.57849-0.66474-1.4316-1.1108-2.4966-0.21386-0.53709-0.46245-1.1189-0.68483-1.7636-0.11408-0.32085-0.24144-0.64836-0.35518-0.9936-0.11136-0.34599-0.22578-0.70195-0.34326-1.0668-0.44883-1.4671-0.87212-3.1057-1.1987-4.8549-0.64022-3.5053-0.77166-6.7512-0.76656-9.0899 0.0061-1.1703 0.02792-2.1184 0.05891-2.7727 0.0099-0.31198 0.01839-0.5626 0.02452-0.75407 0.0037-0.17263 0.0027-0.26356-0.0031-0.2643-0.0065-3.7e-4 -0.01703 0.0895-0.03235 0.26134-0.01498 0.19111-0.03405 0.44135-0.05823 0.75296-0.05176 0.65316-0.09297 1.6024-0.1151 2.7756-0.03746 2.3435 0.07458 5.6056 0.71786 9.1287 0.32794 1.7576 0.75872 3.4037 1.2181 4.8741 0.12021 0.36595 0.2377 0.72229 0.35212 1.069 0.1168 0.34525 0.24723 0.67312 0.36438 0.99434 0.22952 0.64429 0.48561 1.225 0.7073 1.7602 0.46211 1.0609 0.86191 1.9066 1.164 2.4755 0.14269 0.27131 0.25711 0.4894 0.34497 0.65611 0.08037 0.1486 0.12532 0.22548 0.13077 0.22216" fill="#17282f"/><path d="m126.01 322.74s-5.5658-16.444-1.463-30.323l0.22339-4.9054s-3.1381 0.23177-5.5116 5.0995c-2.3742 4.8679-3.1428 9.8914-3.9479 17.13-0.8047 7.2391 2.8507 16.46 2.8507 16.46s6.4825-1.5414 7.8484-3.461" fill="#33535f"/><g fill="#17282f"><path d="m124.92 287.91c-1e-3 -3e-3 -0.0289 0.0114-0.081 0.0421-0.0613 0.0373-0.13724 0.0839-0.23089 0.14124-0.19854 0.13112-0.47982 0.34998-0.79721 0.68717-0.64021 0.66894-1.3312 1.8959-1.764 3.5514-0.22646 0.8232-0.3998 1.7473-0.54521 2.7409-0.15937 0.99213-0.28844 2.0596-0.40592 3.1848-0.22578 2.2511-0.34395 4.7436-0.29117 7.3566 0.0504 2.6149 0.27005 5.0992 0.58744 7.3382 0.31806 2.2378 0.70491 4.2383 1.1582 5.8818 0.44816 1.6456 0.98893 2.9146 1.4269 3.7467 0.21999 0.41585 0.40763 0.72746 0.5418 0.93335 0.0633 0.0946 0.11442 0.17078 0.15528 0.23214 0.0361 0.0518 0.0555 0.0769 0.0579 0.075 3e-3 -2e-3 -0.0119-0.031-0.0429-0.0861-0.0371-0.0643-0.0834-0.14379-0.14064-0.24249-0.12396-0.21217-0.30172-0.52896-0.51082-0.9485-0.41716-0.83872-0.93648-2.1066-1.3669-3.7486-0.43556-1.639-0.80879-3.6369-1.1173-5.8696-0.30717-2.2334-0.52137-4.71-0.57142-7.3156-0.0528-2.6049 0.0603-5.0889 0.27651-7.3341 0.11238-1.1222 0.23532-2.1872 0.38856-3.1778 0.1386-0.99323 0.30342-1.9103 0.52035-2.7291 0.41409-1.6449 1.0768-2.8607 1.6928-3.5367 0.61264-0.68344 1.0782-0.89598 1.0598-0.92297"/><path d="m124.71 288.08c-1e-3 -3e-3 -0.0324 8e-3 -0.0919 0.0339-0.0684 0.031-0.15495 0.0703-0.26256 0.11914-0.22373 0.12157-0.5544 0.30525-0.9358 0.61726-0.77064 0.61209-1.6976 1.7606-2.5346 3.3675-0.80708 1.619-1.7334 3.5825-2.4379 5.9016-0.72569 2.3058-1.3087 4.9251-1.6087 7.7207-0.30274 2.7956-0.29422 5.4903-0.0889 7.9174 0.18628 2.4326 0.64158 4.5825 1.0764 6.3608 0.24281 0.8827 0.44441 1.6874 0.69402 2.3687 0.23395 0.68605 0.41751 1.2849 0.62285 1.7499 0.189 0.4602 0.33714 0.82282 0.44407 1.0834 0.049 0.11459 0.0882 0.20663 0.11953 0.27945 0.0276 0.0625 0.0432 0.0939 0.0463 0.0924 3e-3 -1e-3 -8e-3 -0.0355-0.03-0.10091-0.0269-0.0747-0.061-0.1693-0.10352-0.28685-0.0991-0.26355-0.23702-0.63024-0.41274-1.096-0.19479-0.46833-0.3688-1.069-0.59322-1.7569-0.2394-0.68199-0.43214-1.4871-0.66644-2.369-0.41716-1.7765-0.85782-3.919-1.0349-6.3412-0.19513-2.4164-0.19887-5.097 0.10284-7.8789 0.29832-2.7808 0.87315-5.3879 1.5869-7.686 0.69232-2.3106 1.6029-4.2712 2.3923-5.891 0.81832-1.6061 1.7184-2.7517 2.4679-3.3759 0.37016-0.31723 0.69265-0.50985 0.90924-0.64185 0.1042-0.0557 0.18764-0.10047 0.25438-0.13558 0.0569-0.0315 0.0855-0.0492 0.0845-0.0521"/><path d="m122.07 316.52 3.608-1.0339-0.52273-1.3684-3.3948 0.73448 0.30955 1.6678"/></g><path d="m122.15 315.2c-0.0201 0.0218 0.17912 0.27649 0.5091 0.65907l0.0596 0.0695 0.049-0.0835c0.13928-0.23658 0.28469-0.48387 0.43725-0.74336l-0.11612 0.0329c0.12974 0.0802 0.26255 0.16265 0.39979 0.24692 0.14167 0.0858 0.27856 0.16819 0.41205 0.24877l0.077 0.0462 0.0405-0.0813c0.1369-0.2728 0.2663-0.53155 0.39128-0.78032l-0.0933 0.0281c0.42261 0.23251 0.69641 0.36484 0.70969 0.3386 0.0136-0.0266-0.23633-0.20626-0.64328-0.46945l-0.0569-0.037-0.0364 0.0654c-0.13383 0.24249-0.27379 0.49569-0.42091 0.76147l0.11715-0.0347c-0.13281-0.0824-0.26937-0.16671-0.41001-0.2532-0.13792-0.0835-0.27141-0.16413-0.40184-0.24286l-0.0746-0.0447-0.0415 0.078c-0.14269 0.2654-0.27857 0.51972-0.40865 0.76183l0.10863-0.014c-0.3528-0.35782-0.58777-0.57406-0.60752-0.55225" fill="#f03d5f"/><path d="m92.502 293.02-3.9298 7.869h-11.953l-0.37868-0.78031 10.118-18.262 11.455-0.59952-5.3121 11.772" fill="#33535f"/><path d="m138.08 288.68v-13.753c0-2.5103-1.0393-4.8878-2.8312-6.475-2.1829-1.934-5.165-2.4193-7.7745-1.2653l-27.897 13.42 2.7325 10.1 22.443-8.0295-0.0262 6.2614 13.353-0.25905" fill="#f8a58d"/><path d="m92.123 292.24-3.9295 7.8689h-11.953l9.7395-19.042 11.455-0.59967-5.3124 11.773" fill="#17282f"/><g fill="#f8a58d"><path d="m103.41 289.63-1.891 2.5468c-1.245 1.6768-3.1224 2.6519-5.1067 2.6519h-1.6509l-1.1268-1.3762s-8.0841-0.38221-8.3821-1.4646l-0.0072-0.34886-0.0044-0.20445 6.9143-0.50449s-5.8818 0.0199-6.2336 6e-3c-0.38753-0.016-1.6417 0.10668-1.6162-0.64255 0.02145-0.61582 0.69266-1.1014 1.7095-1.263 0.41784-0.0658 5.5127-0.54667 5.5127-0.54667s-5.3496 0.0555-5.608 0.0569c-0.62864 3e-3 -0.54929-1.0909-0.17572-1.2281 0.29525-0.10827 7.4786-2.3833 7.4786-2.3833s-1.2079-0.87949-2.1938-0.80298c-0.9862 0.0765-2.6763 1.4523-3.0284 0.80298-0.35212-0.6502-0.28163-1.0326-0.07049-1.1852 0.21114-0.15303 2.5353-1.4527 3.3101-1.6819s7.0989-1.3163 7.0989-1.3163l2.2833-0.39881 2.788 9.2828"/><path d="m77.911 297.04s-1.2505-0.47314-0.61434-2.2171c0.93138-2.552 2.5367-4.3592 2.5367-4.3592s-0.22135-0.90116 0.49821-1.5622c0 0-0.8854-0.23982-0.33203-1.8618 0 0-0.60855-1.6819 1.0516-2.4027 0 0-0.4427-1.3818 1.1619-2.0423 1.605-0.66103 3.1541 0.48153 3.1541 0.48153l-7.4561 13.964"/><path d="m80.447 290.6c1.136-0.33268 2.3845-0.59849 3.435-1.0312 0.34599-0.14209 0.68857-0.14974 0.91776-0.46508 0.22918-0.31464 0.28231-0.81654 0.02009-1.0997-0.23089-0.24907-0.60105-0.2443-0.92423-0.20216-1.212 0.15928-2.3732 0.61095-3.5222 1.0594"/><path d="m80.901 288.54c1.136-0.33268 2.3841-0.59808 3.435-1.0314 0.34565-0.1422 0.68857-0.14955 0.91742-0.46464 0.22952-0.3149 0.28265-0.81683 0.02043-1.1-0.23123-0.24921-0.60105-0.24474-0.92423-0.20186-1.212 0.15898-2.3732 0.61065-3.5222 1.0591"/><path d="m81.546 286.42c1.1364-0.33268 2.3845-0.59808 3.4354-1.0312 0.34531-0.14194 0.68823-0.14974 0.91742-0.46438 0.22952-0.3152 0.28231-0.81684 0.02009-1.1-0.23089-0.24951-0.60071-0.24474-0.92423-0.20226-1.212 0.15939-2.3729 0.61061-3.5219 1.0591"/></g><g fill="#f68260"><path d="m80.442 288.82c0.01873 0.0518 0.8207-0.25314 1.8273-0.55635 1.0063-0.3067 1.8372-0.49669 1.8287-0.55144-0.0072-0.0502-0.85986 0.0562-1.8764 0.36591-1.0175 0.30684-1.7977 0.69537-1.7797 0.74188"/><path d="m80.23 287c0.01771 0.0519 0.93614-0.27867 2.0793-0.64092 1.1429-0.36546 2.0797-0.6258 2.0691-0.67937-0.0095-0.0503-0.96884 0.12676-2.1192 0.49455-1.1503 0.36487-2.046 0.7781-2.0293 0.82574"/><path d="m80.976 284.67c0.01192 0.051 0.88575-0.14121 1.952-0.43071 1.0669-0.28936 1.9217-0.56544 1.9098-0.61682-0.01192-0.0519-0.88609 0.14076-1.9527 0.43026-1.0662 0.2891-1.921 0.56559-1.9091 0.61727"/><path d="m79.502 290.85c0.01771 0.0529 1.0243-0.31708 2.2901-0.67012 1.2654-0.35782 2.3106-0.56371 2.3027-0.6196-0.0037-0.0254-0.27039-6e-3 -0.69709 0.063-0.4267 0.0683-1.0121 0.19103-1.6503 0.3699-0.63715 0.17935-1.2042 0.38032-1.6077 0.54452-0.40422 0.1649-0.646 0.28836-0.63783 0.31231"/><path d="m90.88 293.35c-3.41e-4 0.0532 1.2695 0.10313 2.8364 0.11237 1.5675 9e-3 2.8377-0.0266 2.8377-0.0798 3.41e-4 -0.0536-1.2695-0.1035-2.8367-0.11274-1.5668-9e-3 -2.8374 0.027-2.8374 0.0802"/></g><path d="m82.309 296.81c0.25881-0.22511 0.63647-0.17965 0.84386 0.10128 0.20739 0.28056 0.16584 0.69086-0.09297 0.91561-0.25881 0.22548-0.63681 0.18001-0.8442-0.10055-0.20739-0.28129-0.1655-0.69123 0.09331-0.91634" fill="#e7e8e5"/><path d="m123.29 283.04c3e-3 0.0128 0.10046 7e-4 0.2755-0.0334 0.17606-0.031 0.42669-0.099 0.73114-0.20142 0.60888-0.2036 1.4272-0.58984 2.2316-1.1935 0.80231-0.60658 1.4221-1.303 1.811-1.8511 0.19513-0.2732 0.34156-0.50463 0.4301-0.67245 0.0906-0.16634 0.13554-0.26134 0.12532-0.26869-0.0252-0.0175-0.24246 0.33671-0.65213 0.85494-0.40831 0.51821-1.0291 1.1848-1.8154 1.7791-0.78869 0.59143-1.5808 0.9892-2.171 1.2228-0.5905 0.2355-0.97258 0.33194-0.96611 0.36373" fill="#f68260"/><path d="m108.07 319.47c-3.6802 0.319-6.4607 3.7559-6.2772 7.7588 0.12872 2.8086 0.26221 5.3413 0.26221 5.3413s-5.5477 0.93667-5.6162 6.957c-0.06845 6.0207 0.8929 19.846 0.8929 19.846 6.4212 2.9952 13.832 1.9839 19.371-2.6433l0.82172-0.68643-2.1011-29.751c-0.28878-4.0916-3.5849-7.15-7.3533-6.8232" fill="#f8a58d"/><path d="m102.05 332.66s3.5055-0.3094 7.2314 2.2308c0 0-1.7092-4.333-7.244-3.7907l0.0126 1.5599" fill="#f68260"/><g fill="#17282f"><path d="m98.701 349.94c-0.01464-0.45392 0.32726-0.84204 0.76383-0.86755 0.43555-0.0255 0.80163 0.32122 0.81628 0.77514 0.015 0.45429-0.32692 0.84279-0.76281 0.86829-0.43657 0.0255-0.80231-0.32196-0.8173-0.77588"/><path d="m98.381 350.91c0.09808-0.112 0.69845 0.37001 1.5508 0.36742 0.85135 0.0111 1.4769-0.46501 1.5692-0.35153 0.0456 0.0499-0.0545 0.25247-0.32691 0.4676-0.26801 0.21439-0.72536 0.42287-1.2563 0.42065-0.5309-3e-3 -0.97769-0.2155-1.2341-0.43285-0.26256-0.21809-0.3511-0.42102-0.30274-0.47129"/><path d="m106.74 349.72c-0.0146-0.45392 0.32726-0.84204 0.76384-0.86755 0.43589-0.0251 0.80163 0.32122 0.81661 0.77551 0.0147 0.45392-0.32726 0.84242-0.76315 0.86792-0.43657 0.0255-0.80265-0.32159-0.8173-0.77588"/><path d="m106.76 350.74c0.0981-0.112 0.69879 0.37002 1.5505 0.36743 0.85135 0.0107 1.4773-0.46501 1.5699-0.3519 0.0453 0.0503-0.0538 0.25284-0.32726 0.46797-0.268 0.21439-0.72535 0.42287-1.2562 0.42028-0.5309-3e-3 -0.97769-0.21513-1.2348-0.43248-0.26086-0.21809-0.35042-0.42102-0.30206-0.4713"/><path d="m103.67 343.87c4e-3 0.0529-0.52579 0.15192-1.3846 0.27131-0.21726 0.0244-0.42329 0.0714-0.46007 0.23251-0.0514 0.17078 0.0399 0.42546 0.14541 0.7001 0.20433 0.57184 0.41853 1.171 0.64362 1.799 0.89392 2.5616 1.541 4.6678 1.4456 4.7059-0.0954 0.0381-0.89733-2.0068-1.7912-4.5684-0.21488-0.63172-0.42091-1.2339-0.61638-1.8098-0.0824-0.26836-0.22408-0.57295-0.11306-0.92743 0.0586-0.17632 0.21863-0.30459 0.35791-0.34525 0.13962-0.0462 0.26187-0.0488 0.36948-0.0558 0.86429-0.0507 1.4003-0.0547 1.4034-2e-3"/><path d="m106.18 343.23c-0.1386 9e-3 -0.1403-0.99582-0.9324-1.7085-0.79073-0.71526-1.7769-0.60252-1.7844-0.74298-0.0126-0.0628 0.21999-0.19481 0.63647-0.207 0.40831-0.0155 1.0046 0.12678 1.4892 0.56296 0.48323 0.43729 0.69062 1.0206 0.72229 1.4327 0.0354 0.41954-0.0681 0.66831-0.13111 0.66277"/><path d="m106.54 354.36c0.0841-0.25173 0.93512-0.13233 1.9353-0.26319 1.0022-0.10904 1.809-0.42693 1.9414-0.20145 0.0593 0.1083-0.0811 0.34488-0.40728 0.5881-0.32318 0.24323-0.83876 0.47462-1.4391 0.54707-0.60071 0.071-1.1503-0.0322-1.5144-0.19295-0.3671-0.1608-0.55202-0.35819-0.51592-0.47758"/><path d="m98.695 353.59c0.15018-0.20996 0.73693 8e-3 1.4432 0.0185 0.70594 0.037 1.3043-0.1412 1.4418 0.0787 0.0606 0.10645-0.0341 0.31715-0.29491 0.51602-0.25745 0.19813-0.68823 0.3604-1.1735 0.3445-0.48527-0.017-0.90584-0.20737-1.1514-0.4225-0.24928-0.21587-0.33135-0.43248-0.26528-0.53524"/></g><path d="m116.84 349.81c0.0947 0.0444 3.8117 1.2235 3.6901-2.8928-0.12089-4.116-3.9033-3.1349-3.9063-3.0166-3e-3 0.11792 0.21625 5.9095 0.21625 5.9095" fill="#f8a58d"/><path d="m117.83 345.42c0.0167 0.0129 0.0644-0.0521 0.17436-0.11163 0.10761-0.0577 0.29355-0.10165 0.49378-0.0281 0.40491 0.14564 0.76281 0.8243 0.803 1.5654 0.0204 0.37445-0.0412 0.73374-0.15461 1.0332-0.10727 0.30533-0.28026 0.52157-0.48084 0.56778-0.19922 0.0573-0.34599-0.0688-0.39571-0.18298-0.0541-0.11348-0.0323-0.19628-0.0528-0.20256-0.0109-0.01-0.0793 0.0713-0.0439 0.24027 0.0181 0.0813 0.0654 0.17706 0.15665 0.25283 0.0937 0.0773 0.2285 0.11385 0.36846 0.0924 0.29219-0.0322 0.54657-0.33342 0.67155-0.66203 0.14064-0.3312 0.21862-0.73522 0.19513-1.1555-0.0487-0.82874-0.4628-1.5913-1.0158-1.7443-0.26903-0.0658-0.48936 0.0288-0.60106 0.13011-0.11476 0.10535-0.13179 0.19813-0.11817 0.20515" fill="#f68260"/><path d="m95.208 364.58c0.80538 1.727 2.3739 3.0107 4.125 3.3763 1.7514 0.36558 3.6465-0.19517 4.9848-1.4749 0.83876 1.8127 2.5394 3.1231 4.3926 3.3841 1.8536 0.26097 3.8059-0.5345 5.0434-2.0552 1.0632-1.3067 1.6138-3.0839 2.8595-4.1851 1.0782-0.95257 2.5401-1.2694 3.6244-2.2134 1.1936-1.0398 1.7885-2.8292 1.4814-4.4564-0.30683-1.6275-1.5018-3.0189-2.9756-3.4658 1.1892-2.3288 0.0742-5.6692-2.2132-6.6303l-0.55303 0.24877c-2.0984 2.5003-2.5779 6.4466-1.1483 9.4521-0.0681-4e-3 -0.13247 8e-3 -0.19887 0.01-0.73046-0.43249-1.5706-0.6491-2.4018-0.59661-1.3261 0.0843-2.6017 0.8524-3.37 2.029-1.514-1.1858-3.6846-1.2849-5.2852-0.24138-0.252 0.1645-0.50366 0.3593-0.79652 0.3933-0.34837 0.0403-0.67802-0.15525-0.99302-0.32306-0.83194-0.44321-1.7671-0.73301-2.6845-0.58847-0.85578 0.13491-1.6778 0.7123-2.016 1.5662l-0.063 8e-3c-1.0693 0.20959-1.9264 1.1999-2.2207 2.335-0.29457 1.1352-0.08241 2.3757 0.40865 3.4281" fill="#17282f"/></g></svg>
