<?xml version="1.0" encoding="UTF-8"?>
<!-- Created with Inkscape (http://www.inkscape.org/) -->
<svg width="200" height="200" version="1.1" viewBox="0 0 200 200" xml:space="preserve" xmlns="http://www.w3.org/2000/svg"><g stroke-width="2.5478"><path d="m85.249 142.79" fill="#ed1c24"/><path d="m200 99.983c0 55.229-44.77 99.999-99.999 99.999-1.8452 0-3.678-0.051-5.4994-0.15032-32.253-1.7475-60.442-18.781-77.448-43.98v-48.412c0-2.8245-16.932-13.079-16.704-15.844 4.262-51.303 47.249-91.611 99.652-91.611 52.673 0 95.836 40.724 99.713 92.406 0.18829 2.5058 0.285 5.0385 0.285 7.5919" fill="#f55"/><path d="m124.93 117.82c0.90569 1.9641 4.053 5.7945 2.7325 9.8182-1.5272 4.6559-6.4505 5.2712-6.4505 7.5435 0 1.1307 0.68982 5.6077-0.0722 7.4113-1.6524 3.9116-7.5619 7.608-14.476 8.2765-9.8488 0.95314-25.906 2.704-62.37-3.9032h-0.0015c-0.27578 0.0255-1.3213 0.0688-4.6729 0.12739-2.0887 0.0357 1.1361 8.5907 1.1361 8.5907-6.1917 0.11465-14.92 0.16561-23.708 0.1758v-2e-3c-10.765-15.95-17.05-35.174-17.05-55.868 0-2.8248 0.11829-5.6217 0.34569-8.3863 12.94 0.03822 27.162 0.02548 36.034-0.17835 0 0-2.4098 3.9015 0.41328 3.8324 8.1382-0.19873 7.7433-0.37631 8.4485-0.4879 2.7855-0.43924 6.6133-2.0609 10.258-10.39 6.8452-15.642 7.4959-20.205 13.363-24.115 3.0589-2.0395 5.942-4.4339 8.0467-9.4985 1.6693-4.0176 2.8492-9.7145 3.238-18.248 0.05992-1.3282 1.3712-5.4393 2.9346-5.7751 3.8548-0.82421 10.618 0.40408 13.702 10.279 0.66141 2.1131 1.7707 9.7973-0.36872 15.715-1.498 4.3066-3.8971 9.5109-7.0166 15.025-4.6852 7.0574 0.92106 8.7981 1.6785 8.7981h28.956s3.2395-0.36255 6.0442 1.6008c2.7246 1.906 5.0187 6.091 4.9478 9.2258-0.14365 6.3636-5.4533 8.5914-5.4533 10.683 0 1.0624 5.6123 4.9364 5.4548 9.6814-0.15287 4.6039-7.0566 7.9792-6.091 10.066" fill="#fff"/></g></svg>
